<svg version="1.1" id="svg2" sodipodi:docname="4900_7_08.eps" xmlns:inkscape="http://www.inkscape.org/namespaces/inkscape" xmlns:sodipodi="http://sodipodi.sourceforge.net/DTD/sodipodi-0.dtd" xmlns="http://www.w3.org/2000/svg" xmlns:svg="http://www.w3.org/2000/svg" viewBox="882.93 988.57 3651.58 3385.96">   <defs id="defs6"></defs>   <sodipodi:namedview id="namedview4" pagecolor="#ffffff" bordercolor="#000000" borderopacity="0.25" inkscape:showpageshadow="2" inkscape:pageopacity="0.0" inkscape:pagecheckerboard="0" inkscape:deskcolor="#d1d1d1"></sodipodi:namedview>   <g id="g8" inkscape:groupmode="layer" inkscape:label="ink_ext_XXXXXX" transform="matrix(1.3333333,0,0,-1.3333333,0,5333.3333)">     <g id="g10" transform="scale(0.1)">              <path d="m 33211.9,11915.6 c 0,0 -6961.3,1343.4 -4382,4232.2 541.5,606.5 1434.1,751 2309.6,51.7 716.4,-571.8 1422,-1707.6 1915.7,-3616.3 54.6,-213 107.4,-435.1 156.7,-667.6" style="fill:#d34646;fill-opacity:1;fill-rule:nonzero;stroke:none" id="path14" data-index="1"></path>       <path d="m 29168.3,15766.1 c 685.9,768.1 2219.5,419 2906.7,-2807.6 0,0 -4617.8,891.3 -2906.7,2807.6" style="fill:#e26d44;fill-opacity:1;fill-rule:nonzero;stroke:none" id="path16" data-index="2"></path>       <path d="m 29418.3,15520.4 c 397.7,445.5 1287.1,243 1685.6,-1628.1 0,0 -2677.9,516.9 -1685.6,1628.1" style="fill:#ffef63;fill-opacity:1;fill-rule:nonzero;stroke:none" id="path18" data-index="3"></path>       <path d="m 28985.9,16008.4 c -464,-519.6 -615.7,-991.2 -463.7,-1441.5 457.5,-1355.8 3431,-2149.7 4414.2,-2377.6 -788.1,3379.6 -2097,4077.5 -2634.8,4220.3 -491.7,130.6 -971.3,-15.6 -1315.7,-401.2 m 4225.8,-4302 c -13.2,0 -26.4,1.2 -39.6,3.8 -180.3,34.7 -4421.5,873.2 -5045.9,2722.8 -201.6,597.1 -17.3,1220.9 547.9,1853.8 453,507.3 1085.2,699.2 1734.8,526.9 1329.2,-352.9 2425.3,-2122.4 3007.2,-4854.8 14.6,-68.5 -6.1,-139.8 -55.2,-189.9 -39.7,-40.4 -93.7,-62.6 -149.2,-62.6" style="fill:#371a45;fill-opacity:1;fill-rule:nonzero;stroke:none" id="path20" data-index="4"></path>       <path d="m 32936.4,12189.3 c -935,216.7 -3670.3,945.5 -4329.4,2182.5 104.4,43.8 202.9,91.7 295.7,143.3 296.6,-539.2 1116.7,-933.5 1848.8,-1190.3 375.5,-328 855.3,-537.3 1346.1,-642 243.9,-52.2 491.2,-81 739.9,-93.1 33.7,-129 66.8,-262.6 98.9,-400.4 M 30553.5,15906 c -128.1,81.8 -255.6,137.4 -380.2,169.7 39.1,114.3 71.5,228.7 98.3,341.6 10,-2.5 20,-5 30,-7.7 148.5,-39.4 355.8,-121.2 594.8,-290.1 -122.9,-54 -238.9,-126.4 -342.9,-213.5" style="fill:#b43d46;fill-opacity:1;fill-rule:nonzero;stroke:none" id="path22" data-index="5"></path>       <path d="m 30751.5,13324.8 c -732.1,256.8 -1552.2,651.1 -1848.8,1190.3 137.9,76.7 263.4,161.5 377.4,252.7 158.5,-257.5 522.4,-456.3 883.7,-598.9 74.3,-204.5 182.8,-397.4 319,-565.7 81.5,-100.9 171.6,-193.6 268.7,-278.4 m -488.7,2248.8 c -82.8,59.2 -165.6,99.2 -246.3,122.2 61.4,125.2 113.3,252.6 156.8,379.9 124.6,-32.3 252.1,-87.9 380.2,-169.7 -113.4,-95 -212.5,-207.4 -290.7,-332.4" style="fill:#c05c44;fill-opacity:1;fill-rule:nonzero;stroke:none" id="path24" data-index="6"></path>       <path d="m 30163.8,14168.9 c -361.3,142.6 -725.2,341.4 -883.7,598.9 334.2,267.3 570.4,590 736.4,928 80.7,-23 163.5,-63 246.3,-122.2 -38.4,-61.4 -71.8,-125.9 -99.4,-192.9 -158.3,-384.1 -142.2,-819.1 0.4,-1211.8" style="fill:#d7c45d;fill-opacity:1;fill-rule:nonzero;stroke:none" id="path26" data-index="7"></path>       <path d="m 33211.9,11915.6 c 0,0 -3627.4,700 -4675.1,2176.1 8.5,83.5 11.6,168.7 8.5,255.1 20.8,8.2 41.3,16.5 61.7,25 659.1,-1237 3394.4,-1965.8 4329.4,-2182.5 -32.1,137.8 -65.2,271.4 -98.9,400.4 72.4,-3.5 145,-5.7 217.7,-6.5 54.6,-213 107.4,-435.1 156.7,-667.6 m -2315.5,4203.9 c -239,168.9 -446.3,250.7 -594.8,290.1 -10,2.7 -20,5.2 -30,7.7 16.4,68.9 30.6,137.2 43,204.8 268.9,-64.4 547.8,-201.2 824.9,-422.6 -82.9,-18.4 -164.4,-45.4 -243.1,-80" style="fill:#371a45;fill-opacity:1;fill-rule:nonzero;stroke:none" id="path28" data-index="8"></path>       <path d="m 27744.9,18552.9 1765.4,-316.4 c 389.4,-69.8 671.3,-409.7 668.9,-805.4 -5.3,-896.4 -264.2,-2405.1 -1856,-2943 -326.7,-110.5 -687.9,0.7 -899.1,273.4 l -1060.4,1368.9 1381.2,2422.5" style="fill:#ffffff;fill-opacity:1;fill-rule:nonzero;stroke:none" id="path30" data-index="9"></path>       <path d="m 28479.4,14772 c -41.8,150.4 -104.5,303.1 -191.6,457 -45.6,80.3 -104,165.7 -174,255.4 797.4,277.5 1255.6,800.8 1514,1365.5 l 310.1,60.6 C 29837.8,16090.3 29477.3,15207 28479.4,14772" style="fill: rgb(206, 204, 222); fill-opacity: 1; fill-rule: nonzero; opacity: 1;" id="path32" data-index="10"></path>       <path d="m 26614.4,16148.1 975,-1258.6 c 157.4,-203.3 425.4,-284.9 667,-203.4 1405.8,475.1 1707.9,1755.7 1713.8,2746.2 1.8,294.9 -207.2,546.6 -496.8,598.5 l -1620.1,290.4 -1238.9,-2173.1 m 1452,-1911.3 c -309.4,0 -610.1,141.8 -807.5,396.6 l -1060.5,1369 c -51.7,66.8 -58.2,158.2 -16.3,231.5 l 1381.2,2422.6 c 43.9,76.9 131.4,117.6 218.5,102.2 l 1765.3,-316.4 c 490.4,-87.9 844.2,-513.7 841.1,-1012.5 -5.4,-922.2 -272.3,-2556.5 -1998,-3139.8 -106.3,-35.9 -215.6,-53.2 -323.8,-53.2" style="fill: rgb(55, 26, 69); fill-opacity: 1; fill-rule: nonzero; opacity: 1;" id="path34" data-index="11"></path>       <path d="m 28214.6,17411.5 c -33.7,-100.6 -74.7,-200.2 -123.1,-297.9 l -880.4,-1769.1 H 16287.2 l -4729.7,5573.1 8497.5,3339.5 846.7,333 6476.9,-4620.8 c 818.4,-583.6 1144.6,-1626.6 836,-2557.8" style="fill:#ffffff;fill-opacity:1;fill-rule:nonzero;stroke:none" id="path36" data-index="12"></path>       <path d="m 27409.4,16212.2 c -61.5,55.1 -125.2,110.9 -190.6,167.1 l 303.3,59.2 -112.7,-226.3 M 24837,18111.1 c -142.8,90.8 -284.3,178.7 -423,262.8 -558.5,339 -1565.5,917 -2551.2,1315.6 149,161.8 291.2,329.7 425.9,503.1 266.1,13.6 532.4,100.9 783.1,249.5 236.3,-221.3 483.3,-438.3 741.7,-649.4 9.2,-168.6 65.9,-334.6 168.8,-479.4 l 854.7,-1202.2" style="fill:#d7d1da;fill-opacity:1;fill-rule:nonzero;stroke:none" id="path38" data-index="13"></path>       <path d="m 16383.9,15553.8 h 10697.9 l 822.5,1652.9 c 453.5,911.1 181.3,2001.5 -647.3,2592.6 l -6384.4,4555 -8966.5,-3524.4 4477.8,-5276.1 m 10827.3,-418.1 h -10924 c -61.4,0 -119.7,27 -159.4,73.8 l -4729.6,5572.8 c -43.7,51.4 -59.8,120.8 -43.4,186.2 16.5,65.4 63.5,118.9 126.3,143.6 l 9344.1,3672.7 c 65.8,25.9 140.3,16.8 197.9,-24.3 l 6476.7,-4620.9 c 996.8,-711.1 1324.3,-2022.9 778.8,-3119.1 l -880.2,-1768.9 c -35.4,-71 -107.9,-115.9 -187.2,-115.9" style="fill:#371a45;fill-opacity:1;fill-rule:nonzero;stroke:none" id="path40" data-index="14"></path>       <path d="m 33049.8,17731.4 -5874.3,-1147.6 c -532.8,-104 -1076.8,113.3 -1390.7,555.2 l -1194.4,1679.8 -437.6,615.8 c -201.6,283.2 -157.7,630.4 34.2,860.9 131.4,158.7 332.6,262.2 571.3,251.4 l 6910.6,-304.2 566.9,-1030.8 442.9,-805.7 371.1,-674.8" style="fill:#ffffff;fill-opacity:1;fill-rule:nonzero;stroke:none" id="path42" data-index="15"></path>       <path d="m 24725.4,20338.8 c -184,0 -344.9,-95.6 -433.8,-258.9 -92.7,-170.3 -80.9,-366.3 31.4,-524.3 l 1632.1,-2295.5 c 266.1,-374.2 729,-559.2 1180,-471.2 l 5593.7,1092.7 -1186.6,2157.4 -6793.2,299.2 c -7.9,0.4 -15.8,0.6 -23.6,0.6 m 2186.2,-3989.6 c -508.5,0 -996,244.9 -1297.2,668.7 l -1632.1,2295.4 c -204,286.9 -226.2,657.2 -57.9,966.4 168.3,309.2 490.9,491.4 842.9,476.2 l 6910.7,-304.4 c 72.9,-3.2 138.8,-44.2 174,-108.1 l 1381.2,-2511.3 c 32.1,-58.5 34.4,-128.8 6.2,-189.3 -28.4,-60.5 -83.8,-103.8 -149.3,-116.6 l -5874.8,-1147.6 c -101.2,-19.8 -202.9,-29.4 -303.7,-29.4" style="fill: rgb(55, 26, 69); fill-opacity: 1; fill-rule: nonzero; opacity: 1;" id="path44" data-index="16"></path>       <path d="m 32235.8,19211.9 -7645.4,-393.1 -437.6,615.8 c -340.3,478 19.1,1138.2 605.5,1112.3 l 6910.6,-304.2 566.9,-1030.8" style="fill: rgb(115, 157, 255); fill-opacity: 1; fill-rule: nonzero; opacity: 1;" id="path46" data-index="17"></path>       <path d="m 31687.2,19742.7 -6800.4,299.3 c -11.3,0.5 -22.6,0.8 -33.7,0.8 -107.6,0 -207,-23.3 -295.2,-64.2 -77.7,68.4 -144.5,133.6 -201.7,194.2 92.4,106 223.6,165.8 369.3,165.8 7.9,0 15.7,-0.1 23.7,-0.5 l 6792.5,-299 145.5,-296.4" style="fill:#c7d8ff;fill-opacity:1;fill-rule:nonzero;stroke:none" id="path48" data-index="18"></path>       <path d="m 26911.4,16767.3 c -62,0 -123.6,4.9 -184.1,14.5 -288,226.3 -597.1,454.5 -913.1,676.4 l -832.8,1171.4 2247.2,115.6 c 927.2,-220.8 2114,-369.9 3628,-369.9 462.1,0 955,13.9 1480,43.9 l 274.9,-560.5 -5476.4,-1069.8 c -74.6,-14.6 -149.4,-21.6 -223.7,-21.6" style="fill: rgb(215, 209, 218); fill-opacity: 1; fill-rule: nonzero; opacity: 1;" id="path50" data-index="19"></path>       <path d="m 26960.8,16594.9 c -76.1,62.1 -154,124.4 -233.5,186.9 60.5,-9.6 122.1,-14.5 184.1,-14.5 74.3,0 149.1,7 223.7,21.6 l 5476.4,1069.8 81.7,-166.4 -5487.1,-1071.9 c -81.7,-15.9 -163.9,-24.3 -245.3,-25.5 m -1146.6,863.3 c -129.5,90.9 -260.1,180.8 -391,269.1 l -634.6,892.4 192.8,9.9 832.8,-1171.4" style="fill:#371a45;fill-opacity:1;fill-rule:nonzero;stroke:none" id="path52" data-index="20"></path>       <path d="m 24694.3,19033.5 -371.2,522.3 c -32.4,45.6 -56.4,94.3 -72,144.6 71.2,119.1 176.8,217.8 306.8,278.2 307.1,-270.4 783.8,-591.3 1507.5,-874.6 l -1371.1,-70.5" style="fill:#6783da;fill-opacity:1;fill-rule:nonzero;stroke:none" id="path54" data-index="21"></path>       <path d="m 24251.1,19700.4 c -38.4,124.1 -25.4,258.1 40.5,379.2 18.5,34.1 40.2,65.3 64.6,93.2 57.2,-60.6 124,-125.8 201.7,-194.2 -130,-60.4 -235.6,-159.1 -306.8,-278.2" style="fill:#aab2da;fill-opacity:1;fill-rule:nonzero;stroke:none" id="path56" data-index="22"></path>       <path d="m 24725.5,20338.6 c -184.1,0 -345.1,-95.6 -433.9,-259 -92.6,-170.2 -80.8,-366 31.5,-523.8 l 371.2,-522.3 7197.6,370 -349.6,635.5 -6793.1,299.1 c -8,0.4 -15.8,0.5 -23.7,0.5 m -135.2,-1728.8 c -67.4,0 -131,32.6 -170.3,87.9 l -437.6,615.8 c -203.9,286.5 -226.2,656.6 -58.1,965.8 168.2,309.5 491.4,493 843.3,476.4 l 6910.4,-304.2 c 72.9,-3.2 138.9,-44.1 174,-108.1 l 567,-1030.7 c 34.7,-63.1 34.4,-139.6 -0.6,-202.5 -35,-62.9 -100,-103.4 -171.9,-107 l -7645.4,-393.1 c -3.6,-0.2 -7.1,-0.3 -10.8,-0.3" style="fill:#371a45;fill-opacity:1;fill-rule:nonzero;stroke:none" id="path58" data-index="23"></path>       <path d="m 33543.3,17151.5 -59.5,-29.2 c -227.5,-111.6 -502.2,-17.7 -613.8,209.7 l -1599.2,3259.4 c -111.6,227.4 -17.7,502.2 209.7,613.7 l 59.5,29.2 c 227.4,111.6 502.2,17.7 613.8,-209.7 L 33753,17765.2 c 111.6,-227.4 17.7,-502.2 -209.7,-613.7" style="fill:#ff7373;fill-opacity:1;fill-rule:nonzero;stroke:none" id="path60" data-index="24"></path>       <path d="m 33297.1,17086.5 c -181.8,0 -356.3,101.2 -441.7,275.2 l -1569.9,3199.9 c -116.7,237.8 -23.9,524.4 207.6,648.9 3.9,-8.7 7.8,-17.5 12.2,-26.3 l 1569.9,-3199.9 c 85.5,-174.1 260.2,-275.4 442.1,-275.4 72.6,0 146.4,16.1 216.1,50.3 5.9,2.9 11.7,5.9 17.1,9.3 100.1,-238.3 -1.9,-516.2 -236.8,-631.4 -69.9,-34.4 -143.8,-50.6 -216.6,-50.6" style="fill:#ce5c6e;fill-opacity:1;fill-rule:nonzero;stroke:none" id="path62" data-index="25"></path>       <path d="m 31741.7,21072.2 c -36.9,0 -74.3,-8.2 -109.6,-25.5 l -59.6,-29.3 c -59.8,-29.3 -104.6,-80.2 -126.2,-143.3 -21.5,-63.1 -17.2,-130.8 12.1,-190.7 l 1599.2,-3259.3 c 29.4,-59.9 80.3,-104.8 143.4,-126.3 63.2,-21.6 130.9,-17.3 190.7,12.1 l 59.4,29.2 h 0.1 c 123.6,60.7 174.7,210.5 114.1,334.1 l -1599.1,3259.3 c -43.4,88.3 -132.3,139.7 -224.5,139.7 z M 33282.3,16866 c -72.7,0 -145.7,12 -216.5,36.2 -168.7,57.7 -305,177.6 -383.5,337.8 l -1599.2,3259.3 c -78.5,160.1 -90.1,341.2 -32.4,510 57.7,168.7 177.6,304.9 337.7,383.5 l 59.7,29.2 c 330.4,162.1 731.2,25.2 893.4,-305.3 l 1599.1,-3259.4 c 162.2,-330.5 25.2,-731.3 -305.2,-893.5 l -59.5,-29.2 c -93,-45.6 -193,-68.6 -293.6,-68.6" style="fill:#371a45;fill-opacity:1;fill-rule:nonzero;stroke:none" id="path64" data-index="26"></path>       <path d="m 17259.4,15887 -7858.76,-416 -503.92,791.1 -779.83,1224.6 -562.52,883.4 2607.53,299.8 5835.3,671.4 138.2,5.4 517.1,-1592.4 606.9,-1867.3" style="fill:#ffffff;fill-opacity:1;fill-rule:nonzero;stroke:none" id="path66" data-index="27"></path>       <path d="m 7910.26,18200.5 1601.13,-2514.2 7464.91,395.2 -990,3048 -8076.04,-929 m 1490.29,-2938.4 c -71.15,0 -137.75,36.2 -176.27,96.7 l -1846.09,2898.8 c -38.68,60.8 -43.36,137.2 -12.41,202.2 31,65.1 93.27,109.5 164.84,117.8 l 8442.88,971.2 c 5.1,0.6 10.2,1 15.3,1.2 l 138.1,5.6 c 94.5,5 178.4,-55.1 207.4,-144.3 L 17458,15951.8 c 20.1,-61.8 10.3,-129.4 -26.5,-183 -36.8,-53.6 -96.4,-87 -161.3,-90.4 l -7858.56,-416 c -3.72,-0.2 -7.39,-0.3 -11.09,-0.3" style="fill:#371a45;fill-opacity:1;fill-rule:nonzero;stroke:none" id="path68" data-index="28"></path>       <path d="m 16652.6,17754.2 -8535.68,-267.4 -562.43,883.1 8442.91,971.2 138,5.7 517.2,-1592.6" style="fill:#739dff;fill-opacity:1;fill-rule:nonzero;stroke:none" id="path70" data-index="29"></path>       <path d="m 8191.22,17978.5 -129.84,239.3 2207.02,253.9 c 64.1,-74 117.9,-153.2 161.6,-235.7 l -2238.78,-257.5" style="fill:#c7d8ff;fill-opacity:1;fill-rule:nonzero;stroke:none" id="path72" data-index="30"></path>       <path d="m 9511.39,15686.3 -386.84,607.4 c 130.6,15.8 258.36,35.3 382.95,57.7 567.8,102.3 934.7,523.6 1039.1,1002.4 l 2255.1,70.6 c -193.6,-146.1 -380.7,-290.7 -561.2,-430.1 -603.6,-466.3 -1124.9,-869 -1550.5,-1066.6 -142.4,-66.2 -298.6,-133.5 -463.5,-203.5 l -715.11,-37.9" style="fill:#ceccde;fill-opacity:1;fill-rule:nonzero;stroke:none" id="path74" data-index="31"></path>       <path d="m 9526.06,15483.4 c -9.13,39.1 -23.58,77.6 -43.64,114.6 l -14.25,26.3 c -0.53,0.9 -1.07,2 -1.61,2.9 l -76.17,140.7 c -0.03,0 -0.06,-0.1 -0.09,-0.1 l -284.07,523.7 c 6.11,0.8 12.22,1.5 18.32,2.2 l 386.84,-607.4 715.11,37.9 c -39.4,-16.8 -79.2,-33.6 -119.5,-50.7 -137.63,-58.3 -280.11,-118.7 -424.13,-181.8 l -156.81,-8.3" style="fill:#2e1549;fill-opacity:1;fill-rule:nonzero;stroke:none" id="path76" data-index="32"></path>       <path d="m 10570.3,17772.8 c -16.5,159.2 -62.6,316.6 -140.3,463.2 l 865.3,99.6 c 300.2,-189.6 613.6,-360.2 938.6,-510.7 l -1663.6,-52.1" style="fill:#5e7ede;fill-opacity:1;fill-rule:nonzero;stroke:none" id="path78" data-index="33"></path>       <path d="m 10430,18236 c -43.7,82.5 -97.5,161.7 -161.6,235.7 l 701.1,80.7 c 106.7,-74.8 215.3,-147.1 325.8,-216.8 L 10430,18236" style="fill:#a1adde;fill-opacity:1;fill-rule:nonzero;stroke:none" id="path80" data-index="34"></path>       <path d="m 7910.26,18200.5 319.05,-501 8138.59,254.9 -381.6,1175.1 -8076.04,-929 m 206.65,-922.7 c -71.3,0 -137.85,36.4 -176.32,96.7 l -562.4,883.1 c -38.68,60.8 -43.36,137.2 -12.41,202.2 31,65.1 93.27,109.5 164.84,117.8 l 8442.88,971.2 c 5.1,0.6 10.2,1 15.3,1.2 l 138.1,5.6 c 94.5,5 178.4,-55.1 207.4,-144.3 l 517.2,-1592.6 c 20.2,-62.5 10,-130.9 -27.9,-184.8 -37.8,-53.8 -98.7,-86.6 -164.4,-88.7 l -8535.75,-267.3 c -2.21,-0.1 -4.4,-0.1 -6.54,-0.1" style="fill:#371a45;fill-opacity:1;fill-rule:nonzero;stroke:none" id="path82" data-index="35"></path>       <path d="m 9297.94,14976.1 -58.28,-31.6 C 9017,14823.8 8738.6,14906.3 8617.83,15129 l -1731.01,3191.4 c -120.77,222.6 -38.18,501 184.47,621.8 l 58.29,31.6 c 222.65,120.8 501.06,38.2 621.82,-184.5 L 9482.42,15598 c 120.77,-222.7 38.17,-501.1 -184.48,-621.9" style="fill:#ff7373;fill-opacity:1;fill-rule:nonzero;stroke:none" id="path84" data-index="36"></path>       <path d="m 9468.17,15624.3 -77.87,143.5 c 0.03,0 0.06,0.1 0.09,0.1 l 76.17,-140.7 c 0.54,-0.9 1.08,-2 1.61,-2.9" style="fill:#27114d;fill-opacity:1;fill-rule:nonzero;stroke:none" id="path86" data-index="37"></path>       <path d="m 7169.25,17799.7 -266.78,491.7 c -0.83,1.6 -1.66,3.1 -2.47,4.7 l 269.25,-496.4" style="fill:#8d68de;fill-opacity:1;fill-rule:nonzero;stroke:none" id="path88" data-index="38"></path>       <path d="m 8721.1,15013.3 c -47.21,39 -87.86,87.5 -118.83,144.7 L 7169.25,17799.7 6900,18296.1 c -122.91,232.1 -40.96,519.2 183.64,652.1 l 1623.12,-2992.8 c 89,-164.2 257.96,-257.3 432.46,-257.3 79.2,0 159.53,19.1 234.08,59.5 5.83,2.9 11.65,6.3 17,10.2 l 77.87,-143.5 c 34.51,-64.8 53.11,-133.8 57.12,-202.6 -273.25,-123.3 -548.3,-257.6 -804.19,-408.4" style="fill:#ce5c6e;fill-opacity:1;fill-rule:nonzero;stroke:none" id="path90" data-index="39"></path>       <path d="m 7347.96,18820.4 c -41.02,0 -81.64,-10.2 -118.7,-30.4 l -58.35,-31.6 c -58.55,-31.7 -101.27,-84.5 -120.27,-148.4 -18.94,-63.9 -11.86,-131.3 19.93,-190 l 1731,-3191.3 c 31.79,-58.6 84.47,-101.3 148.39,-120.3 64.11,-18.9 131.5,-11.9 190.04,19.9 l 58.35,31.6 c 120.95,65.7 165.92,217.5 100.34,338.4 l -1731,3191.4 c -31.79,58.6 -84.53,101.3 -148.44,120.3 -23.49,6.9 -47.46,10.4 -71.29,10.4 z m 1950,-3844.3 h 0.49 z m -276.08,-296.4 c -63.76,0 -127.92,9.2 -190.82,27.9 -170.94,50.7 -311.96,165 -396.97,321.8 l -1731,3191.3 c -85.06,156.8 -103.96,337.3 -53.23,508.2 50.74,171 164.99,312 321.78,397 l 58.35,31.7 c 156.69,84.9 337.21,103.9 508.15,53.2 171,-50.8 311.97,-165 397.03,-321.8 l 1731,-3191.4 c 175.49,-323.6 55.03,-729.7 -268.55,-905.2 l -0.05,-0.1 -58.3,-31.5 c -99.07,-53.8 -207.67,-81.1 -317.39,-81.1" style="fill:#371a45;fill-opacity:1;fill-rule:nonzero;stroke:none" id="path92" data-index="40"></path>       <path d="m 28623.8,8627.9 c -1177.3,-847.7 -2495.8,423.8 -2495.8,423.8 0,0 -423.3,-1742.2 -1836,-1648 -1412.7,94.2 -1743.7,1365.3 -1743.7,1365.3 0,0 -1468.8,-297.9 -3526.1,770.1 -2301.9,1195.3 -4524.1,5210.2 -4524.1,5210.2 -2119.3,-2542.6 -5803.06,-3934.3 -6639.52,-2118.8 -49.32,107.4 -87.41,210.5 -114.76,310.1 -431.66,1576.2 1794.04,2221.3 3034.38,2797.5 520,241.2 1155.3,758.8 1898,1327.7 1139.2,873.6 2530.9,1870.2 4146.7,2182.2 0,0 1279.8,202.2 2995.7,633.9 590.9,148.4 1662.2,-201.7 2845.9,-782.3 2254.5,-1105.5 4916.3,-3047.5 5441.2,-3973.8 68.4,-120.7 119.6,-239.3 156.7,-355.5 v -0.5 -0.5 c 100.1,-314.5 95.3,-611.8 31.3,-880.9 -188.5,-800.8 -894.1,-1352.1 -894.1,-1352.1 117.7,-86 230,-173.4 336.9,-260.8 91.8,-75.7 179.7,-151.8 263.7,-228 1415.6,-1287.7 1667.1,-2668.1 623.6,-3419.6" style="fill: rgb(255, 255, 255); fill-opacity: 1; fill-rule: nonzero; opacity: 1;" id="path94" data-index="41"></path>       <path d="m 24398.5,7609.2 c -30.3,0 -61.2,1 -92.7,3 -111.5,7.5 -215.5,23 -312.4,45.1 1324.2,303.5 777.6,1525.3 777.6,1525.3 -689.8,-343 -1586.2,-508 -1943.8,-563.5 -51.7,112.4 -73.7,191.2 -76.8,202.8 -24.4,93.5 -109.2,156.2 -202.6,156.2 -13.5,0 -27.1,-1.2 -40.7,-3.9 -4.8,-1 -175.1,-32.7 -475.9,-32.7 -575,0 -1627.2,115.8 -2912.6,783.2 -757.3,393.2 -1512,1110.5 -2178.6,1886.4 1218.2,156.2 2595.3,330.7 2612.2,332.8 72,8.3 137.7,21.1 197.6,37.5 204.1,26.9 375.3,49.4 500.6,65.9 97.3,13 190.3,42 274,85.2 75.9,38 145.3,87.1 205.8,145.7 165.3,159 401.4,390.9 587.2,593.2 v 0.1 c 298.6,325.3 392.1,785.4 244.1,1200.9 l -580.3,1626.8 c 1069.3,-861.2 3096.8,-2480.8 3945.1,-3068.1 622.2,-430.8 1159.9,-560.8 1582.5,-560.8 412.7,0 715.6,124 880,213.1 1048.3,-797.6 1668.4,-1712 1665.5,-2464.1 -1.6,-415.1 -187.5,-758.9 -552.6,-1021.7 -255.2,-183.8 -519.2,-253.1 -772.3,-253.1 -333.3,0 -647.8,120.2 -898.7,258 93.9,-22.4 191.2,-35.6 290.2,-35.6 205.6,0 418.8,56.9 623.9,206.2 504.4,367.2 472.7,888.2 351.1,1270.1 -50.3,158.2 -194.1,250.4 -342.1,250.4 -80.4,0 -162.1,-27.2 -230.7,-85.9 -360.3,-308.6 -822.8,-597.6 -1165.6,-794.9 -135.5,-77.9 -193.9,-223.4 -175,-359.3 -17.6,4.7 -35.8,7.1 -54.1,7.1 -19.4,0 -39,-2.7 -58.1,-8.2 -71.9,-20.7 -127.2,-78.4 -145,-151 -15.4,-62.5 -381.9,-1492.2 -1526.8,-1492.2 M 21749.4,10794 c 0,0 298.4,-395 966.9,-724.2 5.8,1.5 11.2,3 17.1,4.4 0,0 58.3,-2.5 162.2,-2.5 431.1,0 1645.7,42.9 2728.3,483.9 578.1,235.4 533.1,1071.6 -66.8,1244.2 -22,6.4 -44.1,12.9 -66.3,19.6 -957,290.1 -1976,1058.9 -2867.5,1895 -76.2,71.4 -167.3,103.5 -256.8,103.5 -191.9,0 -375.9,-147.7 -386.6,-371.4 -0.1,-2.9 -0.3,-5.8 -0.5,-8.6 -41.9,-572.2 -522.4,-1534.8 -1307.6,-1660.4 -286.1,-45.7 -750,-122 -1224.1,-200.6 -292.9,-48.5 -323.8,-456.9 -41.9,-549.7 527.4,-173.7 1089.3,-274.3 1683.7,-274.3 215.7,0 435.7,13.3 659.9,41.1 m -3491.4,292.5 v 0 l -0.9,0.5 v -0.5 h 0.9 m -8900.17,927.6 c -103.26,0 -203.06,6.2 -298.69,18.9 -491.21,64.9 -831.25,295.3 -1010.74,684.8 -25.39,55.1 -47.56,109.2 -66.52,162.3 75.48,-13 155.01,-20.7 237.45,-20.7 510.52,0 1131.15,297.5 1570.5,1488 0,0 15.53,-669 444.67,-668.9 173.1,0 413.7,109 747.8,415 0,0 236.8,-503.7 759.4,-503.7 47.9,0 98.1,4.2 150.8,13.4 627.9,109.9 2082.1,1735.5 2234,2524.1 0,0 142.2,-292.2 415.5,-740.2 l -342.5,-379.4 c -154.9,-171.3 -253.4,-379.8 -290.1,-599.1 -1362.2,-1400.6 -3242,-2394.5 -4551.57,-2394.5 m 17155.07,475.2 c -348.4,0 -805.7,109.6 -1348.6,485.5 -1140.2,789.3 -4567.2,3572.4 -4601.7,3600.4 -23.6,19.1 -50.1,32.3 -77.7,39.7 4.6,0 9.2,0.1 13.9,0.1 1266.4,0 3180.9,-1394.9 3180.9,-1394.9 0,0 392.6,-1161.3 966.3,-1391.8 108.2,-43.3 199,-60.9 275.2,-60.9 328.1,0 385,326.1 385,326.1 0,0 391.2,-660.6 1190.5,-660.6 38.4,0 77.8,1.6 118.2,4.8 639.9,51.3 1221.6,734.4 1490.7,1102 193.7,-1009.8 -778.7,-1794.7 -834.1,-1838.4 -25.1,-18.7 -295.8,-212 -758.6,-212 m -6184.1,4106.2 c -5.4,2.9 -10.8,5.7 -16.3,8.5 14.9,1.8 29.9,3.4 45.1,4.8 -9.9,-3.7 -19.5,-8.1 -28.8,-13.3" style="fill: rgb(215, 209, 218); fill-opacity: 1; fill-rule: nonzero; stroke: none; opacity: 1;" id="path96" data-index="42"></path>       <path d="m 15832.5,16507.1 c -1082.9,0 -2111.5,137.6 -3039.5,385.2 207.3,159 422.8,322.1 646.2,484 742.2,-212.7 1525.1,-326.1 2329.9,-326.1 2258.3,0 4304,886.3 5777.2,2314.6 290.8,-111.5 606,-249 940.7,-410.7 -1221.4,-1451.2 -3742.4,-2447 -6654.5,-2447" style="fill:#d7d1da;fill-opacity:1;fill-rule:nonzero;stroke:none" id="path98" data-index="43"></path>       <path d="m 22547.8,8978.1 c 93.4,0 178.2,-62.7 202.6,-156.2 12.2,-45.3 316.4,-1127.1 1555.4,-1209.7 1217.9,-79.8 1603.7,1425.1 1619.5,1489.2 17.8,72.6 73.1,130.3 145,151 71.8,20.7 149.2,1.7 203.1,-50.2 48.6,-46.7 1208.4,-1138.9 2228.3,-404.6 365.1,262.8 551,606.6 552.6,1021.7 3,778.7 -661.7,1731.2 -1778.1,2548.1 -52.9,38.7 -84.5,99.9 -85.6,165.5 -1,65.5 28.7,127.7 80.3,167.9 55.4,43.6 1353.8,1085.5 653.2,2322.1 -366.5,646.6 -1933.9,1905.6 -3726.9,2993.6 -1976.8,1199.5 -3635.5,1836.3 -4327.6,1662.4 -1659.5,-417.1 -2931.5,-623.9 -3010.5,-636.6 -1714.2,-332.4 -3182.7,-1467 -4363,-2378.8 -623.5,-481.7 -1161.9,-897.7 -1630,-1115.1 -182.8,-84.8 -383.5,-169.8 -596,-259.9 -899.73,-381.1 -2019.41,-855.4 -2302.66,-1587.6 -114.26,-295.4 -87.79,-617 80.96,-983.1 179.49,-389.5 519.53,-619.9 1010.74,-684.8 1441.46,-190.7 3809.66,1087.9 5278.16,2850.1 44.1,53 111.2,80.6 180.3,74.2 68.6,-6.5 129.7,-46.4 163.1,-106.8 21.9,-39.6 2219.1,-3973.7 4437.9,-5125.8 1957.8,-1016.5 3374.4,-753.4 3388.5,-750.5 13.6,2.7 27.2,3.9 40.7,3.9 M 24399,7191 c -39.7,0 -80,1.4 -121,4.1 -1210.7,80.7 -1708.1,960.3 -1868.5,1344.1 -464.2,-47.1 -1776.3,-71.9 -3483.6,814.5 -2014.7,1046.2 -3922.6,4114.8 -4462.6,5035.6 -1580,-1769 -3929.6,-2973 -5458.95,-2770.8 -633.74,83.8 -1095.6,403.4 -1335.64,924.3 -215.53,467.8 -246.19,908.1 -91.16,1308.9 347.07,897.2 1557.13,1409.9 2529.45,1821.8 209.1,88.6 406.7,172.3 583,254.2 425.6,197.6 946.9,600.3 1550.5,1066.6 1216.1,939.5 2729.4,2108.6 4542.6,2459.1 2.3,0.5 4.6,0.9 7,1.2 12.7,2.1 1291.6,206 2977.6,629.8 1167.1,293.1 3637.9,-1098.5 4646.3,-1710.5 1535.3,-931.6 3402.4,-2313 3873.8,-3144.9 624.4,-1102 -8.7,-2148 -557.7,-2680.8 1113.9,-871.9 1745.6,-1857.5 1742.2,-2730.5 -2.1,-548.7 -253.2,-1018.8 -726.3,-1359.4 -897.1,-645.9 -1924.9,-209.6 -2512.9,231.6 C 25986,8042.2 25401.7,7191.1 24399,7191" style="fill:#371a45;fill-opacity:1;fill-rule:nonzero;stroke:none" id="path100" data-index="44"></path>       <path d="m 26508.8,12070.3 c -422.6,0 -960.3,130 -1582.5,560.8 -1153.3,798.5 -4486.1,3504.8 -4627.4,3619.6 -89.5,72.8 -103.1,204.5 -30.3,294.1 72.8,89.5 204.3,103.2 294,30.4 34.5,-28 3461.5,-2811.1 4601.7,-3600.4 1273.4,-881.6 2074.6,-298.1 2108.1,-272.8 91.7,69.1 222.6,52 292.4,-39.1 69.9,-91.2 53.9,-221 -36.7,-291.6 -25.4,-19.8 -397.9,-301 -1019.3,-301" style="fill:#371a45;fill-opacity:1;fill-rule:nonzero;stroke:none" id="path102" data-index="45"></path>       <path d="m 25028.1,14492.7 c 109.7,-61.6 205.3,-134.4 297.3,-219.3 91.1,-84.9 175.1,-181.8 243.5,-299.8 33.2,-59.4 62.4,-124.2 82.9,-195.9 21.2,-71.5 29.8,-151.7 23,-233.6 -6.7,-81.8 -30.6,-164.5 -67.9,-237.7 l -30.5,-53.1 -34.5,-48.5 c -11,-16.2 -25.5,-31.4 -39.2,-46.8 -14,-15.3 -27.5,-30.8 -44,-44.3 -61.3,-57.8 -137.9,-102.6 -216.1,-131.2 -78.7,-28.2 -159.1,-41.5 -235,-44.2 -75.8,-2.1 -148.3,3.6 -217.5,15.5 -68.8,12.6 -134,30.2 -197.3,50.2 -125.8,41.2 -241.8,95.3 -351.6,156.4 -54.7,30.9 -108.4,62.7 -160,97.8 -53,35.2 -100.1,69.6 -154.8,113.5 -90,72.3 -104.4,203.9 -32.1,293.9 67.2,83.6 185.4,101.9 274,46.2 l 8.5,-5.3 c 38.7,-24.3 88.5,-53.5 133.6,-79.5 46.6,-26 93.1,-52.1 140.3,-75.8 94.1,-48.4 189.6,-90.1 283.1,-122.6 93.5,-32 186,-51.5 265.6,-53.9 39.8,-0.9 74.9,4.3 105.9,12.8 31.1,8.1 58.5,19.6 83.3,39.3 6.9,3.7 12.5,10 18.7,15.5 6,5.7 12.8,10.3 18.4,17.9 l 18.1,20.4 c 4.7,7.1 9.6,14.1 14.7,21.1 18.8,27.9 32.5,56.6 40.2,89.5 15.4,64.6 6.9,151.7 -26.3,242.1 -63.3,183.6 -197.8,371.7 -335.5,544.6 l -3.1,3.9 c -25.6,32 -20.3,78.7 11.8,104.2 24.3,19.4 57,21 82.5,6.7" style="fill:#371a45;fill-opacity:1;fill-rule:nonzero;stroke:none" id="path104" data-index="46"></path>       <path d="m 13416.6,13448.8 h -1.6 c -115.4,0.9 -208.3,95.2 -207.5,210.6 14.2,1960.8 -1210.6,2714.1 -1262.8,2745.2 -98.9,59.1 -131.8,187.1 -73.2,286.2 58.7,99.1 186.2,132.3 285.4,74.1 60.6,-35.6 1484.7,-896.4 1468.7,-3108.5 -0.8,-115 -94.3,-207.6 -209,-207.6" style="fill:#371a45;fill-opacity:1;fill-rule:nonzero;stroke:none" id="path106" data-index="47"></path>       <path d="m 10159.1,14711.8 c -182.8,-262.9 -347.53,-554.2 -433.66,-846.1 -40.45,-145.5 -57.39,-292.6 -30.71,-414.7 13.4,-61 37.43,-114.8 71.48,-161.9 9.52,-11.2 18.75,-22.5 27.42,-34.2 l 32.77,-31.7 c 20.28,-24 45.18,-36.8 67.43,-53.8 92.5,-56.7 201.67,-62.3 328.97,-27.9 125.8,33.4 257,105.9 376.4,192.6 14.7,11.1 29.9,21.8 44.1,33.4 l 26.7,20.8 c 36.3,27.3 81.6,45.9 128.1,51.5 92.7,12.4 191.5,-29.3 247.6,-106.6 7.3,-9.5 13.1,-19.2 18.9,-29.3 l 4.7,-8.4 5.6,-9.8 c 3.4,-6.8 7.9,-12.8 11.5,-19.4 31.1,-51.7 67.7,-96.6 106.4,-129.9 38.6,-34.5 79.9,-58.6 132.8,-74 52.7,-16.5 117,-20 190.8,-19.1 l 13.5,0.2 c 71.3,0.8 129.7,-56.3 130.6,-127.6 0.5,-47.1 -24.4,-88.7 -61.8,-111.7 -84.3,-51.5 -187.4,-85.3 -301.4,-88.5 -113.8,-3.7 -234.9,31.4 -332.1,93.9 -99,61.7 -174.5,145 -232.5,234.1 -7.2,11.2 -14.4,22.4 -20.8,34.1 l -9.8,17.5 -2.4,4.4 c -0.3,0.3 -3.1,5.6 -0.5,0.8 2.9,-5.7 6.5,-10.7 10.3,-16.1 31.6,-43.3 86.8,-66.8 137.9,-59.5 25.8,3 51.2,13.6 70.8,28.5 l 3.1,2.5 -1.7,-1.3 -3.6,-2.6 -7,-5.2 -14,-10.5 c -18.6,-14.2 -37.9,-27.1 -56.9,-40.5 -153.6,-103.5 -320.7,-194.1 -519.5,-241.8 -97.8,-25.7 -208.1,-31.8 -318.4,-18.2 -111.55,11.2 -221.66,60 -314.18,121.3 -43.93,33.9 -89.34,67.2 -122.76,107.9 -17.95,19.7 -36.01,39.1 -53.17,59.3 -15.9,22.1 -31.25,44.5 -46.29,67 -57.16,92.9 -93.15,198.4 -107.28,301.9 -28.56,209 18.56,400.4 83.65,569.7 66.21,170.1 155.92,322.7 254.24,466 100.05,143.2 207.82,274.4 331.79,399.5 34.4,34.8 90.4,35 125.1,0.6 31.1,-30.8 34.6,-78.8 10.4,-113.4 l -2.6,-3.8" style="fill:#371a45;fill-opacity:1;fill-rule:nonzero;stroke:none" id="path108" data-index="48"></path>       <path d="m 20321.6,10868.7 c 113.8,-12 234.8,-16.7 352.4,-16.4 118.2,0.2 236.2,5.3 353.2,16.1 117,10.5 233.1,25.3 347.3,46.5 114.5,19.4 226.6,47.7 337,77.3 l 0.2,0.1 c 64.6,13.9 128.6,-6.6 173,-49.1 l 13.6,-13.2 c 32.1,-31.2 75.8,-70.9 116.5,-105.2 41.5,-35.3 84.1,-70.2 127.5,-104.1 86.3,-68.4 176.5,-132.4 268.4,-193.5 184.1,-121.4 376.7,-229.3 576.4,-318.5 399.2,-179.1 827.6,-279.7 1257.8,-284.8 53.7,1.2 107.6,-3.4 161.3,2.3 l 161.1,10.3 c 106.8,14.5 214.2,25.1 319.7,50.2 106.7,17.8 210,53.1 315,80.6 l 154,55.3 c 25.7,9.2 51.7,17.5 77.2,27.4 l 75.5,32.5 c 406.8,166.1 791.3,396.7 1176.5,647.2 l 0.7,0.5 c 62,40.3 145,22.7 185.4,-39.4 33.8,-52 26.8,-118.9 -13,-162.9 -321.9,-356.2 -721,-649.3 -1167.6,-860.2 l -83.9,-39.4 c -28.4,-12.1 -57.6,-22.7 -86.4,-34.1 l -174.1,-65.7 c -119.6,-34.5 -237.2,-75.9 -360.3,-99.3 -121.3,-30.6 -245.8,-46 -369.8,-64.3 -125.1,-10 -250.3,-20.2 -375.9,-16.9 -502.7,2.4 -1001,125.6 -1447.4,338.5 -223.9,106 -435.9,233.2 -634.9,377.2 -100,71.4 -195.7,148.4 -288.2,229.5 -46.6,40.2 -91.9,81.9 -136.1,125.5 -45.4,44.4 -85.8,85.5 -133.6,139.1 l 186.6,-62.2 h -0.1 c -128,-11.7 -255.2,-20.9 -382,-20.4 -126.7,-1.4 -252.7,4.3 -377.6,14.8 -125,10 -248.9,26.2 -371.7,47.3 -123.4,21.4 -243,46.5 -366.5,81.8 -40.7,11.7 -64.2,54.1 -52.6,94.8 10.4,36.4 45.4,59.1 81.8,55.2 l 3.6,-0.4" style="fill: rgb(55, 26, 69); fill-opacity: 1; fill-rule: nonzero; opacity: 1;" id="path110" data-index="49"></path>       <path d="m 26128.4,8842.7 c -59.8,0 -119.3,25.5 -160.6,75.1 l -707.7,848 c -74,88.7 -62.1,220.5 26.5,294.5 88.7,73.9 220.5,62.1 294.5,-26.6 l 707.7,-848 c 74,-88.7 62,-220.5 -26.6,-294.5 -39.1,-32.6 -86.6,-48.5 -133.8,-48.5" style="fill:#371a45;fill-opacity:1;fill-rule:nonzero;stroke:none" id="path112" data-index="50"></path>       <path d="m 22524.4,8976.9 c 88,1.4 181.8,5.5 273.2,10.5 91.9,5 183.9,11.4 275.8,19.1 184,15.1 367.4,36.1 550,63.7 l 0.9,0.2 c 54.9,8.3 106.2,-29.5 114.5,-84.4 7.3,-48.4 -21.1,-93.9 -65.5,-109.8 -179.2,-64.2 -360.8,-122 -544,-173.8 -91.7,-26.1 -183.6,-50.9 -276.1,-74.4 -93.2,-23.5 -184.1,-45.7 -281.4,-66.5 -113.5,-24.2 -225.1,48 -249.4,161.4 -24.3,113.5 48,225.1 161.5,249.4 13.2,2.8 27.5,4.3 40.5,4.6" style="fill:#371a45;fill-opacity:1;fill-rule:nonzero;stroke:none" id="path114" data-index="51"></path>       <path d="m 20646.5,8854.8 c -373.2,0 -636.1,39.8 -666.2,44.6 -114,18.1 -191.8,125.3 -173.6,239.3 18.1,113.9 125.3,191.6 239,173.6 19.2,-2.9 1921.2,-288 2775,774.8 36.3,45.1 89.7,73.2 147.5,77.5 87.9,6.8 2166,192.5 2601.5,2295.6 23.5,113 133.8,185.9 247.1,162.3 113,-23.5 185.7,-134.1 162.3,-247.1 C 25717.4,11112 24920,10463.8 24297,10142.6 c -525.3,-270.9 -1010.8,-358.7 -1207,-384.8 -667.4,-764.3 -1747.3,-903 -2443.5,-903" style="fill:#371a45;fill-opacity:1;fill-rule:nonzero;stroke:none" id="path116" data-index="52"></path>       <path d="m 21163.4,13012.9 c -187,-203.7 -425.3,-437.1 -578.1,-584.1 -45.9,-44.4 -97.7,-81 -154.3,-109.3 -64.5,-33.2 -134.8,-55.2 -208,-65 -730.1,-96.2 -3200.4,-420.4 -4460.2,-584.5 -340.9,-44.4 -670,93.3 -879.5,346.7 -70.8,86 -128.4,185.6 -167.5,295.9 l -557.1,1573.8 c -120.1,338.4 -44.9,714.9 195.8,981.1 l 729.5,808.1 c 155.3,171.9 366.8,283.2 596.3,314 l 3967,526.9 c 159.6,21.4 317.3,2.4 460.9,-49.4 267.1,-96.6 487.3,-308.6 587.9,-590.8 l 668.5,-1874.1 c 121.6,-341.4 44,-722.2 -201.2,-989.3" style="fill:#ffffff;fill-opacity:1;fill-rule:nonzero;stroke:none" id="path118" data-index="53"></path>       <path d="m 15637.7,11870.9 c -160,0.1 -313.6,50.7 -440.9,139.7 3332.1,2.9 3869.6,2236.6 3956.3,2969.4 210,-130.3 373.1,-335.3 447.6,-587.8 l 332.9,-1126.5 c 85.9,-312.4 78.5,-555.9 -21.7,-704.4 -52.6,-77.9 -135.2,-134.6 -247.5,-169.4 -1041,-136.8 -2895,-380 -3918.1,-513.2 -3.6,-0.5 -7,-0.9 -10.5,-1.4 v 0 c -32.9,-4.3 -65.6,-6.4 -98.1,-6.4 m 4715,643.6 c 83.3,232.6 77.8,522.2 -16.7,864.3 -0.3,1.1 -0.6,2.3 -1,3.5 l -333.3,1128.4 c -113.7,384.8 -373.6,691 -705.5,869.6 157.9,212.5 436.4,587.1 678.2,909 237.6,-64.3 438.6,-241.4 524.9,-483.2 l 668.4,-1874.1 c 95.8,-269 35.2,-567 -158.3,-777.8 -178.5,-194.4 -408,-419.8 -569.5,-575.1 -25.7,-25 -54.5,-46.4 -87.2,-64.6" style="fill:#d7d1da;fill-opacity:1;fill-rule:nonzero;stroke:none" id="path120" data-index="54"></path>       <path d="m 21163.4,13012.8 h 0.5 -0.5 m -1388.2,3303.1 c -33.2,0 -66.6,-2.1 -100.2,-6.6 l -3967.2,-527 c -180.1,-24.1 -346.7,-111.8 -468.6,-246.8 l -729.5,-808.1 c -189.5,-209.5 -248.5,-504.9 -154,-771 l 557.2,-1574 c 120.1,-339.1 465.8,-551.6 822.9,-505.1 1233.6,160.6 3697.1,483.9 4459.8,584.5 49.3,6.5 96.3,21.2 139.5,43.4 40.1,20.1 74.5,44.5 104.8,73.9 161.5,155.3 391,380.7 569.5,575.1 193.5,210.8 254.1,508.8 158.3,777.8 l -668.4,1874.1 c -109.6,307.2 -404.4,509.8 -724.1,509.8 m -4136.7,-4863 c -494.9,0 -951.1,314.3 -1119.6,789.9 l -557.2,1573.9 c -146,411 -54.9,867.4 237.8,1191 l 729.4,808 c 188.3,208.4 445.3,343.7 723.6,381 l 3967.2,527 c 551.1,73.1 1086.6,-253.3 1273.3,-777.2 l 668.5,-1874.1 c 148,-415.5 54.5,-875.6 -244.1,-1200.9 v -0.1 c -185.8,-202.3 -421.9,-434.2 -587.2,-593.2 -60.5,-58.6 -129.9,-107.7 -205.8,-145.7 -83.7,-43.2 -176.7,-72.2 -274,-85.2 -762.9,-100.6 -3226.8,-423.8 -4460.6,-584.5 -50.6,-6.6 -101.1,-9.9 -151.3,-9.9" style="fill:#371a45;fill-opacity:1;fill-rule:nonzero;stroke:none" id="path122" data-index="55"></path>       <path d="m 14462.1,14669.3 c -151.2,-203.8 -192.5,-470.5 -106.4,-712.9 l 557.2,-1574 c 120.1,-339.1 465.8,-551.6 822.9,-505.1 1245.8,162.3 3741.2,478.5 3766.2,481.7 197.5,22.7 334.6,90.7 409.9,202.3 100.2,148.5 107.6,392 21.7,704.4 l -332.9,1126.5 c -143,484.2 -611.2,793.7 -1112.3,736.8 l -4026.3,-459.7 m 1176.5,-3216.4 c -495,0 -951.2,314.3 -1119.7,789.9 l -557.2,1573.9 c -146,411 -54.9,867.4 237.8,1191 34.1,37.7 80.8,61.6 131.3,67.4 l 4110.1,469.2 c 703.7,80.1 1360.1,-354.3 1560.8,-1033.6 l 333.3,-1128.4 c 0.4,-1.2 0.7,-2.4 1,-3.5 121.8,-440.8 95.7,-794.5 -77.5,-1051.3 -100.9,-149.5 -305.3,-337.5 -706.3,-383.6 -22.7,-2.9 -2517.4,-319 -3762.4,-481.1 -50.6,-6.6 -101.1,-9.9 -151.2,-9.9" style="fill:#371a45;fill-opacity:1;fill-rule:nonzero;stroke:none" id="path124" data-index="56"></path>       <path d="m 20266.5,16305.9 -766.8,-827 c -34.6,-37.4 -93.1,-39.6 -130.5,-5 -32.5,30.3 -38.4,78.5 -16.4,115.2 l 579.3,967.7 c 59.6,99.5 188.7,131.9 288.3,72.3 99.6,-59.6 131.9,-188.7 72.3,-288.2 -7.4,-12.5 -16.7,-24.7 -26.2,-35" style="fill:#371a45;fill-opacity:1;fill-rule:nonzero;stroke:none" id="path126" data-index="57"></path>       <path d="m 14231.9,14866.3 c -20.9,69.4 -36,130.4 -51.5,195.1 -15.1,63.9 -28.8,127.7 -41.6,191.6 -25.6,127.7 -45.8,256.1 -62,384.6 -16.5,128.5 -27.4,257.6 -33.1,386.6 -7.2,128.7 -4.4,258.1 0.5,386.2 1.3,32.2 28.4,57.4 60.6,56.1 28.3,-1.1 51.1,-22.1 55.5,-49 l 0.3,-2 c 19.9,-122.8 41.7,-244.4 73,-364.2 29.8,-119.9 64.3,-238.3 103.9,-354.9 39.3,-116.6 82.1,-231.8 129.4,-344.7 23.7,-56.4 48,-112.4 73.5,-167.5 25.1,-54.2 52.5,-111.6 78.1,-158.9 55.3,-102.1 17.3,-229.7 -84.7,-284.9 -102.1,-55.3 -229.7,-17.4 -285,84.7 -6.7,12.5 -12.1,25.3 -16.1,38.3 l -0.8,2.9" style="fill:#371a45;fill-opacity:1;fill-rule:nonzero;stroke:none" id="path128" data-index="58"></path>       <path d="m 22100.2,14834.8 c -103.8,0 -193.7,77.2 -207.1,182.8 -122.9,971.2 61.9,1760.2 549.1,2345 744.5,893.6 1916.4,968.7 1966,971.4 115.6,7.1 213.9,-81.7 220.3,-197 6.4,-115.2 -81.7,-213.7 -196.8,-220.3 -14.4,-0.9 -1046.4,-72.3 -1670.8,-824.7 -408.1,-491.9 -560.5,-1172.1 -453.1,-2021.9 14.5,-114.5 -66.6,-219.1 -181.1,-233.6 -8.9,-1.1 -17.8,-1.7 -26.5,-1.7" style="fill:#371a45;fill-opacity:1;fill-rule:nonzero;stroke:none" id="path130" data-index="59"></path>       <path d="m 22733.3,14567.6 c -9.2,-7.3 -19,-14.6 -28.8,-21.9 -542,-403.9 -1188.5,-485.9 -1625,-485.9 -285.2,0 -481,34.7 -500.6,38.6 -211.9,39.5 -352,243.6 -312.5,455.5 39.6,212 242.7,351.1 454.6,312.6 12.7,-2.5 769.6,-130.9 1370.7,210.9 207.5,-165 423.9,-336.9 641.6,-509.8" style="fill:#ffffff;fill-opacity:1;fill-rule:nonzero;stroke:none" id="path132" data-index="60"></path>       <path d="m 20650,14664.1 c -84.8,0 -161.8,-61.3 -178.1,-148.5 -8.9,-47.5 1.4,-95.8 28.8,-135.8 27.5,-40.1 68.9,-67.1 116.6,-76 4.2,-0.8 187.1,-35 462.2,-35 357.6,0 852.7,58 1299.5,313.3 -105.2,83.5 -209.5,166.3 -311.9,247.8 -645.1,-298.5 -1377.8,-170.2 -1385.5,-168.7 -10.6,1.9 -21.1,2.9 -31.6,2.9 z m 429.5,-813.4 c -324.6,0 -539.4,42.3 -541.6,42.7 -154.6,28.8 -291.3,117.7 -381.9,249.9 -90.7,132.1 -124.4,291.6 -95.1,449 60.4,323.6 373.5,538.5 697.6,479.8 6.5,-1.1 696.5,-116.4 1229.9,187 74.2,42.2 166.6,35.1 233.4,-18.1 207.5,-165 423.8,-336.8 641.5,-509.6 50,-39.7 79.2,-100.1 79.1,-164.1 -0.1,-63.8 -29.4,-124.1 -79.5,-163.7 -10.6,-8.4 -21.8,-16.8 -32.9,-25.2 -585.5,-436.2 -1275.1,-527.7 -1750.5,-527.7" style="fill:#371a45;fill-opacity:1;fill-rule:nonzero;stroke:none" id="path134" data-index="61"></path>       <path d="m 16740.1,13490.1 c 49.1,-352.6 -142.8,-670.1 -429,-709.9 l -483.4,-67.3 -177.6,1275.5 483.4,67.3 c 286.1,39.9 557.6,-213.5 606.6,-565.6" style="fill:#22a7f0;fill-opacity:1;fill-rule:nonzero;stroke:none" id="path136" data-index="62"></path>       <path d="m 16064.1,13830.7 c -26.7,27.6 -55.3,52.1 -85.5,73.2 l 172.7,24 c 13.7,1.9 27.5,2.8 41.3,2.8 71.2,0 142.7,-25.3 207.2,-73.4 -23.7,3.9 -47.8,6 -72.1,6 -19.7,0 -39.6,-1.3 -59.5,-4.1 l -204.1,-28.5" style="fill:#bce4fa;fill-opacity:1;fill-rule:nonzero;stroke:none" id="path138" data-index="63"></path>       <path d="m 16740.4,13490 c 49.1,-352.5 -143.2,-669.8 -429.2,-709.7 l -483.6,-67.3 -177.6,1275.6 260.2,36.2 87.1,-625.6 483.1,67.3 c 91.8,12.8 174.2,54.5 241.6,116.5 7.7,-30.1 13.9,-60.9 18.4,-93" style="fill:#1c7aea;fill-opacity:1;fill-rule:nonzero;stroke:none" id="path140" data-index="64"></path>       <path d="m 15795.7,13878.4 142.1,-1019.9 355.6,49.5 c 215,29.9 358.1,283.1 318.9,564.3 -19.6,141.1 -81.6,266.5 -174.6,353.2 -85.5,79.8 -187.6,116.2 -286.4,102.4 l -355.6,-49.5 m 31.9,-1294.6 c -63.4,0 -118.7,46.7 -127.7,111.3 l -177.6,1275.5 c -4.7,34 4.2,68.3 24.8,95.6 20.7,27.4 51.3,45.3 85.2,50.1 l 483.4,67.3 c 177.7,24.6 354.5,-35.4 498.1,-169.3 136.1,-127 226.4,-306.8 254.2,-506.4 58.7,-422.2 -183.1,-806 -539,-855.5 l -483.5,-67.3 c -6,-0.9 -12,-1.3 -17.9,-1.3" style="fill:#371a45;fill-opacity:1;fill-rule:nonzero;stroke:none" id="path142" data-index="65"></path>       <path d="m 16256.3,13422.6 c 49.1,-352.3 -142.8,-670.1 -428.5,-709.9 -285.8,-39.8 -557.2,213.5 -606.2,565.8 -49.1,352.2 142.8,670 428.5,709.8 285.8,39.8 557.1,-213.5 606.2,-565.7" style="fill:#22a7f0;fill-opacity:1;fill-rule:nonzero;stroke:none" id="path144" data-index="66"></path>       <path d="m 16254.5,13435 c -19.4,125 -66.8,237 -132.8,327.3 66,-90.3 113.4,-202.3 132.8,-327.3 v 0" style="fill:#bce4fa;fill-opacity:1;fill-rule:nonzero;stroke:none" id="path146" data-index="67"></path>       <path d="m 16261.5,13375.4 c -1.3,15.7 -3,31.4 -5.2,47.2 -0.6,4.2 -1.2,8.3 -1.8,12.4 v 0 c 0.7,-4.1 1.3,-8.2 1.8,-12.4 2.2,-15.7 3.9,-31.5 5.2,-47.2" style="fill:#bad7f9;fill-opacity:1;fill-rule:nonzero;stroke:none" id="path148" data-index="68"></path>       <path d="m 15245.7,13166.8 c -10.4,36.1 -18.6,73.5 -23.9,111.7 -49,352.1 142.7,669.8 428.3,709.6 19.8,2.8 39.7,4.1 59.3,4.1 158.9,0 308.5,-88.1 412.3,-229.9 66,-90.3 113.4,-202.3 132.8,-327.3 0.6,-4.1 1.2,-8.2 1.8,-12.4 2.2,-15.8 3.9,-31.5 5.2,-47.2 1.7,-22.4 2.5,-44.7 2.4,-66.8 -77.9,269.2 -290.5,457.9 -523,457.9 -19.7,0 -39.5,-1.4 -59.4,-4.1 -254.5,-35.5 -434.3,-291.6 -435.8,-595.6" style="fill:#bce4fa;fill-opacity:1;fill-rule:nonzero;stroke:none" id="path150" data-index="69"></path>       <path d="m 16256.3,13422.6 c 49.1,-352.5 -142.6,-670.3 -428.6,-710.1 -285.6,-39.7 -556.8,213.6 -605.9,566 -3,21.6 -5,42.7 -5.9,63.6 113.5,-195.3 307.8,-313.1 509.2,-285 268.8,37.4 454.2,320.2 434.6,646.1 48.4,-81.5 82.2,-176.8 96.6,-280.6" style="fill:#1c7aea;fill-opacity:1;fill-rule:nonzero;stroke:none" id="path152" data-index="70"></path>       <path d="m 15709.8,13863.4 c -13.9,0 -27.9,-0.9 -41.9,-2.9 -98.9,-13.8 -186.6,-76.5 -247.1,-176.6 -65.7,-108.8 -91.1,-246.5 -71.4,-387.6 39.1,-281.2 245.3,-485.7 460.6,-455.8 214.7,29.9 357.6,283 318.5,564.3 -36.6,262.8 -219.6,458.6 -418.7,458.6 z m 59.4,-1283.8 c -326.5,0 -620.9,289.3 -675.4,681.1 -27.8,199.6 9.8,397.2 106,556.6 101.5,168 255,274.2 432.5,298.9 355.9,49.5 693,-253.6 751.8,-675.8 v -0.1 c 58.8,-422.1 -182.8,-805.9 -538.5,-855.4 -25.6,-3.6 -51.1,-5.3 -76.4,-5.3" style="fill:#371a45;fill-opacity:1;fill-rule:nonzero;stroke:none" id="path154" data-index="71"></path>       <path d="m 18942.8,11883.6 c -92,0 -176.2,61.1 -201.6,154.1 l -317.3,1165.4 c -15.7,57.7 -58.5,104.9 -114.4,126.3 l -315,120 c -178.7,68.1 -316.1,218.7 -367.7,402.9 l -367.6,1313.4 c -31.2,111.2 33.7,226.5 144.9,257.6 111.3,31 226.5,-33.7 257.6,-144.9 l 367.7,-1313.4 c 16,-57.1 58.6,-103.8 114,-125 l 315.1,-120 c 180.3,-68.8 318.1,-221 368.8,-407 l 317.3,-1165.4 c 30.4,-111.5 -35.4,-226.3 -146.7,-256.6 -18.4,-5.1 -36.9,-7.4 -55.1,-7.4" style="fill:#371a45;fill-opacity:1;fill-rule:nonzero;stroke:none" id="path156" data-index="72"></path>       <path d="m 23679.7,24817.6 c 0,-4174.5 -3541.7,-7558.4 -7910.6,-7558.4 -3670.1,0 -6756.66,2388.3 -7649.78,5627.2 -170.42,616.2 -260.74,1263.7 -260.74,1931.2 0,3325.4 2246.72,6148.8 5368.92,7160.6 h 0.5 c 797.4,258.3 1651.9,398.4 2541.1,398.4 4368.9,0 7910.6,-3383.9 7910.6,-7559" style="fill:#ffffff;fill-opacity:1;fill-rule:nonzero;stroke:none" id="path158" data-index="73"></path>       <path d="m 13284.9,31777 c -3121.1,-1014.4 -5217.31,-3810.3 -5217.31,-6959.3 0,-636.9 85.21,-1267.9 253.22,-1875.6 888.72,-3223 3951.59,-5473.9 7448.29,-5473.9 4246.7,0 7701.6,3297 7701.6,7349.5 0,4052.7 -3454.9,7349.9 -7701.6,7349.9 -848,0 -1681.3,-130.6 -2476.7,-388.3 -2.5,-0.8 -5,-1.5 -7.5,-2.3 m 2484.2,-14726.8 c -3684.2,0 -6912.74,2377.1 -7851.27,5780.6 -178.02,643.8 -268.3,1312.3 -268.3,1986.9 0,3333.2 2215.71,6290.7 5513.47,7359.3 2.6,0.9 5.2,1.6 7.8,2.4 834.9,269.6 1709,406.3 2598.3,406.3 4477.2,0 8119.6,-3484.7 8119.6,-7768 0,-4283.1 -3642.4,-7767.5 -8119.6,-7767.5" style="fill:#371a45;fill-opacity:1;fill-rule:nonzero;stroke:none" id="path160" data-index="74"></path>       <path d="m 23100.1,21973.3 c 0,0 -2523.1,-4037.8 -8120.6,-3802.5 -4058.8,170.9 -6662.9,2410.3 -6938.3,3962.6 -49.31,276.9 -24.42,531.8 79.59,749.1 L 13228,31978.2 c 0,0 807.6,230.9 1967.9,234.4 1341.8,4.3 3154.9,-295.9 4732.6,-1611 4143.8,-3452.8 3171.6,-8628.3 3171.6,-8628.3" style="fill:#ffffff;fill-opacity:1;fill-rule:nonzero;stroke:none" id="path162" data-index="75"></path>       <path d="m 23099.9,21973.3 h 0.4 -0.4 m 0,0 h 0.4 -0.4 m -14795.21,809.8 c -192.09,-370.8 -113.57,-912.3 215.59,-1486.3 419.23,-731.1 1189.93,-1418.9 2170.12,-1936.8 1204.3,-636.3 2650.7,-999 4299.1,-1078.1 3116.4,-149.1 5103.2,885 6220.6,1779 1111.2,889.2 1609.9,1820.7 1688.8,1977.4 31.5,191.5 208,1396.5 -39.7,2936.6 -246.8,1534.3 -978.8,3728.2 -3064.5,5466.3 -1469.3,1224.4 -3155.7,1523.4 -4311.6,1558.6 -1047.9,31.7 -1864.3,-140.7 -2116.6,-201.8 L 8304.69,22783.1 m 7283.71,-4933.7 c -201.5,0 -407.6,4.9 -618.9,15 -3762.5,180.4 -5985.8,1783.9 -6811.88,3224.4 -402.34,701.6 -483.24,1390.6 -222.07,1890.5 0.98,1.9 1.96,3.7 2.99,5.5 l 5107.16,9095.7 c 27,48 71.8,83.5 124.8,98.7 39.7,11.3 985.8,277 2310.7,238.9 1225.8,-35.3 3015.7,-351.3 4581.2,-1655.8 2190.2,-1825.2 2955.6,-4127.1 3212.1,-5736.8 277.4,-1741.2 41,-3036.5 30.8,-3090.8 -3.2,-16.9 -8.4,-33.3 -15.6,-48.9 -20.6,-44.7 -519.5,-1105.5 -1800,-2136.5 -1099.1,-884.8 -2994.1,-1899.9 -5901.3,-1899.9" style="fill:#371a45;fill-opacity:1;fill-rule:nonzero;stroke:none" id="path164" data-index="76"></path>       <path d="m 21937.5,22282.7 c 0,0 -1331.3,-3796.6 -6550.2,-3348 -4908.5,421.7 -6520.67,2315.2 -7034.92,3318.9 l -0.53,0.6 c -193.12,377.1 -231.32,628.3 -231.32,628.3 l -1.07,3.7 c -170.52,616.5 -260.88,1264.1 -260.88,1931.7 0,3324.9 2246.92,6148.4 5369.02,7160.3 h 0.5 c 0,0 4164,484.1 6873.5,-2679.4 1.1,-1.1 2.2,-2.7 3.2,-3.8 2805.3,-3279.1 1832.7,-7012.3 1832.7,-7012.3" style="fill:#371a45;fill-opacity:1;fill-rule:nonzero;stroke:none" id="path166" data-index="77"></path>       <path d="m 16224.9,18897.8 c -267.7,0 -546.1,11.8 -837.6,36.9 -4908.5,421.7 -6520.67,2315.2 -7034.92,3318.9 241.19,-244.3 1471.39,-1361.3 3799.62,-1361.3 1223.6,0 2750.2,308.4 4596.2,1214 357.6,175.4 681.2,365 973.7,566.5 82.3,-177.7 295.7,-328.4 565.2,-377.3 59.8,-10.8 118.7,-16 175.8,-16 302.7,0 552.7,145.9 592.6,366.1 47.4,261.6 -219.7,529.1 -596.6,597.4 -6,1.1 -12.1,2.2 -18.2,3.2 232.1,214.8 437.1,438.8 617.8,669.7 120.4,-60 243.8,-92.1 361.1,-92.1 100.7,0 197,23.7 283.4,73.5 362.8,209.5 412.5,802.7 111.1,1325.3 568.8,1401.6 509.5,2893 290.7,4072.4 1241.7,-1451.4 1743.3,-2992 1916.6,-4258.2 -560.5,-333.4 -1043.4,-973.2 -1274.3,-1782.1 -5.6,-19.5 -11,-39 -16.2,-58.5 -0.1,0.1 -0.1,0.2 -0.1,0.3 -115.5,-431.3 -145.2,-858.2 -100.4,-1249 v 0 c 0.1,-0.9 0.2,-2 0.3,-2.9 48.7,-421.9 184,-801.5 391.7,-1098.8 -826.6,-922.2 -2306.4,-1948 -4797.5,-1948" style="fill:#261230;fill-opacity:1;fill-rule:nonzero;stroke:none" id="path168" data-index="78"></path>       <path d="m 19058.5,23915.9 c -210.8,104.9 -412.9,295.2 -559.3,548.7 -301.9,522.9 -252.4,1116.6 110.6,1326.2 86.4,49.8 182.7,73.5 283.4,73.5 322.6,0 690.4,-242.3 920.4,-640.8 0.2,-0.3 0.4,-0.6 0.5,-0.9 -182.2,-449.2 -429,-889.2 -755.6,-1306.7" style="fill:#9b8da2;fill-opacity:1;fill-rule:nonzero;stroke:none" id="path170" data-index="79"></path>       <path d="m 19419.6,23823.8 c -117.3,0 -240.7,32.1 -361.1,92.1 326.6,417.5 573.4,857.5 755.6,1306.7 301.4,-522.6 251.7,-1115.8 -111.1,-1325.3 -86.4,-49.8 -182.7,-73.5 -283.4,-73.5" style="fill:#938998;fill-opacity:1;fill-rule:nonzero;stroke:none" id="path172" data-index="80"></path>       <path d="m 17721.9,22672.8 c -32.8,70.7 -44.8,145.7 -31.3,220.2 39.9,220.2 289.8,366.1 592.6,366.1 51.3,0 104,-4.2 157.5,-12.9 -215.6,-199.6 -454.5,-391.4 -718.8,-573.4" style="fill:#9b8da2;fill-opacity:1;fill-rule:nonzero;stroke:none" id="path174" data-index="81"></path>       <path d="m 18462.9,22279.5 c -57.1,0 -116,5.2 -175.8,16 -269.5,48.9 -482.9,199.6 -565.2,377.3 264.3,182 503.2,373.8 718.8,573.4 6.1,-1 12.2,-2.1 18.2,-3.2 376.9,-68.3 644,-335.8 596.6,-597.4 -39.9,-220.2 -289.9,-366.1 -592.6,-366.1" style="fill:#938998;fill-opacity:1;fill-rule:nonzero;stroke:none" id="path176" data-index="82"></path>       <path d="m 24349.1,22226.1 c -393.8,-1378.8 -1519.3,-2266.4 -2514,-1982.3 -994.6,284 -1481.8,1632.1 -1088,3010.9 393.7,1378.9 1519.3,2266.4 2513.9,1982.4 994.7,-284.1 1481.8,-1632.1 1088.1,-3011" style="fill:#ffffff;fill-opacity:1;fill-rule:nonzero;stroke:none" id="path178" data-index="83"></path>       <path d="m 24385.1,22361.8 v 0 c 71.6,293.2 103.8,583.3 100.2,860.5 3.7,-277.2 -28.6,-567.4 -100.2,-860.5" style="fill:#956dda;fill-opacity:1;fill-rule:nonzero;stroke:none" id="path180" data-index="84"></path>       <path d="m 23071.8,20442.1 -0.2,0.1 c 494.2,292.8 928.4,823.8 1183.3,1499 v -0.1 c -254.8,-675.2 -688.8,-1206.2 -1183.1,-1499" style="fill:#d7d1da;fill-opacity:1;fill-rule:nonzero;stroke:none" id="path182" data-index="85"></path>       <path d="m 22288.7,20192.6 0.1,0.2 c 266,13.7 532.2,100.9 782.8,249.4 l 0.2,-0.1 c -250.7,-148.6 -517,-235.9 -783.1,-249.5" style="fill:#b7acbc;fill-opacity:1;fill-rule:nonzero;stroke:none" id="path184" data-index="86"></path>       <path d="m 24254.9,21941.1 v 0.1 c 34.8,92.4 66.3,187.4 94.2,284.9 12.9,45.3 24.9,90.6 36,135.7 v 0 c -11.1,-45.1 -23,-90.3 -35.9,-135.6 -27.9,-97.5 -59.4,-192.7 -94.3,-285.1" style="fill:#371a45;fill-opacity:1;fill-rule:nonzero;stroke:none" id="path186" data-index="87"></path>       <path d="m 22215.4,20190.7 c -69.2,0 -138.3,5.1 -207,15.4 v 0.1 c 68.6,-10.3 137.6,-15.3 206.7,-15.3 24.6,0 49.1,0.6 73.7,1.9 l -0.1,-0.2 c -24.5,-1.2 -48.9,-1.9 -73.3,-1.9" style="fill:#371a45;fill-opacity:1;fill-rule:nonzero;stroke:none" id="path188" data-index="88"></path>       <path d="m 22008.4,20206.1 c -58,8.7 -115.7,21.2 -173,37.6 -20.5,5.8 -40.7,12.1 -60.7,18.9 19.9,-6.7 40.1,-13 60.4,-18.8 57.5,-16.4 115.2,-28.9 173.3,-37.6 v -0.1 m -234.3,56.6 c -0.5,0.2 -1,0.4 -1.6,0.6 0.5,-0.2 1.2,-0.4 1.6,-0.6" style="fill:#371a45;fill-opacity:1;fill-rule:nonzero;stroke:none" id="path190" data-index="89"></path>       <path d="m 20630.7,21944.6 c -0.1,0.9 -0.2,2 -0.3,2.9 0.1,-1 0.2,-1.9 0.3,-2.9 m -0.3,2.9 c -44.8,390.8 -15.1,817.7 100.4,1249 0,-0.1 0,-0.2 0.1,-0.3 -115.5,-431.2 -145.2,-858 -100.5,-1248.7" style="fill:#291434;fill-opacity:1;fill-rule:nonzero;stroke:none" id="path192" data-index="90"></path>       <path d="m 24485.3,23224 c 0,0.3 0,0.6 0,0.9 0,-0.3 0,-0.6 0,-0.9" style="fill:#956dda;fill-opacity:1;fill-rule:nonzero;stroke:none" id="path194" data-index="91"></path>       <path d="m 22215.1,20190.9 c -69.1,0 -138.1,5 -206.7,15.3 -58.1,8.7 -115.8,21.2 -173.3,37.6 -20.3,5.8 -40.5,12.1 -60.4,18.8 -0.2,0 -0.3,0.1 -0.6,0.1 -0.4,0.2 -1.1,0.4 -1.6,0.6 -633,214.2 -1048,869.5 -1141.8,1681.3 -0.1,1 -0.2,1.9 -0.3,2.9 0,0.1 0,-0.1 0,0 -44.7,390.7 -15,817.5 100.5,1248.7 183.6,-604.8 571.3,-1063.3 1104.5,-1215.6 125,-35.7 252.2,-52.8 379.6,-52.8 886.5,0 1790,829.6 2134.2,2035.3 5.3,19.6 11.2,39.1 16.1,58.6 74.8,-245 116,-514.1 120,-796.8 0,-0.3 0,-0.6 0,-0.9 0,-0.6 0,-1.1 0,-1.7 3.6,-277.2 -28.6,-567.3 -100.2,-860.5 -11.1,-45.1 -23.1,-90.4 -36,-135.7 -27.9,-97.5 -59.4,-192.5 -94.2,-284.9 -254.9,-675.2 -689.1,-1206.2 -1183.3,-1499 -250.6,-148.5 -516.8,-235.7 -782.8,-249.4 -24.6,-1.3 -49.1,-1.9 -73.7,-1.9" style="fill:#d7d1da;fill-opacity:1;fill-rule:nonzero;stroke:none" id="path196" data-index="92"></path>       <path d="m 22878.2,25081.4 c -792.8,0 -1612.5,-771.8 -1930.1,-1884.1 -178.5,-625 -171.8,-1259.8 19,-1787.6 182,-503.8 510.7,-846.5 925.4,-964.9 414.8,-118.4 874.8,-1 1295.5,330.7 440.7,347.5 781.6,883 960.1,1508 361.5,1265.8 -62.2,2500.6 -944.4,2752.6 -107.1,30.5 -216.1,45.3 -325.5,45.3 z m -660.1,-5100.2 c -148.6,0 -296,20.4 -440.3,61.6 -547.4,156.3 -975,591.3 -1203.9,1224.9 -220.3,609.6 -230.2,1335.7 -27.8,2044.4 424.8,1487.5 1668.6,2441.1 2772.3,2126 1103.9,-315.3 1656.5,-1781.9 1231.7,-3269.4 -202.4,-708.7 -594.2,-1320.1 -1103.2,-1721.5 -389.5,-307.1 -813.7,-466 -1228.8,-466" style="fill:#371a45;fill-opacity:1;fill-rule:nonzero;stroke:none" id="path198" data-index="93"></path>       <path d="m 23274.1,24445.1 c -585.8,0 -1206.8,-616.3 -1457.9,-1495.7 -283.1,-991.3 9.6,-1947.2 652.5,-2130.8 72.7,-20.7 146.8,-30.8 221.4,-30.8 585.9,0 1206.9,616.4 1458,1495.7 283.1,991.4 -9.7,1947.2 -652.6,2130.8 -72.6,20.8 -146.7,30.8 -221.4,30.8 z m -594.4,-4073.8 c -109.5,0 -218.5,14.7 -325.7,45.3 -864.6,246.9 -1286.2,1434.6 -939.8,2647.6 346.4,1213.1 1331.7,1999 2196.1,1752.1 864.6,-246.9 1286.1,-1434.6 939.8,-2647.6 -303.5,-1062.5 -1097.1,-1797.4 -1870.4,-1797.4" style="fill:#371a45;fill-opacity:1;fill-rule:nonzero;stroke:none" id="path200" data-index="94"></path>       <path d="m 8865.41,24817.9 c 0,0 411.81,4729.4 4519.99,6037.5 505.9,161.1 989.8,229.1 1445.8,229.1 2457.8,0 4111.7,-1973.3 4111.7,-1973.3 0,0 -1144,336.1 -2701.1,336.1 -2355,0 -5655.6,-768.2 -7376.39,-4629.4" style="fill:#9b8da2;fill-opacity:1;fill-rule:nonzero;stroke:none" id="path202" data-index="95"></path>       <path d="m 18258,11086.5 h -0.9 v 0.5 l 0.9,-0.5" style="fill:#aea7c1;fill-opacity:1;fill-rule:nonzero;stroke:none" id="path204" data-index="96"></path>     </g>   </g> </svg>