<svg xmlns:inkscape="http://www.inkscape.org/namespaces/inkscape" xmlns:sodipodi="http://sodipodi.sourceforge.net/DTD/sodipodi-0.dtd" xmlns="http://www.w3.org/2000/svg" xmlns:svg="http://www.w3.org/2000/svg" version="1.1" id="svg2" sodipodi:docname="d8793658-b6dd-4155-9760-9ef16f08b8ab.eps" viewBox="557.17 1347.57 4348.49 2740.77">
  <defs id="defs6"/>
  <sodipodi:namedview id="namedview4" pagecolor="#ffffff" bordercolor="#000000" borderopacity="0.25" inkscape:showpageshadow="2" inkscape:pageopacity="0.0" inkscape:pagecheckerboard="0" inkscape:deskcolor="#d1d1d1"/>
  <g id="g8" inkscape:groupmode="layer" inkscape:label="ink_ext_XXXXXX" transform="matrix(1.3333333,0,0,-1.3333333,0,5333.3333)">
    <g id="g10" transform="scale(0.1)">
      
      <path d="m 9447.39,10747.5 c 37.22,-18.7 1167.81,-1233.1 2428.61,-688.6 1182.3,510.6 902.6,2696.1 372.2,3508 C 10440.6,13246 9279.85,12467 9447.39,10747.5" style="fill:#ffffff;fill-opacity:1;fill-rule:nonzero;stroke:none" id="path14" data-index="1"/>
      <path d="m 11876,10058.9 c 398.1,171.9 630.2,533.9 743.1,969.2 -337,569.5 -645.6,-106.1 -1450.3,-280.6 -640.3,-138.9 -1388.36,324.3 -1725.88,567.6 -15.9,-176.9 -15.22,-365.6 4.47,-567.6 37.22,-18.7 1167.81,-1233.1 2428.61,-688.6" style="fill:#d0dae2;fill-opacity:1;fill-rule:nonzero;stroke:none" id="path16" data-index="2"/>
      <path d="m 9367.22,10588.1 h 0.04 z m 0.19,-0.1 0.25,-0.1 z m 1832.29,-848.4 c -604.2,0 -1236.68,287.4 -1839.13,846.5 -8.54,7.9 -15.18,14.2 -20.01,18.5 -67.92,50.7 -91.9,144.2 -52.69,222.6 44.09,88.1 151.22,123.8 239.26,79.8 26.12,-13.1 40.77,-26.6 76.07,-59.4 432.9,-401.8 1294.5,-1016.8 2202.1,-625 295.3,127.5 504,388.4 620.5,775.4 239.2,795.4 19.7,1940.8 -326.9,2471.3 -53.9,82.5 -30.7,193.1 51.8,246.9 82.5,53.9 192.9,30.7 246.8,-51.7 397.8,-608.9 641.2,-1866.9 369.8,-2769.2 -146.1,-485.6 -429.8,-831.4 -820.6,-1000.1 -240.9,-104.1 -491.4,-155.5 -747,-155.6" style="fill:#371a45;fill-opacity:1;fill-rule:nonzero;stroke:none" id="path18" data-index="3"/>
      <path d="m 12233.2,10263 c -1155.8,0 -1553.6,1550 -1570.4,1617.9 -19,76.5 27.7,153.9 104.1,172.8 76.8,19.2 153.8,-27.6 172.8,-104 3.7,-14.8 382.8,-1478 1376.9,-1397.9 78.6,6 147.3,-52.4 153.5,-131 6.3,-78.5 -52.3,-147.3 -130.9,-153.5 -36,-2.9 -71.3,-4.3 -106,-4.3" style="fill:#371a45;fill-opacity:1;fill-rule:nonzero;stroke:none" id="path20" data-index="4"/>
      <path d="m 6205.75,13045.8 c 0,0 -1399.24,428 -1458.56,1003.8 -151.2,1467.5 1035.6,4213.5 1824.95,4749 567.6,385.1 2386.74,293.1 2456.52,293.1 1693.44,-2868.3 -709.25,-6274.9 -2822.91,-6045.9" style="fill:#ffffff;fill-opacity:1;fill-rule:nonzero;stroke:none" id="path22" data-index="5"/>
      <path d="m 6205.75,13045.8 c 0,0 -1399.24,428 -1458.56,1003.8 -151.2,1467.5 1035.6,4213.5 1824.95,4749 567.6,385.1 2386.74,293.1 2456.52,293.1 1693.44,-2868.3 -709.25,-6274.9 -2822.91,-6045.9" style="fill:#ffffff;fill-opacity:1;fill-rule:nonzero;stroke:none" id="path24" data-index="6"/>
      <path d="M 9362.43,18375.8 C 8496.4,19106.9 7708,18979 7419.59,18320.7 7131.14,17662.2 6607.03,14742.5 5909.16,14362 c -240.76,-131.3 -514.28,-135 -762.08,-42.2 79.53,-568.9 1456.68,-990.3 1456.68,-990.3 497.98,-54 1011.98,94 1484.71,389.1 1158.95,980.5 1923.53,2856.4 1273.96,4657.2" style="fill:#d0dae2;fill-opacity:1;fill-rule:nonzero;stroke:none" id="path26" data-index="7"/>
      <path d="m 6205.79,12867.4 c -17.29,0 -34.81,2.5 -52.2,7.8 -252.54,77.3 -1515.82,496.1 -1583.79,1156.1 -154.05,1495 1046.78,4334.5 1902.2,4914.9 500.73,339.8 1795.17,349.4 2522.56,325 17.68,-0.6 29.49,-1 34.76,-1.1 98.1,-1.2 177.54,-81.3 176.96,-179.4 -0.59,-98.1 -79.54,-177.3 -177.64,-177.3 -5.66,0 -21.43,0.5 -46.04,1.3 -1146.59,38.7 -2010.26,-60 -2310.31,-263.6 -703.46,-477.4 -1898.24,-3122 -1747.7,-4583.3 32.52,-315.2 799.27,-687.7 1333.4,-851.5 94.14,-28.8 147.07,-128.6 118.26,-222.7 -23.54,-76.8 -94.14,-126.2 -170.46,-126.2" style="fill:#371a45;fill-opacity:1;fill-rule:nonzero;stroke:none" id="path28" data-index="8"/>
      <path d="m 6478.83,18887.2 c 63.73,-14.4 115.45,-36.7 173.25,-60.5 294.22,-128.3 561.77,-309.4 817.16,-500 l 123.54,-95.8 c -350.58,137.3 -718.79,268.4 -1094.58,301.6 -11.31,0.1 -50.85,3.4 -57.89,0.1 l 38.52,354.6" style="fill:#371a45;fill-opacity:1;fill-rule:nonzero;stroke:none" id="path30" data-index="9"/>
      <path d="m 12759.5,17958.8 c 0,0 1335.7,-977 2136,-1312 515.9,-215.9 -823.5,-725.3 -823.5,-725.3 h -1721.4 c -18.4,791.2 40.3,1526.5 408.9,2037.3" style="fill:#ffffff;fill-opacity:1;fill-rule:nonzero;stroke:none" id="path32" data-index="10"/>
      <path d="m 13470.9,17465.9 c -406,269.6 -711.4,492.9 -711.4,492.9 -286.5,-397.1 -385.5,-930.2 -406.8,-1519.5 688.7,97.5 988.7,583.4 1118.2,1026.6" style="fill:#d0dae2;fill-opacity:1;fill-rule:nonzero;stroke:none" id="path34" data-index="11"/>
      <path d="m 14856.4,16466.7 h 0.5 -0.5 m -751.6,-723.6 h -1754.2 c -98.5,0 -178.4,79.9 -178.4,178.4 0,98.5 79.9,178.4 178.4,178.4 h 1688.3 c 325,126.5 638.5,292.3 756.2,395.8 -812.2,350.2 -2086.4,1279.3 -2140.9,1319.2 -79.5,58.1 -96.8,169.7 -38.6,249.2 58.1,79.5 169.6,96.9 249.2,38.7 13.2,-9.6 1328.1,-968.5 2099.5,-1291.5 201,-84.1 228.9,-219.8 227.7,-293.2 -5,-300.6 -577.3,-581 -1056.6,-763.3 l -30.6,-11.7" style="fill:#371a45;fill-opacity:1;fill-rule:nonzero;stroke:none" id="path36" data-index="12"/>
      <path d="M 9163.59,18726.5 C 7949.28,17726.2 5978.94,15166.2 6888.51,13045.8 c 0,0 -623.36,250.5 -1195.7,0 -616.46,-269.9 -1670.24,-1716.8 -1232.91,-2828.7 352.63,-896.6 1512.06,-786.3 2061.06,-362.9 0,0 971.36,-554.8 1963.36,-246.6 958.42,297.7 1626.08,1549.3 1730.78,2100.6 0,0 1660.9,-137.3 2386.7,2026.2 573.9,1710.7 316.4,3573.1 316.4,3573.1 -257.1,1046 -2299.2,1063.5 -3754.61,1419" style="fill:#ffffff;fill-opacity:1;fill-rule:nonzero;stroke:none" id="path38" data-index="13"/>
      <path d="m 8242.39,11305.7 c 0,0 -797.9,465.3 -1353.88,1740.1 0,0 -408.97,164.3 -868.53,93.6 436.51,-1449.8 2222.41,-1833.7 2222.41,-1833.7" style="fill:#d0dae2;fill-opacity:1;fill-rule:nonzero;stroke:none" id="path40" data-index="14"/>
      <path d="m 8484.32,9607.6 c 458.75,142.5 850.62,503.7 1146.28,901.8 -57.59,726.6 -759.81,-62 -1802.29,-199.3 -1307.35,-172.1 -2135.5,1370.2 -2135.5,1370.2 0,0 -589.7,-439.7 -537.36,-1228.3 58.58,-882.6 1106.71,-351.5 1106.71,-351.5 l 258.8,-246.3 c 0,0 971.36,-554.8 1963.36,-246.6" style="fill:#d0dae2;fill-opacity:1;fill-rule:nonzero;stroke:none" id="path42" data-index="15"/>
      <path d="m 12601.8,13734.4 c 245.9,733 339.1,1493.8 365.4,2124 -375.5,-78.7 -1211.3,-146.9 -2403.2,365 -493.8,212.1 -2568.19,0.1 -2568.19,0.1 -101.71,-537.3 424.18,-1319.6 -1039.2,-524.5 -266.36,-694.8 -385.12,-1428 -233.71,-2132.2 240.16,-386.3 1063.7,-1735.3 3492.2,-1858.6 20.1,-1 40.1,-1.2 60.1,-1.7 303.7,0.1 1682.9,109.1 2326.6,2027.9" style="fill:#d0dae2;fill-opacity:1;fill-rule:nonzero;stroke:none" id="path44" data-index="16"/>
      <path d="m 12918.2,17307.5 c -257.1,1046 -2299.2,1063.5 -3754.61,1419 -82.87,-68.3 -169.35,-144 -258.11,-226.2 643.28,-895.9 1965.02,-2162.7 3315.82,-2074.5 317.3,20.8 560.1,118.4 745.9,258.4 -16.1,384.7 -49,623.3 -49,623.3" style="fill:#d0dae2;fill-opacity:1;fill-rule:nonzero;stroke:none" id="path46" data-index="17"/>
      <path d="M 9276.98,18588.9 C 7852.72,17368.7 6251.6,15042.9 7052.4,13116.1 l 167.64,-389.1 c -121.56,44.4 -453.81,184.4 -579.85,206.5 -454.46,106.8 -907.96,36.2 -1238.79,-315.7 -542.24,-540.9 -1000.01,-1395.2 -826.16,-2173.1 196.11,-909.3 1335.61,-889.4 1929.52,-379 668.8,-376.1 1558.95,-541.4 2250.89,-140.6 611.82,380.6 1106.74,1117.9 1284.25,1816.4 l 31.1,144.1 c 19.4,0.4 50.5,0.3 84.8,0.2 59.1,-0.1 127.5,-0.3 161.9,2.1 782.2,48.1 1453.2,585.2 1818.6,1259 269.6,482.5 428.4,1043.4 538.8,1585.7 177.6,850.5 145.6,1710.9 243.1,2574.9 204.3,-562.5 213.4,-1161.8 184.8,-1751.2 -18.3,-365.4 -58.9,-741.8 -129.1,-1102.9 -100,-515.7 -246.3,-1027.3 -499.6,-1493.8 -422.9,-810.8 -1264.7,-1447.1 -2205.7,-1432.5 -21.6,0.4 -39.6,1.1 -68.2,3.3 l 189.9,144.5 c -192.6,-792 -751.88,-1624 -1452.91,-2056.7 -668.69,-395.8 -1508.33,-333.9 -2206.99,-56.6 -102.78,41.6 -199.28,83.4 -297.88,137.7 l 197.34,13.6 c -639.35,-479.1 -1725.25,-529.6 -2207.62,192.6 -442.85,693.9 -218.23,1589.8 170.17,2247.5 317.88,519.6 766.57,1082.4 1415.45,1164.5 323.01,43.5 642.24,3.5 947.14,-106.2 l -230.39,-235.8 c -113.28,265.1 -187.71,546.8 -222.09,831.9 -155.63,1420.9 555.93,2769.8 1396.51,3858.1 342.82,434.5 721.36,839.6 1151.16,1198.7 l 226.79,-275.3" style="fill:#371a45;fill-opacity:1;fill-rule:nonzero;stroke:none" id="path48" data-index="18"/>
      <path d="m 7052.08,13116.9 c 232.52,-490.4 463.63,-989.3 800.07,-1419.3 115.38,-141.5 241.11,-276.2 390.23,-391.9 -353.03,144.7 -646.61,415.8 -894.7,702 -251.51,294.9 -463.28,610.2 -622.73,967 l 327.13,142.2" style="fill:#371a45;fill-opacity:1;fill-rule:nonzero;stroke:none" id="path50" data-index="19"/>
      <path d="m 5744,11162.4 c 79.09,-244.5 198.47,-476.8 347.24,-683.2 141.02,-196.8 322.82,-366.5 531.64,-478.7 l -203.84,-292.7 c -417.51,367.6 -623.39,914.4 -675.04,1454.6" style="fill:#371a45;fill-opacity:1;fill-rule:nonzero;stroke:none" id="path52" data-index="20"/>
      <path d="m 8718.97,9711.8 c -196.09,0 -378.41,58.9 -545.06,176.6 -601.03,424.5 -825,1530.6 -825,2128.2 h 285.35 c 0,-563.7 223.82,-1555.8 704.24,-1895.1 195.85,-138.3 417.34,-160.6 677.2,-68.5 l 95.41,-268.9 c -135.94,-48.3 -266.84,-72.3 -392.14,-72.3" style="fill:#371a45;fill-opacity:1;fill-rule:nonzero;stroke:none" id="path54" data-index="21"/>
      <path d="m 10100.7,12339.8 114.4,-631.6" style="fill:#ffffff;fill-opacity:1;fill-rule:nonzero;stroke:none" id="path56" data-index="22"/>
      <path d="m 10100.7,12339.8 289.9,-599.8 -351,-63.6 z" style="fill:#371a45;fill-opacity:1;fill-rule:nonzero;stroke:none" id="path58" data-index="23"/>
      <path d="m 9385.65,14844.3 c 0,0 -409.33,-1849.8 -356.99,-2019.6 52.34,-169.9 3044.24,-802.1 3193.94,-718.7 87.4,48.6 308,1431 308,1431 l -3144.95,1307.3" style="fill:#d0dae2;fill-opacity:1;fill-rule:nonzero;stroke:none" id="path60" data-index="24"/>
      <path d="m 9202.71,12861.2 h 0.49 z m 2975.89,-584 z m -15.5,-354.9 c -160.7,-0.1 -512,43.3 -1346.5,217.2 -595.8,124.1 -1406.46,315.2 -1730.44,445.3 -98.29,39.4 -196.83,86.4 -227.93,187.3 -43.94,142.7 74.95,852.8 353.32,2110.7 21.29,96.1 116.26,156.9 212.65,135.6 96.19,-21.3 156.88,-116.5 135.59,-212.7 -169.53,-766.2 -337.35,-1626.6 -356.1,-1885.2 391.94,-169.5 2413.01,-617.1 2901.01,-643.5 61,208.8 170.2,789.4 249.8,1288.1 15.5,97.2 107,163.5 204.2,148 97.3,-15.5 163.5,-107 148,-204.3 -234.3,-1467.9 -317.2,-1514 -397.4,-1558.7 -22.3,-12.3 -50.1,-27.8 -146.2,-27.8" style="fill:#371a45;fill-opacity:1;fill-rule:nonzero;stroke:none" id="path62" data-index="25"/>
      <path d="M 10100.7,14369.8 9791.73,12558.4" style="fill:#ffffff;fill-opacity:1;fill-rule:nonzero;stroke:none" id="path64" data-index="26"/>
      <path d="m 9791.92,12380 c -9.96,0 -20.02,0.9 -30.17,2.6 -97.12,16.6 -162.41,108.7 -145.85,205.8 l 308.93,1811.4 c 16.56,97.1 108.57,162.2 205.77,145.9 97.2,-16.6 162.4,-108.8 145.9,-205.9 l -308.94,-1811.4 c -14.85,-86.9 -90.29,-148.4 -175.64,-148.4" style="fill:#371a45;fill-opacity:1;fill-rule:nonzero;stroke:none" id="path66" data-index="27"/>
      <path d="M 11108.3,14063.9 10858.1,12313" style="fill:#ffffff;fill-opacity:1;fill-rule:nonzero;stroke:none" id="path68" data-index="28"/>
      <path d="m 10858.3,12134.7 c -8.4,0 -16.9,0.6 -25.5,1.8 -97.5,13.9 -165.2,104.3 -151.3,201.8 l 250.3,1750.9 c 13.9,97.4 104.2,165.2 201.8,151.3 97.5,-14 165.2,-104.3 151.3,-201.8 l -250.3,-1750.9 c -12.7,-88.9 -89,-153.1 -176.3,-153.1" style="fill:#371a45;fill-opacity:1;fill-rule:nonzero;stroke:none" id="path70" data-index="29"/>
      <path d="m 6911.22,15576.5 c -454.23,158.4 -863.69,-463.4 -233.52,-985 569.05,-471.1 1988.46,-1024.6 2549.86,-1072.3 608.98,-51.7 568.77,553.4 328,733.7 0,0 -1824.95,752.8 -2644.34,1323.6" style="fill:#ffffff;fill-opacity:1;fill-rule:nonzero;stroke:none" id="path72" data-index="30"/>
      <path d="m 9299.64,13941.7 c -561.39,47.7 -1980.8,601.3 -2549.85,1072.3 -170.96,141.5 -264.91,290.3 -302.71,429 -151.18,-195.9 -144.01,-541.4 230.62,-851.5 569.06,-471.1 1988.46,-1024.6 2549.86,-1072.3 454.52,-38.6 547.31,288.6 465.08,532.1 -77.33,-78.3 -203.79,-125.7 -393,-109.6" style="fill:#d0dae2;fill-opacity:1;fill-rule:nonzero;stroke:none" id="path74" data-index="31"/>
      <path d="m 6765.95,15423.5 c -94.39,0 -163.14,-58.4 -197.56,-119.4 -69.29,-122.8 -52.44,-347.2 223.04,-575.2 524.81,-434.4 1909.04,-985.9 2451.23,-1032 155.9,-12.9 251.7,23.9 284.61,110.4 37.36,98 -3.9,232.1 -65.08,291.3 -230.77,96 -1838.97,773.1 -2630.18,1315.8 -23.19,6.3 -45.26,9.1 -66.06,9.1 z m 2534.22,-2085.9 c -27.93,0 -57.08,1.3 -87.69,3.9 -607.86,51.6 -2055.71,621.9 -2648.49,1112.6 -445.07,368.5 -443.16,782.6 -306.25,1025.2 142.63,252.9 435.75,361.9 712.21,265.6 l 23.14,-8.1 20.07,-14 c 793.9,-553.1 2592.34,-1297.6 2610.4,-1305 l 20.85,-8.6 18.07,-13.5 c 201.85,-151.3 290.77,-472.2 198.14,-715.4 -40.77,-107 -174.51,-342.7 -560.45,-342.7" style="fill:#371a45;fill-opacity:1;fill-rule:nonzero;stroke:none" id="path76" data-index="32"/>
      <path d="m 16768.9,19857 c -574.9,-746.8 -1342.2,-1353 -2253.8,-1738.8 -185.9,-78.6 -377.2,-148.2 -574.2,-207.7 -95.7,-29.3 -193.5,-55.8 -292.4,-80.8 -298.5,-73.5 -597.5,-122 -895.1,-146.9 -256.4,-22.1 -511.9,-26.1 -764.4,-13.9 -304.9,14.6 -605.9,53.9 -900.4,115.6 -107.4,22.9 -213.8,48.5 -319.3,76.8 -1930.12,522.2 -3535.41,2029.4 -4070.11,4081.5 -788.29,3022.7 1045.42,6082 4094.81,6833.4 587.4,144.3 1177.7,193.4 1752.6,155.1 67.3,-3.8 134.7,-9.6 201.9,-16.8 179.8,-18 357.8,-44.3 533.6,-78.9 406.4,-80.1 801.1,-203.6 1177.1,-366.2 376,-162.2 734.1,-363.9 1066.7,-600.8 105.8,-75.2 209.2,-153.9 310,-236.4 150.9,-123.8 295.9,-254.8 434.1,-394.2 690.3,-692.1 1211,-1567.8 1473.3,-2574.8 453.6,-1738.8 39.3,-3489.4 -974.4,-4806.2" style="fill:#ffffff;fill-opacity:1;fill-rule:nonzero;stroke:none" id="path78" data-index="33"/>
      <path d="m 12170.1,28929.5 c -459.7,0 -919.8,-56 -1372.7,-167.2 -1476.96,-364 -2714.9,-1277.4 -3485.75,-2572.1 -764.75,-1284.3 -977.3,-2791.5 -598.54,-4243.8 513.97,-1972.7 2069.68,-3532.7 4059.99,-4071.3 105.4,-28.2 212.6,-54 318.4,-76.5 297.2,-62.2 599.3,-101 898.2,-115.3 255.2,-12.5 511.9,-7.8 762.5,13.8 299.1,25 599.5,74.3 892.9,146.6 107.4,27 202.8,53.4 291.6,80.5 192.6,58.2 385.3,127.9 572.8,207.2 885.8,374.9 1663.2,974.8 2248,1734.3 1054.9,1370.4 1409.1,3117.6 971.9,4793.8 -252.6,969.6 -760.7,1857.7 -1469.5,2568.4 -134.1,135.1 -279.8,267.4 -433.1,393.1 -98.3,80.5 -202.3,159.9 -309.2,235.9 -331.9,236.3 -689.9,437.9 -1064.1,599.3 -377.7,163.3 -772.7,286.2 -1174.2,365.3 -174.7,34.4 -353.8,60.8 -532.3,78.7 -71.6,7.7 -137.4,13.2 -201.2,16.8 -125.1,8.3 -250.4,12.5 -375.7,12.5 z m 98.3,-11281.7 c -93.3,0 -186.8,2.2 -280.1,6.7 -300.3,14.4 -604,53.4 -902.7,116 -106.4,22.6 -214,48.5 -320,76.9 -2000.24,541.3 -3563.72,2109.1 -4080.32,4091.8 -380.66,1459.8 -166.99,2974.7 601.66,4265.7 774.86,1301.3 2019.14,2219.4 3503.66,2585.2 579.2,142.3 1170.1,194.6 1757,155.6 64.1,-3.7 130.4,-9.2 202.4,-16.9 179.2,-18 359.2,-44.6 534.8,-79.1 403.6,-79.5 800.5,-203 1180.1,-367.2 376,-162.1 735.8,-364.7 1069.4,-602.2 107.4,-76.4 211.9,-156.1 310.6,-237 154.2,-126.4 300.6,-259.3 435.4,-395.2 712.3,-714.2 1223,-1606.8 1477,-2581.3 439.4,-1684.9 83.3,-3441.2 -977,-4818.6 -587.8,-763.5 -1369.2,-1366.4 -2259.6,-1743.2 -188.4,-79.7 -382.1,-149.8 -575.7,-208.3 -89.2,-27.3 -185.1,-53.7 -293,-80.9 -294.8,-72.6 -596.7,-122.2 -897.3,-147.3 -160.3,-13.8 -323.1,-20.7 -486.3,-20.7" style="fill:#371a45;fill-opacity:1;fill-rule:nonzero;stroke:none" id="path80" data-index="34"/>
      <path d="m 6699.24,21942.9 c 534.48,-2052.2 2140.04,-3559.6 4070.16,-4081.5 105.5,-28.4 211.9,-54 319.1,-76.8 294.6,-61.8 595.5,-100.9 900.4,-115.7 252.5,-12 508.1,-8.2 764.4,13.8 297.7,24.8 596.5,73.4 895.3,146.9 98.7,25.2 196.4,51.6 292.3,80.6 197.1,59.7 388.2,129.6 574.2,208.1 911.6,385.8 1679,991.7 2253.9,1738.8 315.9,410.2 573.7,862.8 765.1,1344 -565.1,-700.2 -1303.5,-1268.5 -2173.2,-1636.7 -185.9,-78.9 -377.2,-148.4 -574.2,-208 -95.6,-29.3 -193.3,-55.6 -292.4,-80.7 -298.7,-73.5 -597.5,-122.1 -895,-147.1 -256.5,-21.8 -511.8,-25.8 -764.3,-13.8 -304.9,14.8 -606.2,54.1 -900.4,115.7 -107.6,23 -213.9,48.6 -319.4,77 -1930.16,522 -3535.4,2029.1 -4070.19,4081.5 -312.31,1197.2 -212.81,2400 210.14,3462.8 C 6682.2,25524 6233.82,23727 6699.24,21942.9" style="fill:#d0dae2;fill-opacity:1;fill-rule:nonzero;stroke:none" id="path82" data-index="35"/>
      <path d="m 16768.9,19857 h 0.5 z m -4598.7,8976.2 c -452.2,0 -904.6,-55 -1349.8,-164.4 C 9368.68,28311.1 8151.93,27413.3 7394.32,26141 6642.9,24878.9 6434.01,23397.9 6806.23,21970.7 7311.55,20031.3 8841.19,18497.6 10798.2,17968 c 103.6,-27.7 209.2,-53.1 313.4,-75.3 291.8,-61.1 588.9,-99.2 882.7,-113.4 251.1,-12 503.3,-7.5 749.7,13.7 294.3,24.6 589.6,73.1 878,144.1 105.4,26.5 199.3,52.5 286.6,79.1 189.6,57.3 379,125.9 563.4,203.9 870.6,368.4 1634.6,957.8 2209.3,1704.4 1036.6,1346.5 1384.6,3063.6 955,4710.8 -248.3,953 -747.8,1826.1 -1444.6,2524.6 -131.9,133 -275.2,263.1 -425.9,386.7 -96.6,79.1 -198.8,157.1 -304,231.9 -326.4,232.4 -678.4,430.6 -1046.4,589.3 -371.5,160.7 -760,281.5 -1154.7,359.3 -171.8,33.7 -347.8,59.8 -523.3,77.4 -70.6,7.5 -134.9,12.9 -197.1,16.4 -123.2,8.2 -246.6,12.3 -370.1,12.3 z m 98.2,-11281.6 c -94.8,0 -189.9,2.3 -284.7,6.8 -305.4,14.6 -614.2,54.3 -917.8,117.9 -108.4,23 -217.6,49.3 -325.2,78.1 -2033.74,550.3 -3623.24,2144.5 -4148.53,4160.5 -387.21,1484.9 -169.88,3025.9 612.11,4339.2 788.08,1323.6 2053.56,2257.4 3563.32,2629.5 588.7,144.6 1189.6,197.8 1786.4,158.1 64.8,-3.7 132.6,-9.4 206.2,-17.2 181.6,-18.2 364.6,-45.3 543.2,-80.4 410.3,-80.8 813.9,-206.4 1199.7,-373.2 382.1,-164.8 747.9,-370.8 1087,-612.2 109.1,-77.6 215.4,-158.7 315.8,-241 156.7,-128.5 305.7,-263.6 442.7,-401.8 724.2,-726.1 1243.6,-1633.8 1501.8,-2624.9 446.9,-1713.8 84.7,-3500.3 -993.8,-4901.5 -598,-776.7 -1392.7,-1389.8 -2298.4,-1773.1 -191.6,-81 -388.5,-152.3 -585.3,-211.8 -90.5,-27.7 -187.9,-54.6 -297.4,-82.1 -300.2,-74 -607.2,-124.4 -912.8,-149.9 -162.9,-14.1 -328.3,-21 -494.3,-21" style="fill:#371a45;fill-opacity:1;fill-rule:nonzero;stroke:none" id="path84" data-index="36"/>
      <path d="m 16768.9,19857 h 0.5 z m -4598.6,8908.5 c -447.1,0 -893.9,-54.4 -1333.7,-162.5 -1433.98,-353.4 -2635.84,-1240 -3384.08,-2496.7 -742.09,-1246.3 -948.34,-2709 -580.76,-4118.5 499.22,-1915.9 2010.49,-3431.2 3944.14,-3954.4 102.3,-27.4 206.7,-52.5 309.8,-74.5 288.1,-60.3 581.7,-98 871.8,-111.9 248.2,-11.9 497.4,-7.4 740.7,13.4 290.9,24.4 582.7,72.3 867.6,142.5 103.9,26.2 196.8,51.8 283,78.1 187.4,56.7 374.7,124.5 556.9,201.5 859.7,363.9 1614.3,946 2181.9,1683.3 1023.7,1329.8 1367.4,3025.6 943.2,4652.3 -245.3,941.5 -738.7,1803.9 -1427,2494 -130.5,131.5 -272,259.9 -421,382.1 -95.3,78.1 -196.4,155.2 -300.3,229.1 -322.5,229.6 -670.4,425.5 -1033.9,582.3 -367.1,158.8 -751,278.2 -1141,355 -169.6,33.3 -343.6,59.1 -516.9,76.4 -70,7.5 -133.2,12.8 -194.2,16.3 -122,8.1 -244.1,12.2 -366.2,12.2 z m 98.1,-11281.7 c -95.9,0 -192.1,2.3 -288,7 -308.9,14.8 -621.3,54.9 -928.4,119.2 -109.7,23.3 -220.1,49.9 -328.9,79 -2057.25,556.7 -3665.11,2169.3 -4196.51,4208.8 -391.8,1502.6 -171.83,3062 619.48,4391 797.42,1339.3 2077.84,2284.2 3605.23,2660.6 595.7,146.3 1203.6,200.1 1807.2,159.9 65.3,-3.7 134.2,-9.5 208.9,-17.5 183.3,-18.3 368.4,-45.7 549.1,-81.2 415,-81.7 823.2,-208.8 1213.5,-377.5 386.5,-166.7 756.4,-375 1099.3,-619.2 110.4,-78.5 218,-160.5 319.6,-243.8 158.5,-129.9 309.1,-266.7 447.8,-406.5 732.6,-734.5 1258,-1652.9 1519.2,-2655.5 452.3,-1734.2 85.8,-3542 -1005.7,-4959.9 -605,-785.9 -1409.2,-1406.4 -2325.6,-1794.2 -193.8,-82 -393,-154 -592.1,-214.3 -91.4,-27.9 -189.9,-55.1 -300.4,-82.9 -304.1,-74.9 -614.6,-125.9 -923.8,-151.8 -164.7,-14.1 -332,-21.2 -499.9,-21.2" style="fill:#371a45;fill-opacity:1;fill-rule:nonzero;stroke:none" id="path86" data-index="37"/>
      <path d="m 15745.4,18834.7 c -3654.3,-1752.4 -7898.1,589 -7529.75,4561 250.6,2702.3 3122.35,4521.4 5734.15,4093.1 1900.9,-311.8 3626.5,-1437.1 3971.1,-4482.1 0,0 -57.8,-1369.4 -565,-2206.3 -507.3,-836.9 -1144.3,-1564.9 -1144.3,-1564.9 l -466.2,-400.8" style="fill:#371a45;fill-opacity:1;fill-rule:nonzero;stroke:none" id="path88" data-index="38"/>
      <path d="m 8215.8,23395.6 c -368.43,-3971.8 3875.5,-6313.3 7529.6,-4561 l 94.5,81.3 c -3733.6,-61 -7025.05,2665.3 -6728.23,6688.7 -491.78,-625.2 -818.39,-1375.1 -895.87,-2209" style="fill:#220f2d;fill-opacity:1;fill-rule:nonzero;stroke:none" id="path90" data-index="39"/>
      <path d="m 16768.9,19857 h 0.5 -0.5 m -3570.6,8125.8 c -1243.5,0 -2515.3,-429.1 -3528.54,-1212.1 C 8557.5,25911.2 7879.28,24729 7759.98,23441.9 c -130.6,-1409.8 258.75,-2696.1 1125.93,-3719.7 924.18,-1090.9 2333.09,-1781.7 3866.79,-1896.3 288.7,24.7 578.5,72.6 861.7,142.4 104.6,26.3 198,52.1 284.8,78.6 188.6,57.1 377,125.2 560.4,202.7 865.4,366.3 1624.9,952.3 2196.3,1694.4 1030.5,1338.7 1376.5,3045.6 949.4,4683.1 -245.7,942.9 -738.6,1807 -1425.9,2499.8 -593.2,387.5 -1312.9,652.7 -2139.4,788.2 -276.8,45.4 -558.6,67.7 -841.7,67.7 m -444.1,-10443.2 -11.1,0.9 c -1614,117.6 -3099.22,845.6 -4074.9,1997.2 -917.88,1083.5 -1330.19,2442.7 -1192.39,3930.5 126.71,1366.8 843.89,2619.8 2019.43,3528.3 1305.66,1008.9 3021.96,1457.4 4590.96,1200.2 871.9,-143 1633.1,-425.4 2262.3,-839.5 l 12.2,-8 10.4,-10.4 c 728.4,-730.4 1250.7,-1643.2 1510.3,-2639.7 449.5,-1723.4 85.2,-3520.1 -999.4,-4929.1 -601.3,-781.1 -1400.5,-1397.7 -2311.3,-1783.2 -192.6,-81.4 -390.6,-153.1 -588.5,-212.9 -91,-27.8 -188.9,-54.9 -298.9,-82.5 -302,-74.4 -610.6,-125.1 -917.9,-150.8 l -11.2,-1" style="fill:#371a45;fill-opacity:1;fill-rule:nonzero;stroke:none" id="path92" data-index="40"/>
      <path d="M 5752.83,24039.4 C 5516.12,22954 5966.99,21900 6760.18,21685.2 c 793.19,-214.7 1628.06,491.1 1864.77,1576.4 1.61,6.8 2.99,14.1 4.24,21 226.69,1077.9 -223.96,2120 -1011.59,2333.1 -612.74,166 -1250.35,-217.5 -1617.92,-900.8 -108.11,-201.2 -193,-428.7 -246.85,-675.5" style="fill:#ffffff;fill-opacity:1;fill-rule:nonzero;stroke:none" id="path94" data-index="41"/>
      <path d="M 5752.83,24039.4 C 5516.12,22954 5966.99,21900 6760.18,21685.2 c 793.19,-214.7 1628.06,491.1 1864.77,1576.4 1.61,6.8 2.99,14.1 4.24,21 -111.49,-87.8 -271.13,-160.7 -446.95,-74 -307.9,152.1 -733.65,1006.5 -733.65,1006.5 0,0 -626.93,220.8 -1448.91,499.8 -108.11,-201.2 -193,-428.7 -246.85,-675.5" style="fill:#d0dae2;fill-opacity:1;fill-rule:nonzero;stroke:none" id="path96" data-index="42"/>
      <path d="m 7328.69,25475.9 c -186.03,0 -374.61,-55.8 -555.66,-165.8 -404.69,-245.8 -721,-735 -846.1,-1308.7 -216.4,-992.2 178.27,-1954 879.84,-2143.9 261.52,-70.8 537.4,-24.6 797.8,133.5 404.69,245.8 721,735 846.14,1308.8 216.41,992.1 -178.32,1953.9 -879.93,2143.9 -79.64,21.5 -160.64,32.2 -242.09,32.2 z M 7050.81,21468 c -112.94,0 -225.78,15 -337.26,45.2 -882.17,238.8 -1391.4,1389.1 -1135.15,2564.2 147.7,677.2 515.62,1237.6 1009.42,1537.6 345.95,210.1 718.17,269.9 1076.17,172.9 882.28,-238.8 1391.51,-1389.1 1135.26,-2564.2 -147.76,-677.2 -515.73,-1237.6 -1009.52,-1537.6 -238.24,-144.6 -488.92,-218.1 -738.92,-218.1" style="fill:#371a45;fill-opacity:1;fill-rule:nonzero;stroke:none" id="path98" data-index="43"/>
      <path d="m 5482.05,23269.9 c 90.76,-862.5 703.37,-1418.3 1368.31,-1241.4 664.93,176.8 1130.38,1019.4 1039.62,1881.9 -90.76,862.6 -703.37,1418.4 -1368.31,1241.5 -664.93,-176.8 -1130.38,-1019.4 -1039.62,-1882" style="fill:#ffffff;fill-opacity:1;fill-rule:nonzero;stroke:none" id="path100" data-index="44"/>
      <path d="m 6769.9,25170.2 c -80.61,0 -162.35,-10.8 -244.38,-32.7 -657.08,-174.8 -1118.51,-1011.8 -1028.62,-1866 50,-475.2 260.94,-873.3 578.71,-1092.1 234.09,-161.2 500.69,-208.4 770.9,-136.6 657.08,174.9 1118.51,1011.9 1028.62,1866.1 -50,475.2 -260.94,873.3 -578.72,1092.1 -163.03,112.2 -341.79,169.2 -526.51,169.2 z m -167.97,-3189.9 c -190.67,0 -375.05,58.8 -543.21,174.6 -325,223.7 -540.58,629.6 -591.5,1113.5 -91.36,868.1 379.93,1719.6 1050.58,1897.9 279.05,74.2 554.05,25.5 795.51,-140.8 325,-223.7 540.58,-629.6 591.5,-1113.5 91.36,-868.1 -379.93,-1719.6 -1050.58,-1898 -84.72,-22.5 -169.14,-33.7 -252.3,-33.7" style="fill:#371a45;fill-opacity:1;fill-rule:nonzero;stroke:none" id="path102" data-index="45"/>
      <path d="m 7656.99,22681.2 c 135.69,270.7 196.41,579.8 189.02,884.5 -362.19,-591.1 -1009.48,-721.3 -1495.98,-278.7 -314.48,285.9 -489.2,745.5 -500.37,1216.9 -23.09,-37.1 -44.76,-76.7 -65.42,-117.8 -345.18,-689.5 -205.8,-1630.1 311.46,-2100.9 517.25,-470.8 1216.22,-293.2 1561.29,396" style="fill:#d0dae2;fill-opacity:1;fill-rule:nonzero;stroke:none" id="path104" data-index="46"/>
      <path d="m 5606.42,23934.4 h 0.49 z m 1218.56,1151.5 c -149.85,0 -279.98,-56.4 -371.73,-111.9 -317.87,-192.2 -569.29,-594.8 -672.41,-1077 -166.99,-780.3 113.62,-1557.3 612.74,-1696.6 215.82,-60.3 407.72,15.7 530.67,90.1 317.92,192.2 569.28,594.8 672.41,1076.9 166.99,780.4 -113.62,1557.4 -612.75,1696.7 -54.73,15.3 -108,21.8 -158.93,21.8 z m -270.66,-3264.4 c -86.18,0 -172.02,11.7 -256.64,35.3 -697.46,194.7 -1077.63,1123.7 -865.67,2114.9 123.39,576.5 436.13,1065.3 836.67,1307.5 262.65,158.9 543.16,203.3 811.13,128.5 697.51,-194.7 1077.74,-1123.7 865.68,-2114.9 -123.39,-576.5 -436.14,-1065.3 -836.67,-1307.5 -179.69,-108.7 -367.78,-163.8 -554.5,-163.8" style="fill:#371a45;fill-opacity:1;fill-rule:nonzero;stroke:none" id="path106" data-index="47"/>
      <path d="m 15530.9,20758.9 c 0,0 258.9,413.5 426.4,1365.7 55,313.2 103.4,670.8 63.8,1182.5 -30,386.9 -162.2,760.9 -385.8,1081.5 -1.1,1.6 -2.2,3.3 -3.3,4.9 -1063.4,1522.7 -3352.5,2047.5 -3352.5,2047.5 -28.4,52.2 329.7,167.8 879.3,167.8 649.7,0 1567,-161.6 2429.6,-780.5 851.7,-611 1104.6,-1641.4 1165.7,-2407.3 20.4,-254 19.5,-478.9 12.3,-649.7 l 0.1,-1.1 c -1.5,-19.4 -3.3,-38.5 -5.6,-57.8 -9.5,-83.6 -21.4,-164.6 -35.7,-242.7 -147.5,-791.7 -557.2,-1306.9 -1194.3,-1710.8" style="fill:#9b8da2;fill-opacity:1;fill-rule:nonzero;stroke:none" id="path108" data-index="48"/>
      <path d="m 10196.5,23294.5 c -98.1,0 -195.7,20.4 -287.89,63.4 -382.13,178.4 -524.88,678.3 -318.84,1116.7 156.32,332.6 468.63,534.3 777.03,534.3 98.1,0 195.8,-20.4 288,-63.4 382.1,-178.4 524.8,-678.3 318.8,-1116.7 -156.3,-332.6 -468.6,-534.3 -777.1,-534.3" style="fill:#9b8da2;fill-opacity:1;fill-rule:nonzero;stroke:none" id="path110" data-index="49"/>
      <path d="m 9716.48,22397.5 c -97.29,194.7 -184.14,395.8 -260.02,603.6 57.87,38.3 123.41,58.9 187.88,58.9 48.95,0 97.24,-11.9 141.12,-37 151.08,-86.5 192.23,-296.9 91.94,-470.1 -40.31,-69.5 -97.33,-122.5 -160.92,-155.4" style="fill:#9b8da2;fill-opacity:1;fill-rule:nonzero;stroke:none" id="path112" data-index="50"/>
      <path d="m 9563.38,22359 c -48.95,0 -97.24,11.9 -141.12,37 -151.08,86.5 -192.23,297 -91.94,470.1 32.8,56.6 76.68,102.3 126.14,135 75.88,-207.8 162.73,-408.9 260.02,-603.6 -48.69,-25.1 -101.25,-38.5 -153.1,-38.5" style="fill:#918796;fill-opacity:1;fill-rule:nonzero;stroke:none" id="path114" data-index="51"/>
      <path d="m 18229.5,14709.7 c 19.5,-129.7 30.7,-258.9 33.9,-386.8 -598.7,-256.3 -1717.2,-535.8 -3014.1,-730.7 -1296.7,-194.8 -2448.1,-256.5 -3095.7,-187.5 -34.5,123.2 -61.8,250 -81.3,379.7 -0.9,6.1 -1.8,12.1 -2.6,18.2 -8.4,57.3 -15,114.3 -20,171.2 -11.9,133.2 -15.1,265.4 -10.2,396 0.2,5.3 0.4,10.6 0.7,15.9 8.5,193.9 34.9,384.2 78.2,569 82.1,351.6 224.6,683.2 417.3,981.4 468.1,724.1 1232.9,1251.4 2152.6,1389.6 912.1,137 1791.3,-136.5 2449.6,-682.1 270.4,-223.8 503.5,-493.7 686.4,-799.7 97.9,-163.6 181.4,-337.8 248.5,-520.7 5.5,-14.7 10.8,-29.4 16,-44.3 43.1,-123.4 78.9,-250.7 106.6,-381.5 10.4,-48.5 19.6,-97.6 27.6,-147.1 2.3,-13.4 4.4,-27 6.5,-40.6" style="fill:#ffb200;fill-opacity:1;fill-rule:nonzero;stroke:none" id="path116" data-index="52"/>
      <path d="m 18057.8,13131.7 c -45.7,-119 -98.6,-234.8 -158.4,-346.7 -83.7,-157.4 -180.9,-307.1 -290,-447.6 -473.2,-609.5 -1172.5,-1045.1 -1995.9,-1168.8 -825.1,-124 -1623.3,88 -2255.4,533.4 -138.9,97.8 -269.7,206.9 -390.9,326.2 -95.2,93.4 -184.4,193.1 -267.1,298.4 787,-23 1720.5,34.9 2711.8,183.9 991.1,148.9 1900.4,367.9 2645.9,621.2" style="fill:#ff9100;fill-opacity:1;fill-rule:nonzero;stroke:none" id="path118" data-index="53"/>
      <path d="m 18263.4,14323 c -598.6,-256.3 -1717.3,-535.9 -3014,-730.7 -1296.8,-194.9 -2448.3,-256.5 -3095.9,-187.5 -34.4,123.3 -61.6,250 -81.3,379.7 -0.9,6.2 -1.7,12.1 -2.6,18.2 -8.2,57.3 -15,114.3 -19.9,171.1 -11.9,133.2 -15.1,265.4 -10.2,396.1 0.2,5.3 0.4,10.6 0.8,15.8 8.4,194 34.9,384.3 78,569.1 82.3,351.5 224.7,683.1 417.4,981.5 378.6,585.5 951,1042.3 1642.8,1268.6 -938.8,-499.6 -2147.4,-2558.8 -116.1,-3350.7 1225,-477.6 3767.9,412.2 4194.3,565.5 9.7,-88.3 4.4,-9.3 6.7,-96.7" style="fill:#ff9100;fill-opacity:1;fill-rule:nonzero;stroke:none" id="path120" data-index="54"/>
      <path d="m 15411.9,12510.5 c 991.1,148.9 1900.4,367.9 2645.9,621.2 -45.7,-119 -98.6,-234.8 -158.4,-346.7 -578.8,-213 -1467.9,-426.8 -2475.5,-578.2 -965.2,-145.1 -1843.2,-203.5 -2456.7,-178.6 -95.2,93.4 -184.4,193.1 -267.1,298.4 787,-23 1720.5,34.9 2711.8,183.9" style="fill:#d66b09;fill-opacity:1;fill-rule:nonzero;stroke:none" id="path122" data-index="55"/>
      <path d="m 18223,14750.3 c 2.3,-13.4 4.4,-27 6.5,-40.6 19.5,-129.7 30.7,-258.9 33.9,-386.8 -598.7,-256.3 -1717.2,-535.8 -3014.1,-730.7 -1296.7,-194.8 -2448.1,-256.5 -3095.7,-187.5 -34.5,123.2 -61.8,250 -81.3,379.7 -0.9,6.1 -1.8,12.1 -2.6,18.2 604,-100.9 1770.9,-56.2 3092.9,142.5 1374.2,206.5 2539.5,522.8 3060.4,805.2" style="fill:#d66b09;fill-opacity:1;fill-rule:nonzero;stroke:none" id="path124" data-index="56"/>
      <path d="m 12084.6,14855.4 67.5,198.7 c 402.2,-136.6 1566.1,-99.4 2830.2,90.6 1508.2,226.7 2535.7,562.3 2771.4,776.8 l 141.2,-155.2 c -311.7,-283.8 -1469.7,-617 -2881.3,-829.1 -1314.4,-197.5 -2491.5,-230.4 -2929,-81.8" style="fill:#d66b09;fill-opacity:1;fill-rule:nonzero;stroke:none" id="path126" data-index="57"/>
      <path d="m 12522.3,15832.1 26.8,208.1 c 478.5,-61.6 1352,-13.3 2279.7,126.1 972.1,146.1 1839.3,365.1 2263.2,571.7 l 91.9,-188.7 c -441.7,-215.2 -1332.2,-441.5 -2323.9,-590.5 -945.6,-142.1 -1841.3,-190.7 -2337.7,-126.7" style="fill:#d66b09;fill-opacity:1;fill-rule:nonzero;stroke:none" id="path128" data-index="58"/>
      <path d="m 12011.2,14284.9 58.1,201.6 c 467.9,-134.7 1671.8,-91.6 2995.8,107.4 1388.8,208.7 2599,542.6 2943,811.9 l 129.4,-165.2 c -375.5,-294 -1597.7,-637.3 -3041.2,-854.2 -1372.2,-206.3 -2583.2,-246.1 -3085.1,-101.5" style="fill:#d66b09;fill-opacity:1;fill-rule:nonzero;stroke:none" id="path130" data-index="59"/>
      <path d="m 13347.4,11650.6 10.6,51.2 -10.8,51.5 10.7,2.2 10.8,-2.2 c 413.4,-85.4 1256.5,-54 2147.9,80 896.3,134.7 1688.6,345.5 2067.9,550.3 l 49.8,-92.4 c -389.2,-210.1 -1194.7,-425.3 -2102.1,-561.7 -916.5,-137.7 -1753.7,-168 -2184.8,-78.9" style="fill:#d66b09;fill-opacity:1;fill-rule:nonzero;stroke:none" id="path132" data-index="60"/>
      <path d="m 13018.3,12179 c 663,-682.1 1622.2,-1012.6 2574,-869.3 951.5,143 1771.6,740.5 2204.8,1587.5 -710.7,-220 -1520.7,-401.1 -2364,-527.9 -843.3,-126.7 -1668.4,-192.1 -2414.8,-190.3 z m 2134.8,-1187.5 c -990.9,0 -1942.9,454.2 -2565.2,1247 l -188.2,239.6 304.5,-8.9 c 807,-23.5 1735.8,39.5 2686.5,182.4 950.7,142.8 1857.1,355.6 2621.2,615.2 l 288.5,97.9 -109.4,-284.2 c -420.2,-1092.6 -1399.7,-1879.2 -2556.3,-2053 -160.7,-24.1 -321.7,-36 -481.6,-36" style="fill:#371a45;fill-opacity:1;fill-rule:nonzero;stroke:none" id="path134" data-index="61"/>
      <path d="m 20041.7,14536 c 67.8,-451 -724.7,-976.5 -1983.9,-1404.3 -745.5,-253.3 -1654.8,-472.3 -2645.9,-621.2 -991.3,-149 -1924.8,-206.9 -2711.8,-183.9 -1329.3,38.7 -2241.1,308.2 -2308.9,759.2 -61.6,409.6 586.1,880.5 1648.3,1284 -4.9,-130.6 -1.7,-262.8 10.2,-396 -298.8,-129.8 -462.8,-253.5 -447.3,-357 15.9,-105.5 216.1,-176.3 551.2,-212.1 647.6,-69 1799,-7.3 3095.7,187.5 1296.9,194.9 2415.4,474.4 3014.1,730.7 309.7,132.7 480.2,259.2 464.4,364.6 -15.6,103.4 -208.7,173.6 -532.4,209.9 -27.7,130.8 -63.5,258.1 -106.6,381.5 1133.9,-73.6 1891.3,-333.3 1952.9,-742.9" style="fill:#ffd766;fill-opacity:1;fill-rule:nonzero;stroke:none" id="path136" data-index="62"/>
      <path d="m 12045.3,14027.6 c 1.4,-17.9 2.8,-35.9 4.5,-54 -298.9,-129.7 -463,-253.2 -447.4,-356.8 15.9,-105.7 216.3,-176.4 551.2,-212 429.5,-45.9 1081,-34.2 1849.5,35.9 -28.3,-57.3 -44.8,-114.2 -48.6,-169.9 -295.7,-23.5 -579.8,-37.7 -846.8,-42.6 -1161.1,-21.2 -1715.9,143.2 -1740.2,305.1 -14.3,94.5 157,273.3 677.8,494.3" style="fill:#ffaa39;fill-opacity:1;fill-rule:nonzero;stroke:none" id="path138" data-index="63"/>
      <path d="m 12007.6,14195.7 16.2,-39.2 c -265.6,-106.1 -476.7,-208.6 -640.9,-305 134,112.1 341.7,226.3 624.7,344.2" style="fill:#ff9100;fill-opacity:1;fill-rule:nonzero;stroke:none" id="path140" data-index="64"/>
      <path d="m 12040.2,14117.5 -16.4,39 c 4.6,2.1 9.7,4 14.8,5.8 l 1.6,-44.8" style="fill:#ff9100;fill-opacity:1;fill-rule:nonzero;stroke:none" id="path142" data-index="65"/>
      <path d="m 11382.9,13851.5 c -140.2,-116.3 -200.3,-230.3 -183.3,-343.6 16.7,-110.3 106,-195.1 244.8,-260 362.1,-169.1 1059.7,-200.7 1666.2,-189.6 274.6,5 566.9,20 871,44.1 33.7,-81.7 97.1,-156.3 187.6,-224.1 -450.1,-38.2 -881.3,-56.2 -1279.6,-53.3 -1419.9,10.2 -1962.4,273.1 -1995.9,495 -18.5,123.2 113.5,311.4 489.2,531.5" style="fill:#ffaa39;fill-opacity:1;fill-rule:nonzero;stroke:none" id="path144" data-index="66"/>
      <path d="M 15350.9,12501.4 C 14382.3,12359 13471,12304 12700,12326.6 c -1329.3,38.7 -2241.2,308.2 -2309,759.4 -61.4,409.4 586.4,880.2 1648.6,1283.8 -1.5,-38.8 -2.1,-77.7 -2.1,-116.9 l -31.1,79.5 c -618.9,-242.4 -1343.6,-619.2 -1280.5,-1037.5 24.4,-161.9 157.2,-283.6 352.8,-375 460.6,-214.8 1267.3,-260.8 1809.7,-264.7 475.9,-3.6 998,22.5 1541.9,76.4 234,-100.8 546.5,-178.2 920.6,-230.2" style="fill:#ffaa39;fill-opacity:1;fill-rule:nonzero;stroke:none" id="path146" data-index="67"/>
      <path d="m 13981.6,13102.4 c -304.1,-24.1 -596.4,-39.1 -871,-44.1 -606.5,-11.1 -1304.1,20.5 -1666.2,189.6 -138.8,64.9 -228.1,149.7 -244.8,260 -17,113.3 43.1,227.3 183.3,343.6 164.2,96.4 375.3,198.9 640.9,305 l 16.4,-39 c 1.4,-30 3.1,-59.9 5.1,-89.9 -520.8,-221 -692.1,-399.8 -677.8,-494.3 24.3,-161.9 579.1,-326.3 1740.2,-305.1 267,4.9 551.1,19.1 846.8,42.6 -2.2,-27.7 -1.2,-55 2.8,-82 4.5,-29.5 12.6,-58.4 24.3,-86.4" style="fill:#ffcf6e;fill-opacity:1;fill-rule:nonzero;stroke:none" id="path148" data-index="68"/>
      <path d="m 12023.8,14156.5 c -265.6,-106.1 -476.7,-208.6 -640.9,-305 134,112.1 341.7,226.3 624.7,344.2 l 16.2,-39.2" style="fill:#ffec90;fill-opacity:1;fill-rule:nonzero;stroke:none" id="path150" data-index="69"/>
      <path d="m 12040.2,14117.5 32.7,-78.3 c -9.3,-3.8 -18.6,-7.6 -27.6,-11.6 -2,30 -3.7,59.9 -5.1,89.9" style="fill:#ffec90;fill-opacity:1;fill-rule:nonzero;stroke:none" id="path152" data-index="70"/>
      <path d="m 17450.5,13710.4 c -631.1,-181.2 -1374.7,-339 -2150.6,-455.5 -451.2,-67.8 -896,-119.2 -1318.3,-152.5 -11.7,28 -19.8,56.9 -24.3,86.4 -4,27 -5,54.3 -2.8,82 422.3,32.6 868.1,83.9 1320.3,151.9 768.6,115.6 1504.8,271.6 2128.6,451 1115.9,321.1 1597.9,641.5 1573.8,803 -14.7,96.6 -238.3,219.6 -823.1,276 l 12.4,127.1 4,42.2 c 306.5,-29.6 539.2,-77.9 700.5,-145.7 166.6,-70.3 256.9,-161.4 274.1,-274.2 60,-399.3 -888.6,-759.7 -1694.6,-991.7" style="fill:#ffec90;fill-opacity:1;fill-rule:nonzero;stroke:none" id="path154" data-index="71"/>
      <path d="m 14430.3,12731.6 c -543.9,-53.9 -1066,-80 -1541.9,-76.4 -542.4,3.9 -1349.1,49.9 -1809.7,264.7 -195.6,91.4 -328.4,213.1 -352.8,375 -63.1,418.3 661.6,795.1 1280.5,1037.5 l 31.1,-79.5 c -0.1,-30.3 0.2,-60.4 1.1,-90.6 -5.1,-1.8 -10.2,-3.7 -14.8,-5.8 l -16.2,39.2 c -283,-117.9 -490.7,-232.1 -624.7,-344.2 -375.7,-220.1 -507.7,-408.3 -489.2,-531.5 33.5,-221.9 576,-484.8 1995.9,-495 398.3,-2.9 829.5,15.1 1279.6,53.3 70.7,-53.2 158.2,-102.3 261.1,-146.7" style="fill:#ffcf6e;fill-opacity:1;fill-rule:nonzero;stroke:none" id="path156" data-index="72"/>
      <path d="m 12007.6,14195.7 16.2,-39.2 c -265.6,-106.1 -476.7,-208.6 -640.9,-305 134,112.1 341.7,226.3 624.7,344.2" style="fill:#ffaa39;fill-opacity:1;fill-rule:nonzero;stroke:none" id="path158" data-index="73"/>
      <path d="m 12037.5,14252.9 30.9,-78.7 c -10.1,-4.1 -20.1,-7.9 -29.8,-11.9 -0.9,30.2 -1.2,60.3 -1.1,90.6" style="fill:#ffec90;fill-opacity:1;fill-rule:nonzero;stroke:none" id="path160" data-index="74"/>
      <path d="m 17781.3,13390.4 c -708.1,-223.7 -1544.9,-411.3 -2420.2,-542.8 -314.4,-47.4 -625.9,-86.1 -930.8,-116 -102.9,44.4 -190.4,93.5 -261.2,146.8 378.6,31.8 770.6,77.8 1167,137.3 866.4,130 1694.2,315.7 2394.1,536.6 1354.3,427.2 1795.6,838.1 1762.4,1059.9 -18.6,123 -199.3,263.9 -621.6,364.1 -185.8,44 -418.3,80.2 -704.5,103.5 -15.8,1.2 -31.9,2.4 -47.9,3.7 l 12.8,169.4 c 662.7,-49.7 1466.2,-197.1 1529.1,-615.3 81.7,-543.5 -1142.1,-1014.6 -1879.2,-1247.2" style="fill:#ffec90;fill-opacity:1;fill-rule:nonzero;stroke:none" id="path162" data-index="75"/>
      <path d="m 11895.9,14160 c -1053.8,-429.9 -1396.9,-831.5 -1363.6,-1053 43.2,-287.2 731.4,-595.8 2171.9,-637.8 807,-23.5 1735.8,39.5 2686.5,182.4 950.7,142.8 1857.1,355.6 2621.2,615.2 1364.6,463.6 1931.8,960.8 1888.7,1248 -33.3,221.5 -479.2,504.5 -1612.9,605.7 8.7,-31.2 16.9,-62.6 24.6,-94.1 260.1,-37.1 525.8,-113 556.6,-317.6 27.5,-183 -142,-342.5 -549.3,-517.1 -636.6,-272.5 -1776.4,-549.3 -3049.1,-740.6 -1272.7,-191.2 -2443.6,-261.5 -3132,-188.3 -440.8,47.2 -649.6,149.7 -677.1,332.7 -30.8,204.8 200.9,355.4 438.7,467.3 -1.9,32.4 -3.2,64.7 -4.2,97.2 m 1145.6,-1981 c -117.4,0 -232.6,1.7 -345.6,4.9 -867.8,25.4 -2339.5,173.4 -2445.8,880.7 -96.2,640.4 1048.1,1176.2 1738.8,1438.6 l 201.3,76.5 -8.1,-215.2 c -4.7,-125.9 -1.5,-253.1 9.7,-377.9 l 9.2,-102.6 -94.4,-41 c -227.6,-98.9 -314.8,-169 -346.9,-202.6 41.5,-23.2 149.6,-66.1 409,-93.8 655.9,-69.8 1828.1,1.6 3059.4,186.8 1231.4,185 2372.9,461.1 2979.2,720.7 239.6,102.7 330.3,175.4 363.2,209.8 -40.6,22.7 -144.6,64 -391,91.7 l -102.3,11.4 -21.3,100.8 c -26.1,122.9 -60.4,245.4 -101.8,363.9 l -71.2,203.5 215.1,-14 c 737.2,-47.8 1988.5,-223.7 2084.8,-864 106.2,-707.2 -1257,-1281.3 -2079.1,-1560.6 -779.9,-265 -1703.4,-481.9 -2670.6,-627.3 -834.5,-125.4 -1653.7,-190.3 -2391.6,-190.3" style="fill:#371a45;fill-opacity:1;fill-rule:nonzero;stroke:none" id="path164" data-index="76"/>
      <path d="m 17977.2,14634.2 c -2.5,12.3 -5,24.7 -7.7,36.9 -27.7,130.9 -63.6,258.3 -106.6,381.6 -2.8,8.2 -5.8,16.4 -8.7,24.5 47,21.7 90.3,43.4 129.6,64.9 28.4,-90.2 52.5,-182.1 72.1,-274.3 l 21.3,-100.8 102.3,-11.4 c 13.6,-1.6 26.8,-3.1 39.6,-4.7 0.1,-0.8 0.2,-1.7 0.4,-2.5 -69.7,-37.6 -150.8,-75.8 -242.3,-114.2 m -200.3,637 c -48.5,110.9 -103.2,218.2 -163.6,321.3 109.9,52.2 197.2,103.9 258.8,154.2 57.3,-103.2 109,-210.3 154.5,-320.8 l -143.7,9.3 32.1,-91.8 c -40.2,-23.7 -86.4,-47.8 -138.1,-72.2 m -276.5,499.9 c -165.6,243.3 -364.1,460.7 -588.4,646.3 -5.1,4.2 -10.1,8.3 -15.3,12.5 109.5,39.8 205.9,79.8 287.2,119.4 l -36,73.8 c 253.8,-212.4 474.4,-465.4 650.8,-751.1 l -45,49.5 c -49.9,-45.4 -135.3,-96.3 -253.3,-150.4 m -805.2,810.6 c -507.7,351.1 -1120,552.8 -1766.3,552.8 -154,0 -309.8,-11.4 -466.6,-35 -236.2,-35.5 -462.2,-96.7 -675.6,-180.3 115,106.1 233,194.9 347.9,261.3 176.4,60.6 360.6,106 551.6,134.7 156.7,23.6 312.6,35 466.4,35 697.1,0 1354.7,-234.5 1884,-638.1 -96.1,-43.4 -211,-87.1 -341.4,-130.4" style="fill:#ffd269;fill-opacity:1;fill-rule:nonzero;stroke:none" id="path166" data-index="77"/>
      <path d="m 12880.2,16368.8 c 339.4,361.5 766.5,644.2 1254.4,811.7 -114.9,-66.4 -232.9,-155.2 -347.9,-261.3 -336.7,-131.9 -642,-319.6 -906.5,-550.4" style="fill:#ffbe69;fill-opacity:1;fill-rule:nonzero;stroke:none" id="path168" data-index="78"/>
      <path d="m 18017.5,14378.7 c -4,34.9 -8.7,69.9 -13.9,104.8 -2.1,13.7 -4.3,27.1 -6.5,40.6 -5.9,37 -12.6,73.7 -19.9,110.1 91.5,38.4 172.6,76.6 242.3,114.2 0.4,-2.8 0.9,-5.7 1.4,-8.5 2.3,-13.5 4.5,-27 6.4,-40.7 11.3,-75.3 19.8,-150.4 25.6,-225.1 -14.6,-6.6 -29.8,-13.2 -45.6,-20 -58.5,-25.1 -121.8,-50.2 -189.8,-75.4" style="fill:#e7a86e;fill-opacity:1;fill-rule:nonzero;stroke:none" id="path170" data-index="79"/>
      <path d="m 17613.3,15592.5 c -5,8.4 -10,16.9 -15,25.2 -31.2,52.2 -63.9,103.4 -97.9,153.4 118,54.1 203.4,105 253.3,150.4 l 45,-49.5 c 7.9,-12.8 15.7,-25.7 23.5,-38.7 17.1,-28.5 33.7,-57.4 49.9,-86.6 -61.6,-50.3 -148.9,-102 -258.8,-154.2" style="fill:#e7a86e;fill-opacity:1;fill-rule:nonzero;stroke:none" id="path172" data-index="80"/>
      <path d="m 16896.7,16429.9 c -65.1,53.3 -132.3,103.9 -201.5,151.8 130.4,43.3 245.3,87 341.4,130.4 33.6,-25.7 66.6,-51.9 99.2,-78.9 4,-3.4 8.1,-6.8 12.1,-10.1 l 36,-73.8 c -81.3,-39.6 -177.7,-79.6 -287.2,-119.4" style="fill:#e7a86e;fill-opacity:1;fill-rule:nonzero;stroke:none" id="path174" data-index="81"/>
      <path d="m 17854.2,15077.2 c -2.4,6.6 -4.9,13.2 -7.3,19.8 -21.6,59 -45,117.1 -70,174.2 51.7,24.4 97.9,48.5 138.1,72.2 l 39.1,-111.7 c 10.3,-29.6 20.3,-59.5 29.7,-89.6 -39.3,-21.5 -82.6,-43.2 -129.6,-64.9" style="fill:#e7a86e;fill-opacity:1;fill-rule:nonzero;stroke:none" id="path176" data-index="82"/>
      <path d="m 18031.7,14222.2 c -3.4,52 -8.1,104.2 -14.2,156.5 68,25.2 131.3,50.3 189.8,75.4 15.8,6.8 31,13.4 45.6,20 4.2,-54.1 7,-108 8.3,-161.6 -69.6,-29.9 -146.2,-60 -229.5,-90.3 m 187.4,528.7 c -12.8,1.6 -26,3.1 -39.6,4.7 l -102.3,11.4 -21.3,100.8 c -19.6,92.2 -43.7,184.1 -72.1,274.3 -9.4,30.1 -19.4,60 -29.7,89.6 l -39.1,111.7 -32.1,91.8 143.7,-9.3 c 15.4,-37.3 30.1,-75 44.1,-113.1 5.6,-14.8 10.7,-29.6 15.9,-44.4 43.2,-123.5 79,-250.6 106.7,-381.4 9.6,-45.1 18.2,-90.4 25.8,-136.1" style="fill:#897892;fill-opacity:1;fill-rule:nonzero;stroke:none" id="path178" data-index="83"/>
      <path d="m 12266.2,13537.5 c 670.4,-53.6 1789.4,19.6 2961.9,195.8 1172.5,176.2 2263.6,435 2888.6,683.4 -5.3,90.7 -14.8,181.7 -28.3,271.8 -9,60 -20,120.3 -32.5,179.1 -26.1,123.1 -60.4,245.6 -101.8,364.1 -470.2,1343.4 -1835,2165 -3244.6,1952.8 -1409.9,-211.8 -2472.9,-1397.9 -2527.4,-2820.1 -4.7,-125.8 -1.5,-253 9.7,-377.8 5.2,-59.5 12.5,-120.3 21.7,-181 13.5,-90.1 31.2,-179.9 52.7,-268.1 z m 502,-303.1 c -238.2,0 -450.3,9.3 -629.7,28.4 l -96.2,10.3 -26.1,93.2 c -36.2,129.3 -64.8,262.8 -85,396.9 -9.9,66.4 -17.9,133.1 -23.6,198.2 -12.3,136.5 -15.9,275.9 -10.6,413.8 59.8,1559.2 1224.8,2859.3 2770.1,3091.5 1545.6,231.9 3040.9,-668.1 3556.3,-2140.7 45.5,-130 83,-264.2 111.6,-399 13.7,-64.3 25.7,-130.3 35.6,-196 v -0.1 c 20.2,-134 32.1,-270 35.4,-404.4 l 2.5,-96.7 -88.9,-38.1 c -636.6,-272.5 -1776.4,-549.3 -3049.1,-740.6 -941,-141.4 -1826.4,-216.7 -2502.3,-216.7" style="fill:#371a45;fill-opacity:1;fill-rule:nonzero;stroke:none" id="path180" data-index="84"/>
      <path d="m 9761.43,17542.4 c 802.57,-1325.9 2386.77,-2390.2 3482.37,-2289 362,33.4 558.7,321.9 834,202.4 261.7,-113.6 259.4,-593.2 -238.4,-902.6 329.8,-265.2 545.5,-213.8 802.5,-400.1 255.9,-185.5 346.6,-658.3 -81.4,-900.3 0,0 -67.5,-469.9 -601.3,-497.8 0,0 -161.7,-421 -1106.2,-318.7 -903.1,97.9 -4075.57,1065.4 -4857.19,3787.2 l 1765.62,1318.9" style="fill:#ffffff;fill-opacity:1;fill-rule:nonzero;stroke:none" id="path182" data-index="85"/>
      <path d="m 13959.2,12755 c 533.8,27.9 601.3,497.8 601.3,497.8 255.4,144.4 326,370.9 287.2,569.6 -282.5,-299.5 -1129.3,-159.9 -1541.2,-175.1 l 946.9,-345.6 c -209.3,-363.1 -567.6,-199.3 -1179.5,-245.4 l 586.1,-199.5 c 0,0 -196.3,-101.8 -915.1,44.8 -1363.5,277.9 -3893.97,1657.2 -4749.09,3321.8 781.63,-2721.7 3954.09,-3689.2 4857.19,-3787.1 944.5,-102.3 1106.2,318.7 1106.2,318.7" style="fill:#d0dae2;fill-opacity:1;fill-rule:nonzero;stroke:none" id="path184" data-index="86"/>
      <path d="m 9761.43,17542.4 c 383.77,-370.9 720.77,-752.3 1122.37,-1094 294.5,-248.6 613.9,-464.6 953.1,-644.6 432,-219.6 922.2,-399.8 1406,-353.6 260.8,30.7 517.4,298 819.3,214.7 212.3,-40.6 375.5,-255.3 378.3,-461.7 13.7,-361.8 -229.8,-634.8 -507,-801.5 l 17.7,290.5 c 227.9,-201.5 545.4,-210.6 793,-393.1 426.2,-317 373.9,-954.5 -95.9,-1201.5 l 88.7,129.9 c -3.3,-20.8 -5.3,-28.7 -8.2,-41.6 -58.8,-255.3 -253.7,-480.1 -504.6,-561 -85.1,-28.9 -171.7,-43.5 -255.7,-48 l 157.1,114.1 c -3.9,-9.7 -10,-23.5 -14.9,-32.8 -533.7,-844.3 -2207.9,-242.9 -2933.2,67.8 -904.2,393.1 -1748.45,959.3 -2381.77,1722.5 -420.4,502.1 -759.52,1111 -799.92,1775 307.67,-562.9 608.77,-1099.8 1033.41,-1573.5 841.96,-924.7 1993.28,-1530.8 3183.48,-1878.7 414.1,-116.4 1270,-318.8 1582.4,54 0,0 0.2,0.1 -0.3,-0.8 l -2.1,-5.6 157.2,114.2 c 208.8,6.9 372.2,123.2 427.2,317.6 1.3,3.1 7.2,29.1 6.9,27.5 l 88.8,129.9 c 241.6,120.1 272.9,423 78.3,589.8 -169.6,131.6 -394,151.5 -588.2,260.9 -142.6,74.1 -304.2,209.6 -434.9,302.7 143.3,95.6 362.3,220 450.4,365.4 75.9,104.9 140.6,324.5 -5.4,359.6 -81,12.8 -157.4,-35.2 -246.8,-76.3 -117.5,-58.7 -267.6,-128.8 -435.1,-148.2 -155.1,-16.5 -298.3,-10.9 -442.9,7.2 -1150.9,134.3 -2751.3,1360.3 -3086.77,2473.2" style="fill:#371a45;fill-opacity:1;fill-rule:nonzero;stroke:none" id="path186" data-index="87"/>
      <path d="m 9138.75,14161 c -0.39,17.4 -17.58,1740.8 1573.95,2324.7 l 98.3,-267.8 C 9413.31,15705 9422.93,14229.2 9424,14166.7 l -285.25,-5.7" style="fill:#371a45;fill-opacity:1;fill-rule:nonzero;stroke:none" id="path188" data-index="88"/>
      <path d="M 13248.5,13665.5 14614,13423 14507,13082.7 Z" style="fill:#371a45;fill-opacity:1;fill-rule:nonzero;stroke:none" id="path190" data-index="89"/>
      <path d="m 12880.3,13122.2 1136.3,-198.4 -114.9,-337.6 z" style="fill:#371a45;fill-opacity:1;fill-rule:nonzero;stroke:none" id="path192" data-index="90"/>
      <path d="m 24725.7,17663.6 c 847.9,326.6 2571.7,1316.4 2571.7,1316.4 1248.7,-588 1280.9,-1338.3 499,-2197.2 0,0 -1741.2,-1304.7 -3161.4,-1901.7 l 90.7,2782.5" style="fill:#ffffff;fill-opacity:1;fill-rule:nonzero;stroke:none" id="path194" data-index="91"/>
      <path d="m 24725.7,17663.6 c 847.9,326.6 2571.7,1316.4 2571.7,1316.4 1248.7,-588 1280.9,-1338.3 499,-2197.2 0,0 -1741.2,-1304.7 -3161.4,-1901.7 l 90.7,2782.5" style="fill:#ffffff;fill-opacity:1;fill-rule:nonzero;stroke:none" id="path196" data-index="92"/>
      <path d="m 27796.4,17755.2 c 0,0 -1715.1,-1285.1 -3129.3,-1888 l -32.1,-986.1 c 1420.2,597 3161.4,1901.7 3161.4,1901.7 504.4,554.2 669.3,1063 388,1512.3 -88.9,-174.6 -219.4,-354.7 -388,-539.9" style="fill:#d0dae2;fill-opacity:1;fill-rule:nonzero;stroke:none" id="path198" data-index="93"/>
      <path d="m 27297.4,18980 c 0,0 -327.6,-188.1 -767.3,-427.3 316.4,-574.4 950.4,-953.9 1710.1,-1106.3 233.5,584.3 -27.5,1102.6 -942.8,1533.6" style="fill:#d0dae2;fill-opacity:1;fill-rule:nonzero;stroke:none" id="path200" data-index="94"/>
      <path d="m 24635.1,14702.7 c -69.7,0 -135.9,41 -164.5,109.3 -38.2,90.8 4.5,195.3 95.3,233.5 1198.9,504 2653.3,1537.2 3030.7,1811.8 l -420,1849.1 c -488.2,-274.9 -1703.2,-946 -2386.8,-1209.2 -92,-35.5 -195.1,10.4 -230.5,102.3 -35.4,92 10.4,195.2 102.3,230.5 825.4,317.9 2529.9,1294.9 2547,1304.7 l 209.2,120.2 578.1,-2545.4 -92.6,-69.4 c -71.8,-53.8 -1775.1,-1324.8 -3199.2,-1923.4 -22.6,-9.5 -46,-14 -69,-14" style="fill:#371a45;fill-opacity:1;fill-rule:nonzero;stroke:none" id="path202" data-index="95"/>
      <path d="m 26412.8,15698 h -2.5 c -78.7,1.4 -141.5,66.4 -140.2,145.2 11.3,660.6 -188.7,1561 -783.8,2107.2 -58.1,53.4 -61.9,143.6 -8.6,201.7 53.3,58 143.5,61.9 201.6,8.6 664.7,-610.2 888.4,-1599.8 876.1,-2322.4 -1.3,-77.9 -64.9,-140.3 -142.6,-140.3" style="fill:#371a45;fill-opacity:1;fill-rule:nonzero;stroke:none" id="path204" data-index="96"/>
      <path d="m 25177,14796.2 c 974.7,-251.2 932.8,-1551.6 621.1,-1680.6 -335.8,-138.9 -474.5,412.8 -867.7,475.6 l 246.6,1205" style="fill:#ff5c5c;fill-opacity:1;fill-rule:nonzero;stroke:none" id="path206" data-index="97"/>
      <path d="m 25793.5,13113.8 c 1.5,0.6 3.1,1.2 4.6,1.8 281.7,116.6 343,1189.3 -366.7,1580.6 v 0 c 709.7,-391.3 648.4,-1464 366.7,-1580.6 -1.5,-0.6 -3.1,-1.2 -4.6,-1.8" style="fill:#d4ede5;fill-opacity:1;fill-rule:nonzero;stroke:none" id="path208" data-index="98"/>
      <path d="m 25750.4,13100.5 c 126.1,309.5 80.4,950.7 -344.9,1305.7 9.7,92 18.4,189 25.9,290 709.7,-391.3 648.4,-1464 366.7,-1580.6 -1.5,-0.6 -3.1,-1.2 -4.6,-1.8 -14.8,-5.8 -29.1,-10 -43.1,-13.3" style="fill:#ffbebe;fill-opacity:1;fill-rule:nonzero;stroke:none" id="path210" data-index="99"/>
      <path d="m 25116.5,14500.6 -130.6,-638.5 c 377.7,-59.9 553.4,-537.4 686.6,-517.2 94.2,14.2 -50.3,824.5 -556,1155.7" style="fill:#e23939;fill-opacity:1;fill-rule:nonzero;stroke:none" id="path212" data-index="100"/>
      <path d="m 25691.3,12949.7 c -186.6,0 -325,142.9 -440.9,262.7 -107.9,111.4 -209.8,216.8 -342.5,237.9 -77.7,12.4 -130.8,85.6 -118.3,163.4 12.4,77.9 85.7,130.8 163.4,118.4 226.4,-36.2 379.4,-194.3 502.4,-321.3 151.5,-156.4 207.8,-196.8 288.2,-163.3 37.5,15.5 127.1,187.8 106.3,483.6 -12.4,177.8 -100.4,770.2 -708.5,927 -76.3,19.6 -122.2,97.5 -102.6,173.7 19.7,76.3 97.6,122.3 173.8,102.6 630,-162.4 889.3,-717.7 922,-1183.4 22.1,-314.7 -56.5,-673.9 -281.9,-767.2 -57.6,-23.8 -111.2,-34.1 -161.4,-34.1" style="fill:#371a45;fill-opacity:1;fill-rule:nonzero;stroke:none" id="path214" data-index="101"/>
      <path d="m 22044.7,14400.8 c -796.7,-402.5 -474.9,-1700.7 -138.4,-1779.6 337.3,-79.1 574.6,763 756,800.2 l -617.6,979.4" style="fill:#ff5c5c;fill-opacity:1;fill-rule:nonzero;stroke:none" id="path216" data-index="102"/>
      <path d="m 21896.5,12789.5 c -67.7,69.8 -164.1,257.2 -196,524.8 -16.4,137.2 -39.1,542.2 209.1,810 14.6,-40.4 29.6,-79.8 45,-118.3 -244.6,-365.6 -199.4,-894.9 -58.1,-1216.5" style="fill:#ffbebe;fill-opacity:1;fill-rule:nonzero;stroke:none" id="path218" data-index="103"/>
      <path d="m 22556.4,13589.3 -275.9,437.5 c -239.6,-174.3 -522,-767.2 -357.4,-1107.1 83.2,-171.9 307.2,476.6 633.3,669.6" style="fill:#e23939;fill-opacity:1;fill-rule:nonzero;stroke:none" id="path220" data-index="104"/>
      <path d="m 21954.9,12472.7 c -26.2,0 -53.3,3 -81.2,9.6 -255.5,59.9 -415.8,455.7 -456.6,798.2 -67.8,568.8 142.7,1035.2 563.3,1247.6 70.3,35.5 156.2,7.4 191.7,-63.1 35.5,-70.3 7.3,-156.1 -63.1,-191.6 -457.7,-231.2 -428.4,-792.5 -408.5,-959.1 39.5,-331.7 178.2,-540.1 238.3,-554.2 102.7,-23.6 268.2,265.5 357.6,420.9 117.9,204.7 203.1,352.6 337.3,380.1 77.5,16 152.6,-33.9 168.4,-111 14.8,-72.4 -28,-143.2 -96.9,-164.8 -37.2,-30.8 -111.6,-160.1 -161.5,-246.7 -146.6,-254.7 -325.8,-565.9 -588.8,-565.9" style="fill:#371a45;fill-opacity:1;fill-rule:nonzero;stroke:none" id="path222" data-index="105"/>
      <path d="m 22597.2,13338.8 c -513.6,388.9 -900.3,1777.7 -837.5,3165.7 74.5,1643.9 753.8,2693 1436,2761.3 601.4,60.2 1683.6,-836.2 1979,-2527.2 245.9,-1407.7 -4.7,-2947.3 -100,-3152 -88.8,-190.5 -696.3,-419.9 -1206.4,-459.6 -522,-40.6 -1026.8,26.9 -1271.1,211.8" style="fill:#ffffff;fill-opacity:1;fill-rule:nonzero;stroke:none" id="path224" data-index="106"/>
      <path d="m 23840.7,13482.6 c 405.6,31.6 807.5,191.2 917.6,277.3 50.4,168.3 137.4,710.8 158.6,1378.7 -528.5,-563.4 -1760.5,-772.8 -2634.9,-403.4 135.2,-549.9 333,-962.5 530.5,-1112 91.9,-69.6 348,-150.9 767.3,-150.9 85.1,0 172.9,3.5 260.9,10.3" style="fill:#d0dae2;fill-opacity:1;fill-rule:nonzero;stroke:none" id="path226" data-index="107"/>
      <path d="m 25015.3,17377.5 c -419.1,1275.7 -1299.1,1940.4 -1819.6,1888.3 -572.9,-57.4 -1143.5,-806.5 -1355.8,-2018.4 645.8,365.9 2264.1,654.2 3175.4,130.1" style="fill:#ff5c5c;fill-opacity:1;fill-rule:nonzero;stroke:none" id="path228" data-index="108"/>
      <path d="m 23868.3,13127 c 510.1,39.7 1117.6,269.1 1206.4,459.6 47.1,101.2 132.1,528.8 176.4,1105.1 -1328.1,-649.3 -3193.3,-420.2 -3206.1,-418.7 146.6,-436.5 338.3,-772.2 552.2,-934.2 244.3,-184.9 749.1,-252.4 1271.1,-211.8" style="fill:#ff5c5c;fill-opacity:1;fill-rule:nonzero;stroke:none" id="path230" data-index="109"/>
      <path d="m 24878.9,14536.2 c -888.1,-315.4 -1903.9,-320.3 -2445.6,-293.4 113.9,-299.7 246.5,-519.1 379.2,-619.6 91.9,-69.6 348,-150.9 767.3,-150.9 85.1,0 172.9,3.5 260.9,10.3 405.6,31.6 807.5,191.2 917.6,277.3 34.1,113.7 84.7,398.1 120.6,776.3" style="fill:#e23939;fill-opacity:1;fill-rule:nonzero;stroke:none" id="path232" data-index="110"/>
      <path d="m 22339.3,14248 c -35.4,2.2 -68.1,4.5 -97.8,6.7 -206.8,576.5 -342.3,1387 -303.6,2241.7 13.9,306 49.7,589.9 102.6,849 75.3,32.1 157.6,63 245.7,92 -90.8,-340.4 -151.1,-728 -170.7,-1156.1 -32.8,-725.2 57.2,-1450.5 223.8,-2033.3" style="fill:#ffffff;fill-opacity:1;fill-rule:nonzero;stroke:none" id="path234" data-index="111"/>
      <path d="m 22040.5,17345.4 c 215.3,1053.3 714,1697 1173,1743 13.1,1.3 26.7,1.9 40.7,1.9 73.7,0 158.8,-17.9 251,-53.9 -120.7,-19.9 -240.7,-70.4 -357.1,-149.4 145.9,-184.8 143.8,-509.4 -23.9,-799 -152.7,-264.5 -399.2,-424.6 -618.2,-424.6 -50,0 -98.7,8.4 -144.4,25.8 -27,-80.8 -52.2,-164.8 -75.4,-251.8 -88.1,-29 -170.4,-59.9 -245.7,-92" style="fill:#ffbebe;fill-opacity:1;fill-rule:nonzero;stroke:none" id="path236" data-index="112"/>
      <path d="m 22590.9,13591 c -125.7,147.6 -246.4,376.6 -349.4,663.7 29.7,-2.2 62.4,-4.5 97.8,-6.7 71.1,-248.6 156.1,-471.3 251.6,-657" style="fill:#ffbebe;fill-opacity:1;fill-rule:nonzero;stroke:none" id="path238" data-index="113"/>
      <path d="m 22704.9,13481 c 193.2,-146.3 644.4,-215.5 1149.6,-176.2 504.8,39.3 1002.6,262 1059.2,358.5 75.2,161.5 326.9,1662 85.3,3044.6 -288.5,1651.4 -1316.6,2426.6 -1785.5,2380.5 -571.9,-57.3 -1205.4,-1042.5 -1275.6,-2592 -63.8,-1408 345.1,-2695.9 767,-3015.4 m 873.8,-543.8 c -473.2,0 -868.2,92.2 -1089.2,259.4 -573.6,434.4 -972.4,1890.9 -907.9,3316 73,1612.8 744.4,2845.4 1596.3,2930.7 687.2,68.3 1852.9,-844.3 2172.5,-2674 247.1,-1414.5 9.6,-2992.6 -114.1,-3258.1 -142.1,-305.1 -890.9,-525.9 -1354.1,-562 -104,-8.1 -205.4,-12 -303.5,-12" style="fill:#371a45;fill-opacity:1;fill-rule:nonzero;stroke:none" id="path240" data-index="114"/>
      <path d="m 24576.2,15557.9 c 0,-591.8 -479.7,-1071.5 -1071.5,-1071.5 -591.7,0 -1071.4,479.7 -1071.4,1071.5 0,591.7 479.7,1071.4 1071.4,1071.4 591.8,0 1071.5,-479.7 1071.5,-1071.4" style="fill:#d0dae2;fill-opacity:1;fill-rule:nonzero;stroke:none" id="path242" data-index="115"/>
      <path d="m 24450.1,15886.1 c 0,-555 -450,-1005 -1005,-1005 -555,0 -1004.9,450 -1004.9,1005 0,555 449.9,1004.9 1004.9,1004.9 555,0 1005,-449.9 1005,-1004.9" style="fill:#d1e0ed;fill-opacity:1;fill-rule:nonzero;stroke:none" id="path244" data-index="116"/>
      <path d="m 22480.9,15688.9 c 0,536.7 435.1,971.8 971.8,971.8 536.7,0 971.8,-435.1 971.8,-971.8 0,-10.4 -0.5,-20.8 -0.8,-31.2 17,73.4 26.4,149.8 26.4,228.4 0,555 -450,1004.9 -1005,1004.9 -555,0 -1004.9,-449.9 -1004.9,-1004.9 0,-105.6 16.3,-207.3 46.5,-302.9 -3.7,34.8 -5.8,70 -5.8,105.7" style="fill:#ffffff;fill-opacity:1;fill-rule:nonzero;stroke:none" id="path246" data-index="117"/>
      <path d="m 24334.6,16353.7 c 24.6,-83.3 38,-171.4 38,-262.7 0,-512.2 -415.3,-927.4 -927.5,-927.4 -512.2,0 -927.4,415.2 -927.4,927.4 0,91.3 13.4,179.4 37.9,262.7 -73.6,-139.7 -115.4,-298.7 -115.4,-467.6 0,-555 449.9,-1005 1004.9,-1005 555,0 1005,450 1005,1005 0,168.9 -41.9,327.9 -115.5,467.6" style="fill:#99b2c4;fill-opacity:1;fill-rule:nonzero;stroke:none" id="path248" data-index="118"/>
      <path d="m 23445.1,16748.3 c -475.4,0 -862.3,-386.8 -862.3,-862.2 0,-475.5 386.9,-862.3 862.3,-862.3 475.5,0 862.3,386.8 862.3,862.3 0,475.4 -386.8,862.2 -862.3,862.2 m 0,-2009.9 c -632.8,0 -1147.6,514.9 -1147.6,1147.7 0,632.8 514.8,1147.6 1147.6,1147.6 632.8,0 1147.7,-514.8 1147.7,-1147.6 0,-632.8 -514.9,-1147.7 -1147.7,-1147.7" style="fill:#371a45;fill-opacity:1;fill-rule:nonzero;stroke:none" id="path250" data-index="119"/>
      <path d="m 23979,15886.1 c 0,-294.9 -239,-533.9 -533.9,-533.9 -294.8,0 -533.9,239 -533.9,533.9 0,294.8 239.1,533.8 533.9,533.8 294.9,0 533.9,-239 533.9,-533.8" style="fill:#22a7f0;fill-opacity:1;fill-rule:nonzero;stroke:none" id="path252" data-index="120"/>
      <path d="m 23072.3,15504.3 c -60.7,59.3 -107.3,133 -134.3,215.6 l 592.4,692.6 c 86.8,-14 166.5,-48.7 233.9,-99.2 l -692,-809" style="fill:#a7dcf9;fill-opacity:1;fill-rule:nonzero;stroke:none" id="path254" data-index="121"/>
      <path d="m 23318.5,15367.9 c -51.2,12.5 -99.5,32.3 -143.7,58.3 l 683,798.5 c 32.7,-39.8 59.7,-84.5 79.9,-132.7 l -619.2,-724.1" style="fill:#a7dcf9;fill-opacity:1;fill-rule:nonzero;stroke:none" id="path256" data-index="122"/>
      <path d="m 23445.1,16277.2 c -215.7,0 -391.2,-175.4 -391.2,-391.1 0,-215.7 175.5,-391.2 391.2,-391.2 215.7,0 391.2,175.5 391.2,391.2 0,215.7 -175.5,391.1 -391.2,391.1 z m 0,-1067.7 c -373.1,0 -676.5,303.5 -676.5,676.6 0,373 303.4,676.5 676.5,676.5 373,0 676.6,-303.5 676.6,-676.5 0,-373.1 -303.6,-676.6 -676.6,-676.6" style="fill:#371a45;fill-opacity:1;fill-rule:nonzero;stroke:none" id="path258" data-index="123"/>
      <path d="m 21839.8,17104.5 c -49.7,0 -98,26.1 -124.2,72.4 -38.9,68.6 -14.8,155.6 53.7,194.5 727.8,412.5 2382,668.1 3317.7,129.5 68.3,-39.3 91.8,-126.5 52.5,-194.8 -39.3,-68.3 -126.4,-91.9 -194.8,-52.5 -836.5,481.4 -2380.5,240.3 -3034.7,-130.5 -22.2,-12.6 -46.4,-18.6 -70.2,-18.6" style="fill:#371a45;fill-opacity:1;fill-rule:nonzero;stroke:none" id="path260" data-index="124"/>
      <path d="m 22853.3,14088.5 c -467.7,0 -794.3,39 -826.2,43 -78.2,9.7 -133.7,81 -123.9,159.2 9.6,78.1 80.7,133.8 159.1,124 18.2,-2.3 1848.3,-219.5 3126.2,405.2 70.8,34.6 156.2,5.3 190.8,-65.5 34.6,-70.8 5.3,-156.2 -65.5,-190.8 -802.9,-392.6 -1780.7,-475.1 -2460.5,-475.1" style="fill:#371a45;fill-opacity:1;fill-rule:nonzero;stroke:none" id="path262" data-index="125"/>
      <path d="m 23385.7,14250.4 c 59.4,180.6 509.3,171.6 579.2,62.7 69.9,-108.9 223.4,-1329.3 202.5,-1508.2 -20.9,-179.1 -484.9,-265.9 -572.2,-85.4 -80.3,165.7 -268.8,1350.3 -209.5,1530.9" style="fill:#ff5c5c;fill-opacity:1;fill-rule:nonzero;stroke:none" id="path264" data-index="126"/>
      <path d="m 23385.7,14250.4 c 59.4,180.6 509.3,171.6 579.2,62.7 69.9,-108.9 223.4,-1329.3 202.5,-1508.2 -20.9,-179.1 -484.9,-265.9 -572.2,-85.4 -80.3,165.7 -268.8,1350.3 -209.5,1530.9" style="fill:#ff5c5c;fill-opacity:1;fill-rule:nonzero;stroke:none" id="path266" data-index="127"/>
      <path d="m 24142.2,13227.5 c -35.8,236.7 -73.3,430.6 -99.2,471 -31.7,49.3 -141.3,78.2 -257.3,78.2 -140,0 -289.4,-42.1 -321.9,-140.9 -15.4,-46.9 -14,-161.7 -2.2,-308.4 -3.6,21.8 -7,43.8 -10.5,65.8 -31.7,259 -46.9,486 -23.5,557.1 32.5,98.8 181.9,140.9 322,140.9 115.9,0 225.5,-28.9 257.2,-78.2 25.5,-39.8 62.2,-227.8 97.4,-459.1 14.4,-112 27.4,-223.8 38,-326.4" style="fill:#ffbebe;fill-opacity:1;fill-rule:nonzero;stroke:none" id="path268" data-index="128"/>
      <path d="m 23960.2,14319.2 c 52.3,-374.8 95.1,-800.1 83.4,-900.1 -20.9,-179.1 -484.9,-266 -572.3,-85.5 -5.7,11.9 -12.1,29.6 -18.9,51.4 9.7,-61.9 19.8,-122.8 30.1,-181.4 20,-87.5 38.5,-153.1 53.3,-183.7 87.4,-180.4 551.4,-93.6 572.3,85.5 14.3,122.7 -53.4,735.3 -119.9,1143.2 -8.4,31.1 -16.3,53.6 -23.3,64.5 -1.3,2.1 -3,4.1 -4.7,6.1" style="fill:#e23939;fill-opacity:1;fill-rule:nonzero;stroke:none" id="path270" data-index="129"/>
      <path d="m 23856.9,14222.2 z m -335.9,-18 c -37.5,-169 132.9,-1278.7 202.6,-1422.6 5.9,-5.9 50.3,-25 130.8,-17.2 95.5,9.2 157.4,46.5 171.9,63.7 14.3,178.7 -120.2,1216.7 -180.1,1400.3 -75.6,36.5 -287.1,22.6 -325.2,-24.2 z m 294.3,-1727.4 c -163.8,0 -292.5,64.8 -348.6,180.4 -81.9,169.4 -293.6,1403.3 -216.5,1637.8 41.5,126.1 167.3,208.7 354.3,232.5 134.4,17.2 387.5,7.5 480.5,-137.4 104.7,-163 243.4,-1436.9 224.1,-1601.7 -17.2,-147.3 -165.5,-265.6 -377.7,-301.5 -40.2,-6.8 -79.1,-10.1 -116.1,-10.1" style="fill:#371a45;fill-opacity:1;fill-rule:nonzero;stroke:none" id="path272" data-index="130"/>
      <path d="m 21782.7,16827.1 c 464,0 590.5,-466.6 316.7,-721.2 197.7,-115.1 270.6,-459.4 47.7,-696.7 164.8,-152.4 240.7,-594.4 -221.5,-717.5 -446.2,-118.8 -850.5,262.5 -882.3,967.6 -33.8,746.7 295.4,1167.8 739.4,1167.8" style="fill:#ffffff;fill-opacity:1;fill-rule:nonzero;stroke:none" id="path274" data-index="131"/>
      <path d="m 22147.1,15409.2 c 222.9,237.3 150,581.5 -47.7,696.7 273.8,254.6 147.3,721.2 -316.7,721.2 -63.9,0 -125.3,-9 -183.7,-26.2 267,-125.1 306.7,-468.2 85.8,-673.5 197.8,-115.2 270.7,-459.5 47.7,-696.7 162,-149.9 237.8,-579.4 -199,-710.8 120.2,-53.7 254.1,-64.9 392.1,-28.2 462.2,123.1 386.3,565.1 221.5,717.5" style="fill:#d0dae2;fill-opacity:1;fill-rule:nonzero;stroke:none" id="path276" data-index="132"/>
      <path d="m 21782.7,16648.7 c -131.5,0 -244.9,-48.8 -337,-145.1 -161.3,-168.8 -241,-465.9 -224.3,-836.3 15.3,-338.1 126.5,-607.1 305.1,-738.1 104.2,-76.4 226.3,-98.9 353.2,-65.1 119,31.7 189.6,89.6 210.1,172.2 24,97.1 -21.6,202.9 -63.8,241.9 l -132,122 123.1,131.1 c 93,99 93.5,205.5 85.6,260.2 -10.4,71.5 -46.1,133 -93.1,160.3 l -207.7,121 176.1,163.7 c 78.3,72.9 106.3,177.5 71.3,266.5 -36.4,92.6 -133.6,145.7 -266.6,145.7 z m -16.6,-2156.7 c -160.7,0 -315.8,50.8 -450.4,149.5 -266.2,195.2 -430.4,563.2 -450.6,1009.7 -21.5,475.5 90.2,855.5 322.8,1098.8 159.7,167.1 365.4,255.4 594.8,255.4 283.3,0 507.1,-139 598.6,-371.9 66,-168 48.4,-353.6 -41.3,-509 59.6,-79 100.3,-176.3 115.6,-281.6 22,-150.6 -9,-302 -85.8,-432.4 76.9,-135.4 104.2,-307 66.2,-460 -30.5,-122.9 -131.3,-342.3 -464.5,-431.1 -68.7,-18.3 -137.5,-27.4 -205.4,-27.4" style="fill:#371a45;fill-opacity:1;fill-rule:nonzero;stroke:none" id="path278" data-index="133"/>
      <path d="m 21358.5,16154.8 740.9,-48.9" style="fill:#ffffff;fill-opacity:1;fill-rule:nonzero;stroke:none" id="path280" data-index="134"/>
      <path d="m 21358.5,16154.8 752.6,129.1 -23.5,-356 z" style="fill:#371a45;fill-opacity:1;fill-rule:nonzero;stroke:none" id="path282" data-index="135"/>
      <path d="m 21373.6,15409.2 h 773.5" style="fill:#ffffff;fill-opacity:1;fill-rule:nonzero;stroke:none" id="path284" data-index="136"/>
      <path d="m 21373.6,15409.2 773.5,178.3 v -356.7 z" style="fill:#371a45;fill-opacity:1;fill-rule:nonzero;stroke:none" id="path286" data-index="137"/>
      <path d="m 31104.3,19462.7 c 0,0 1938.5,280.4 2442.6,64.1 810.3,-347.8 1071.2,-5236.8 649,-6142.6 -429.9,-922.4 -2126.2,-645.6 -2126.2,-645.6 l -965.4,6724.1" style="fill:#ffffff;fill-opacity:1;fill-rule:nonzero;stroke:none" id="path288" data-index="138"/>
      <path d="m 33309.6,14019.3 c -612.2,597.6 294.8,4366.9 -289.1,5010.7 -489.7,540 -1252.3,333.2 -1857.3,22.6 l 906.5,-6314 c 0,0 1696.3,-276.8 2126.2,645.6 63.6,136.4 111.5,363.5 144.6,651.3 -363.7,-119.6 -827.6,-214.8 -1030.9,-16.2" style="fill:#d0dae2;fill-opacity:1;fill-rule:nonzero;stroke:none" id="path290" data-index="139"/>
      <path d="m 32628.1,12520.7 c -320.3,0 -560.5,37.6 -587.1,41.9 -97.2,15.9 -163.2,107.5 -147.3,204.7 15.8,97.3 107.2,163 204.7,147.3 15.6,-2.5 1568.3,-243.8 1935.9,544.9 332.2,712.9 209.9,4167.2 -293.6,5486.2 -128.6,337.1 -234.7,404.5 -264.2,417.2 -333.4,143 -1616.3,28.9 -2346.6,-76.7 -97.5,-14.4 -188,53.5 -202.1,151 -14.1,97.5 53.5,187.9 151,202 203.5,29.5 2003.6,281.2 2538.4,51.4 177.8,-76.3 327.3,-278.3 456.8,-617.7 243.4,-637.6 423.5,-1794.3 481.9,-3094.4 44.4,-989.5 15.7,-2210.5 -198.3,-2669.7 -310.1,-665.1 -1150.4,-788.1 -1729.5,-788.1" style="fill:#371a45;fill-opacity:1;fill-rule:nonzero;stroke:none" id="path292" data-index="140"/>
      <path d="m 27006.4,13344.9 c -864,-1189 -933.8,-3060.3 827.7,-3221 1865,-170 3109.7,870.9 3109.7,870.9 -188.7,1658.9 -1650,2326.3 -3937.4,2350.1" style="fill:#ffffff;fill-opacity:1;fill-rule:nonzero;stroke:none" id="path294" data-index="141"/>
      <path d="m 28277.9,10892.8 c -698.8,240.9 -1507.5,579.4 -1780.1,189.6 164.4,-507.7 582.6,-889.7 1336.3,-958.5 1865,-170 3109.7,870.9 3109.7,870.9 -3.7,32.4 -8.7,63.6 -13.4,95.2 -127.1,178.9 -216.9,302.3 -216.9,302.3 0,0 -1267.3,-902.3 -2435.6,-499.5" style="fill:#d0dae2;fill-opacity:1;fill-rule:nonzero;stroke:none" id="path296" data-index="142"/>
      <path d="m 28250.3,9926.6 c -140.1,0 -284.3,6.2 -432.4,19.7 -871.9,79.5 -1255.5,538.6 -1423.8,909.7 -325.6,718.1 -137.5,1760.4 468,2593.7 57.9,79.7 169.5,97.3 249.1,39.5 79.7,-58 97.4,-169.5 39.5,-249.2 -524.3,-721.4 -701.8,-1641.2 -431.8,-2236.7 187.9,-414.3 568.6,-650.4 1131.4,-701.8 1770.1,-161.2 2967.2,820.2 2979.1,830.1 75.5,63.2 188,53.2 251.2,-22.4 63.2,-75.5 53.2,-188 -22.4,-251.2 -49,-41 -1134.5,-931.4 -2807.9,-931.4" style="fill:#371a45;fill-opacity:1;fill-rule:nonzero;stroke:none" id="path298" data-index="143"/>
      <path d="m 27078.3,10381.2 c -90.7,0 -180.1,5.4 -267.5,16.4 -78.2,9.9 -133.5,81.3 -123.6,159.5 9.9,78.2 81.3,133.6 159.5,123.6 992.2,-125.9 2330,599.1 2602.8,1409.9 25.1,74.7 106,114.9 180.8,89.7 74.6,-25.1 114.8,-106 89.6,-180.7 -290.5,-863.5 -1562.3,-1618.4 -2641.6,-1618.4" style="fill:#371a45;fill-opacity:1;fill-rule:nonzero;stroke:none" id="path300" data-index="144"/>
      <path d="m 27161.3,17990.2 c -991,-2777.6 -837.4,-6071.6 2372.8,-5834.3 0,0 593.2,-1465.5 1968,-1800.5 1357.7,-330.8 2376.8,604.8 2376.8,604.8 0,0 693.4,-895.3 1503.4,-530.4 1177.1,530.4 -43.7,2946.7 -1011.9,3031.1 -346.6,30.3 -1109.7,-355.9 -1277.1,-330.3 -107.1,16.4 -342,323.4 -342,323.4 0,0 244.3,1737.7 -551.3,3768.5 -851.4,3126.5 -5133.7,2973 -5038.7,767.7" style="fill:#ffffff;fill-opacity:1;fill-rule:nonzero;stroke:none" id="path302" data-index="145"/>
      <path d="m 27161.3,17990.2 c -991,-2777.6 -837.4,-6071.6 2372.8,-5834.3 0,0 593.2,-1465.5 1968,-1800.5 1357.7,-330.8 2376.8,604.8 2376.8,604.8 0,0 693.4,-895.3 1503.4,-530.4 1177.1,530.4 -43.7,2946.7 -1011.9,3031.1 -346.6,30.3 -1109.7,-355.9 -1277.1,-330.3 -107.1,16.4 -342,323.4 -342,323.4 0,0 244.3,1737.7 -551.3,3768.5 -390.8,4280.3 -5133.7,2973 -5038.7,767.7" style="fill:#ffffff;fill-opacity:1;fill-rule:nonzero;stroke:none" id="path304" data-index="146"/>
      <path d="m 35232.9,10857.3 c 147.9,747.3 -837.1,1405.6 -837.1,1405.6 0,0 -366.2,-1128.4 -1714.3,-1118.9 -764.2,5.4 -2058.7,631.6 -1913.5,-340.3 -539.5,288 -968.7,994.1 -1056,1352.2 1424.6,460.6 1852.9,1189 1852.9,1189 0,0 -2693.8,-944.7 -4539.8,-33.9 427.8,-778.1 1222.9,-1250.1 2509,-1155.1 0,0 593.2,-1465.5 1968,-1800.5 1357.7,-330.8 2376.8,604.8 2376.8,604.8 0,0 1232.3,-718.2 1354,-102.9" style="fill:#d0dae2;fill-opacity:1;fill-rule:nonzero;stroke:none" id="path306" data-index="147"/>
      <path d="m 26623.6,15064.2 c 5.4,-347.1 42,-678.8 114.3,-985.9 2205.4,-734.2 5114.4,132.1 6038.7,447.5 -11.1,223.8 -32.7,475.9 -70.6,749.8 -1029.7,-39.3 -4718.6,-178.9 -6082.4,-211.4" style="fill:#d0dae2;fill-opacity:1;fill-rule:nonzero;stroke:none" id="path308" data-index="148"/>
      <path d="m 31358.2,14406.6 c 0,0 37.4,-757.8 -149.2,-889.8 -369.9,-261.7 -3021.4,-200.8 -3412.6,-196 -231.6,2.9 -265.2,141.2 -265.2,624 l 3827,461.8" style="fill:#d0dae2;fill-opacity:1;fill-rule:nonzero;stroke:none" id="path310" data-index="149"/>
      <path d="m 31917.8,18456.3 c -1110.1,2742.3 -4840.9,1492.3 -4756.5,-466.1 -10.6,-29.8 -20.9,-59.8 -31.3,-89.7 1170.4,-817.9 3342.5,-729.9 4787.8,555.8" style="fill:#d0dae2;fill-opacity:1;fill-rule:nonzero;stroke:none" id="path312" data-index="150"/>
      <path d="m 27161.3,17990.2 c -46.6,-654 -240.1,-1253.9 -310.9,-1896.4 -38.6,-313.9 -54,-629.3 -50.7,-942.2 36.6,-1882.3 892.5,-2959 2855.5,-2812.1 159.2,-428 432.5,-819.9 750.4,-1145.2 579.7,-605.1 1448.6,-871 2259.5,-657.9 396.3,97.6 780.2,293.4 1093.2,555.2 l 144.6,125.3 c 322.4,-453.2 942.5,-922 1494.2,-576.2 217.2,138 293,391.9 289.4,646.7 -20.5,665.3 -431.4,1433 -962.6,1837.5 -259.4,186.5 -428.8,187 -716.2,97.4 -234.2,-68 -471.6,-167 -711.3,-238.4 -86.5,-22.7 -183.9,-48.7 -273.7,-18.3 -113.8,43.7 -174.5,113 -251.9,190.7 -73.5,77.9 -139.8,160.9 -205.3,246 43.1,329.6 48.9,670.9 36.9,1004.6 -23.2,626 -115.7,1251.4 -278.3,1856.7 -76.3,303.3 -184.2,608.4 -293.1,901.9 -74.4,220 246.3,343.5 335,122 466.5,-1221.9 691.1,-2552.1 561.9,-3858.3 l -35,133.1 c 70.6,-87.9 149.2,-185.7 237.4,-253.8 7.3,-5.6 16.4,-9 3.9,-4.1 -4.5,2.7 -12.8,1.2 -15.9,4.1 l -2.3,0.3 c 0,0 -3.6,-1.4 0.8,-0.3 12.2,2.9 20.4,2.7 36.1,6.7 335,90.8 649,245.5 998.3,307.7 992,192.1 1913.4,-1480 1892,-2332.8 14.1,-1119.4 -1147.5,-1437.3 -1941.8,-790.5 -136.1,105.7 -253.9,216.6 -363.5,351.4 l 261.6,-22.2 c -718,-609.7 -1734.5,-887.7 -2651.3,-616.2 -859.2,252.7 -1504.4,938 -1902.9,1712.5 -26.7,53.3 -50.8,102.7 -76.5,163.9 l 178.4,-110.9 c -2644.7,-239.9 -3388,1921.1 -3011.9,4159.6 112.6,646.6 244.6,1302.3 626,1852.5" style="fill:#371a45;fill-opacity:1;fill-rule:nonzero;stroke:none" id="path314" data-index="151"/>
      <path d="m 30986.7,10495 c -98.5,0 -189,14.1 -268.3,43.5 -73.9,27.4 -111.6,109.5 -84.2,183.4 27.4,73.9 109.6,111.6 183.4,84.2 293.9,-109 874.7,112.1 1351.4,514 290.3,244.7 947.9,908.7 784,1784.2 -14.5,77.5 36.5,152 114,166.5 77.6,14.6 152,-36.5 166.5,-113.9 134.8,-720.4 -186.1,-1469.4 -880.6,-2055 -453.3,-382.2 -973.7,-606.9 -1366.2,-606.9" style="fill:#371a45;fill-opacity:1;fill-rule:nonzero;stroke:none" id="path316" data-index="152"/>
      <path d="m 34213.4,11824.4 c 37.6,-332.3 -42,-672.4 -191.8,-971.2 l -285.4,214 c 224.5,199.9 398.9,463.9 477.2,757.2" style="fill:#371a45;fill-opacity:1;fill-rule:nonzero;stroke:none" id="path318" data-index="153"/>
      <path d="m 29497.1,12330.4 c 407,42.3 809.5,134.9 1186.2,299.3 126.4,55.9 251.3,117.9 367.5,196.2 -302.2,-302.4 -681.4,-521.6 -1072.6,-691.7 -132.8,-58.4 -269.5,-105.9 -407.1,-152.8 l -74,349" style="fill:#371a45;fill-opacity:1;fill-rule:nonzero;stroke:none" id="path320" data-index="154"/>
      <path d="m 27242.7,15442.9 c -385,-81.4 -611.7,35.2 -611.7,35.2 -445.6,-81.5 -462.4,-761 31.9,-919 164,-52.4 624,-77.5 624,-77.5 l -44.2,961.3" style="fill:#ffffff;fill-opacity:1;fill-rule:nonzero;stroke:none" id="path322" data-index="155"/>
      <path d="m 27242.7,15442.9 c -4,-0.8 -7.7,-1.3 -11.7,-2.2 l 25.7,-559.6 c 0,0 -460.1,25.1 -624.1,77.5 -149.6,47.9 -252.1,143.6 -310.3,255.9 -83.9,-235.3 22.1,-553.6 340.6,-655.4 164,-52.4 624,-77.5 624,-77.5 l -44.2,961.3" style="fill:#d0dae2;fill-opacity:1;fill-rule:nonzero;stroke:none" id="path324" data-index="156"/>
      <path d="m 27287.1,14303.2 c -3.3,0 -6.6,0.1 -9.9,0.3 -49.4,2.7 -488.1,28 -668.6,85.8 -363.2,116 -508.3,438.6 -491.1,706.7 18.6,288.6 207.5,507.4 481.4,557.5 l 59.7,10.9 53.9,-27.7 c 5.1,-2.4 183.7,-84.9 493.4,-19.3 95.8,20.2 191,-41.2 211.4,-137.6 20.3,-96.4 -41.3,-191 -137.6,-211.4 -321.3,-67.8 -550.9,-15.6 -660.4,22.3 -124.5,-46.8 -143.2,-175.8 -145.8,-217.6 -7.8,-120.3 51.4,-282.6 243.7,-344.1 103.4,-33.1 410.3,-60.1 579.5,-69.3 98.3,-5.4 173.7,-89.5 168.3,-187.8 -5.2,-95 -83.9,-168.6 -177.9,-168.7" style="fill:#371a45;fill-opacity:1;fill-rule:nonzero;stroke:none" id="path326" data-index="157"/>
      <path d="m 30510,13894.3 -2836.1,-175.4 c -301.8,-17.9 -534.7,201.9 -552.4,488.1 l -97,1568.7 c -17.7,286.1 186.8,533 488,552.4 l 2836.1,175.4 c 286.2,17.7 534.8,-201.9 552.5,-488.1 l 97,-1568.7 c 17.7,-286.1 -196,-533.8 -488.1,-552.4" style="fill:#ffffff;fill-opacity:1;fill-rule:nonzero;stroke:none" id="path328" data-index="158"/>
      <path d="m 27121.5,14207 -55.2,892.7 c 182.6,-997.1 1511.5,-666.9 1682.6,0 96.1,374.8 1103.8,283.7 1124.2,-6.9 45.6,-649.1 229.3,-396.9 366.4,363.8 0,0 465,304.3 704.9,-142 l 53.7,-867.9 c 17.7,-286.1 -196,-533.8 -488.1,-552.4 l -2836.1,-175.4 c -301.8,-17.9 -534.7,201.9 -552.4,488.1" style="fill:#d0dae2;fill-opacity:1;fill-rule:nonzero;stroke:none" id="path330" data-index="159"/>
      <path d="m 30381,16326.2 c -7,0 -14.2,-0.3 -21.4,-0.7 l -2836.1,-175.4 c -194.9,-12.5 -333.1,-168.8 -321,-363.4 l 97,-1568.7 c 12.1,-194.6 168.3,-332.7 363.9,-321.1 l 2835.3,175.4 c 192,12.2 333.2,171.9 321.3,363.4 l -97,1568.7 c -11.2,181.6 -162.5,321.8 -342,321.8 z m 129,-2431.9 h 0.5 z m -2869.2,-354.7 c -371.8,0 -674.1,280.6 -697.4,656.3 l -97,1568.8 c -24.1,390.6 263.4,716.2 654.7,741.4 l 2836.6,175.4 c 185.3,11.3 365.6,-50.4 505.9,-174.5 140.4,-123.9 224,-294.6 235.5,-480.6 l 97,-1568.7 c 23.7,-384.2 -270,-716.8 -654.7,-741.4 h -0.4 l -2836.1,-175.4 c -14.8,-0.9 -29.5,-1.3 -44.1,-1.3" style="fill:#371a45;fill-opacity:1;fill-rule:nonzero;stroke:none" id="path332" data-index="160"/>
      <path d="m 29754.2,13669.1 c -93.6,0 -172.1,72.9 -177.9,167.5 -6,98.3 68.8,182.9 167.1,188.9 103.9,6.4 200.8,54.7 272.6,136.1 74.3,84.1 112.9,195.1 106,304.8 l -89.2,1442.3 c -12,194.5 -161.4,353.4 -355.1,377.7 -97.7,12.3 -167,101.5 -154.7,199.2 12.3,97.8 100.9,166.9 199.2,154.7 363.7,-45.7 644,-344.2 666.6,-709.6 l 89.3,-1442.2 c 12.6,-203.3 -58.3,-408.6 -194.7,-563 -135,-152.9 -319.1,-243.8 -518.1,-256 -3.7,-0.2 -7.5,-0.4 -11.1,-0.4" style="fill:#371a45;fill-opacity:1;fill-rule:nonzero;stroke:none" id="path334" data-index="161"/>
      <path d="m 28486.6,13626.5 c -75.8,0 -138.9,59.5 -142.5,136 l -38.3,818.3 c -6.4,66.3 -45,124.8 -103.6,156.7 l -154.2,84.2 c -147.1,80.3 -241.4,228 -252.3,395.1 l -49.6,1128.3 c -3.4,78.7 57.6,145.3 136.3,148.8 78.5,3.9 145.3,-57.6 148.8,-136.3 l 49.4,-1125.3 c 4.3,-65.9 43.3,-127 104,-160.1 l 154.2,-84.2 c 143.6,-78.3 237.6,-222.3 251.6,-385.3 0.2,-1.8 0.3,-3.6 0.3,-5.4 l 38.5,-821.5 c 3.6,-78.7 -57.2,-145.5 -135.9,-149.2 -2.3,-0.1 -4.5,-0.1 -6.7,-0.1" style="fill:#371a45;fill-opacity:1;fill-rule:nonzero;stroke:none" id="path336" data-index="162"/>
      <path d="m 29003.4,15111.2 c 3.7,-53.3 107.7,-478.6 107.7,-478.6 0,0 136.3,9.2 303.7,20.5 209.1,14.2 364,242.2 346,509.3 -18.1,267.1 -202.3,472.2 -411.4,458 -141.1,-9.5 -303.7,-20.5 -303.7,-20.5 0,0 -48.1,-401.9 -42.3,-488.7" style="fill:#22a7f0;fill-opacity:1;fill-rule:nonzero;stroke:none" id="path338" data-index="163"/>
      <path d="m 29003.4,15111.2 c 3.7,-53.3 107.7,-478.6 107.7,-478.6 0,0 136.3,9.2 303.7,20.5 209.1,14.2 364,242.2 346,509.3 -18.1,267.1 -202.3,472.2 -411.4,458 -141.1,-9.5 -303.7,-20.5 -303.7,-20.5 0,0 -48.1,-401.9 -42.3,-488.7" style="fill:#1675db;fill-opacity:1;fill-rule:nonzero;stroke:none" id="path340" data-index="164"/>
      <path d="m 29147.8,15551.6 v -0.2 z m -37.6,-432.6 c 2.6,-23.5 29.8,-149.4 83.7,-373.5 l 213.7,14.4 c 147.4,10 260.2,191 246.4,395.3 -7.1,105.4 -45.1,201.4 -106.9,270.2 -55.2,61.5 -123.1,93.1 -190.5,88.2 l -214.8,-14.5 c -21.5,-192.4 -34,-341.7 -31.6,-380.1 z m 30.5,-377.1 -0.1,-0.1 z m 3.9,-213.9 c -69.1,0 -129.7,47 -146.2,115.1 -97.8,403.6 -100.8,446.7 -101.7,460.8 v 0.1 c -4.9,72.2 18.2,296.5 38.5,472 8.2,72.2 67,128.2 139.7,133.1 l 267.3,18.1 c 135.1,9 264,-47.3 364.1,-158.8 93.6,-104.2 150.9,-245.8 161.3,-398.8 21.9,-325.5 -177.9,-605.1 -445.6,-623.3 l -266.8,-18 c -3.6,-0.2 -7.1,-0.3 -10.6,-0.3" style="fill:#371a45;fill-opacity:1;fill-rule:nonzero;stroke:none" id="path342" data-index="165"/>
      <path d="m 28699.7,15090.6 c 18.1,-267.1 202.3,-472.1 411.4,-458 209.1,14.2 364,242.1 346,509.2 -18.1,267.2 -202.3,472.2 -411.4,458.1 -209.1,-14.2 -364,-242.2 -346,-509.3" style="fill:#22a7f0;fill-opacity:1;fill-rule:nonzero;stroke:none" id="path344" data-index="166"/>
      <path d="m 29457,15141.8 c 18.2,-267 -136.7,-495.1 -345.8,-509.3 -209.4,-14.2 -393.5,191 -411.4,458.3 -2.6,36 -1.7,71.6 2.1,105.9 66.2,-179.8 213.5,-301.2 375.9,-289.9 180.6,12.2 321,183.9 343.8,403 19.1,-51.8 31.2,-108.4 35.4,-168" style="fill:#1675db;fill-opacity:1;fill-rule:nonzero;stroke:none" id="path346" data-index="167"/>
      <path d="m 29457,15141.8 c 1.3,-18.2 1.7,-36.2 1.1,-54 -55.7,206.5 -214.8,351.2 -391.4,339.1 -194.8,-13.3 -342.9,-212.2 -346.9,-455.6 -10.4,38.2 -17.1,78 -20,119.5 -18.2,266.9 136.7,495 345.8,509.2 209.1,13.9 393.3,-191 411.4,-458.2" style="fill:#ffffff;fill-opacity:1;fill-rule:nonzero;stroke:none" id="path348" data-index="168"/>
      <path d="m 28806.5,15097.9 c 7.1,-105.5 45.1,-201.5 106.9,-270.3 55.2,-61.4 122.5,-92.7 190.5,-88.2 67.6,4.5 130.4,44.7 176.9,113.1 51.9,76.5 76.6,176.7 69.5,282.1 -13.8,204.3 -148.7,369 -297.4,358.5 -147.4,-9.9 -260.2,-191 -246.4,-395.2 z m 283.6,-573 c -124.4,0 -242.8,56 -335.9,159.8 -93.6,104.2 -150.9,245.8 -161.3,398.7 -21.9,325.5 177.9,605.1 445.6,623.3 268.8,17.3 503.3,-232.1 525.3,-557.6 10.3,-153 -27.3,-301 -106,-416.9 -84.2,-123.9 -204.8,-197.2 -339.5,-206.4 -9.4,-0.6 -18.8,-0.9 -28.2,-0.9" style="fill:#371a45;fill-opacity:1;fill-rule:nonzero;stroke:none" id="path350" data-index="169"/>
      <path d="m 30923.9,15646.4 c -450,-168.6 -359.3,-759.5 51.8,-838 361.2,-72.7 1417.4,97.2 1757.5,251.5 427.9,194.2 372.9,766.9 -131.8,816.3 0,0 -494.5,-172.7 -1677.5,-229.8" style="fill:#ffffff;fill-opacity:1;fill-rule:nonzero;stroke:none" id="path352" data-index="170"/>
      <path d="m 32950.8,15691.1 c -41.4,-104.4 -126.9,-199.2 -257.8,-258.6 -340.1,-154.4 -1396.2,-324.2 -1757.4,-251.6 -129.9,24.8 -227.7,100.8 -286.6,198.4 -81.6,-232.2 49.6,-517.9 326.7,-570.9 361.2,-72.7 1417.4,97.2 1757.5,251.5 287.9,130.7 356.8,432.5 217.6,631.2" style="fill:#d0dae2;fill-opacity:1;fill-rule:nonzero;stroke:none" id="path354" data-index="171"/>
      <path d="m 30963,15469.8 c -156.5,-70.1 -163.6,-200.1 -159,-254.6 7.7,-90.2 66,-205 205.2,-231.6 322,-65 1342.5,99.1 1650.3,238.7 155.6,70.6 194.1,196.4 179.8,282.7 -16.4,98.8 -98.5,168 -222.1,189.3 -144.9,-43 -657.8,-174.3 -1654.2,-224.5 z m 243.8,-856.8 c -104.6,0 -195.8,6.4 -266.2,20.5 -270,51.7 -468.4,273.4 -492,551.6 -23.7,278.9 138.3,525.5 412.8,628.3 l 26.1,9.8 27.8,1.3 c 1133.7,54.7 1623,218.6 1627.8,220.3 l 36.7,12.5 39,-3.6 c 303.3,-29.7 527.9,-222.2 572.4,-490.4 45.3,-273.4 -109.1,-540.9 -384.3,-665.8 -310.9,-141.1 -1105.2,-284.5 -1600.1,-284.5" style="fill:#371a45;fill-opacity:1;fill-rule:nonzero;stroke:none" id="path356" data-index="172"/>
      <path d="m 31506.8,19209.1 c 1195.6,-69.8 3273.7,-732.2 4433.8,-2144.8 764.2,-930.5 970,-2654.2 129.1,-2713.6 -227.7,-220.7 -607.2,-160.5 -794.3,-60.7 -458.4,-148.6 -772.4,69.5 -884.1,341.1 -194.5,473.2 -85.5,1049.1 -244.2,1174.7 -109,86.2 -530.4,-362.9 -896.8,-244.2 -366.4,118.6 -295.5,524.5 -115.2,729.2 0,0 -932.8,631.6 -1926.1,1099.2 l 297.8,1819.1" style="fill:#ffffff;fill-opacity:1;fill-rule:nonzero;stroke:none" id="path358" data-index="173"/>
      <path d="m 33250.3,15561.6 c 366.4,-118.7 787.8,330.4 896.8,244.2 158.7,-125.6 49.7,-701.5 244.2,-1174.7 111.7,-271.6 425.7,-489.7 884.1,-341 187.1,-99.9 566.6,-160.1 794.3,60.6 313.6,22.2 481.6,275.9 529.4,633.5 -249.3,-358.2 -585.2,-82.8 -585.2,-82.8 -38.4,-320.4 -509.5,-355.3 -635.3,112.2 -115.4,-275.7 -326.9,-392.2 -512.7,-222.5 -289.7,264.5 -120.9,1285.5 -434.9,1432.1 -314.1,146.5 -1064.3,-563 -1229.6,-235.9 -165.2,327 740.4,717.4 740.4,717.4 -785.7,92.1 -1061.4,626 -2732.8,685.3 993.3,-467.6 1926.1,-1099.2 1926.1,-1099.2 -180.3,-204.7 -251.2,-610.6 115.2,-729.2" style="fill:#d0dae2;fill-opacity:1;fill-rule:nonzero;stroke:none" id="path360" data-index="174"/>
      <path d="m 31310.2,18008.3 c 435.1,263.6 833.8,611.9 1161.6,1051.2 -354.7,83.7 -684.3,133.2 -965,149.6 l -196.6,-1200.8" style="fill:#d0dae2;fill-opacity:1;fill-rule:nonzero;stroke:none" id="path362" data-index="175"/>
      <path d="m 31517.1,19387.2 c 1531.5,-126.5 3143.1,-788.9 4250.2,-1868.8 523.7,-497.2 870.7,-1166.1 987.3,-1875.6 101.5,-538 37,-1415 -672.4,-1470 l 111.6,49.9 c -133.4,-131.2 -323.3,-195.3 -503.2,-200.3 -177.1,-3.5 -338.1,28.5 -499.1,110.3 l 138.9,-12.3 c -408.1,-146.7 -905.1,-9.4 -1092.7,416.7 -117.1,272.9 -139,535 -160.9,812.6 -7.9,106 -18.8,250.3 -45.3,320.2 11,-10.4 30.8,-21.1 43.8,-25.3 24.5,-7.8 38.3,-6 43.4,-5.7 -36,-12.8 -113.4,-55.8 -164.9,-84.4 -171.2,-93.3 -349,-186.2 -563,-191.3 -247.1,-7.7 -510.3,156.6 -565.3,408.4 -51.1,239.8 26.1,456.7 175.8,637.1 l 33.8,-265.5 c -612.4,386.5 -1237.4,821.4 -1826.1,1246.8 365.2,-91.7 713.3,-233.2 1053.3,-392.2 398.6,-188.8 783.7,-409.5 1136.2,-677.9 l -129.6,-147 c -98.3,-120.1 -162.7,-320.3 -27.5,-412.1 174.3,-105.6 372.2,18.9 540.5,106.2 126.5,63.1 246.5,161.4 407.4,115.6 137,-44.5 197.3,-216.7 214.2,-333.4 74.8,-536.9 -2.2,-1423.8 816.9,-1189.5 l 71.3,23.3 c 182.2,-114.4 490.8,-160.7 653.9,-4.2 l 45.9,44.9 65.7,4.9 c 283.9,20.1 358.8,329.7 375.1,586.1 22.3,622.2 -215.5,1290.2 -590.7,1787.6 -1003.2,1239.3 -2775,1998.9 -4345.2,2128.8 -233.4,17.9 -217.9,363.7 20.7,356.1" style="fill:#371a45;fill-opacity:1;fill-rule:nonzero;stroke:none" id="path364" data-index="176"/>
      <path d="m 33021.1,16428 c 365.6,211.4 790.7,371.1 1216.7,321.4 -389.3,-67.2 -724.2,-315.3 -988.6,-595.7 l -228.1,274.3" style="fill:#371a45;fill-opacity:1;fill-rule:nonzero;stroke:none" id="path366" data-index="177"/>
      <path d="m 32403.8,16606.7 c -14.5,0 -29.2,2.2 -43.6,6.9 -75.1,24 -116.4,104.4 -92.3,179.4 198.2,618.2 825.9,1799 1782.3,1842.9 79.2,3.1 145.4,-57.3 149,-136 3.7,-78.7 -57.2,-145.5 -135.9,-149.1 -741.7,-34 -1317.6,-1002.4 -1523.7,-1644.9 -19.4,-60.6 -75.5,-99.2 -135.8,-99.2" style="fill:#371a45;fill-opacity:1;fill-rule:nonzero;stroke:none" id="path368" data-index="178"/>
      <path d="m 35371.8,15512.7 c 73.3,-424.9 157.1,-851.7 70,-1286.9 l -332.7,128.5 c 178.6,346.9 217.4,769.9 262.7,1158.4" style="fill:#371a45;fill-opacity:1;fill-rule:nonzero;stroke:none" id="path370" data-index="179"/>
      <path d="m 36013.9,15620.9 c 124.2,-418.1 205.9,-847.4 233.4,-1286 l -355.2,31.7 c 89,408.4 126.5,833.4 121.8,1254.3" style="fill:#371a45;fill-opacity:1;fill-rule:nonzero;stroke:none" id="path372" data-index="180"/>
      <path d="m 24457.3,20469.1 c 600.7,-726.2 1388.7,-1305.1 2313.3,-1658.8 188.6,-72 382.2,-134.9 581.1,-187.5 96.7,-25.9 195.3,-49 295.1,-70.4 300.9,-63.1 601.3,-101.1 899.6,-115.6 257.1,-13 512.6,-8.1 764.5,12.9 304.2,25.3 603.6,75.1 895.8,147.1 106.5,26.6 211.9,55.9 316.4,87.9 1910.6,589.5 3462.2,2152 3924.7,4221.5 681.9,3048.6 -1257.8,6041.7 -4331.7,6685.9 -592.1,123.6 -1183.7,152 -1756.9,93.6 -67.1,-6.2 -134.2,-14.3 -201.1,-23.9 -179.1,-24.3 -356.1,-56.8 -530.5,-97.5 -403.5,-94.3 -793.6,-231.6 -1163.6,-407.2 -370.1,-175.2 -720.9,-389.4 -1045.1,-637.8 -103.1,-78.9 -203.6,-161.1 -301.4,-247.1 -146.6,-129 -286.8,-265 -420.2,-409.1 -665.6,-715.9 -1155.2,-1609.3 -1382.2,-2624.9 -392.3,-1753.6 83,-3488.6 1142.2,-4769.1" style="fill:#ffffff;fill-opacity:1;fill-rule:nonzero;stroke:none" id="path374" data-index="181"/>
      <path d="m 28934.1,29700.5 c -191.6,0 -382.9,-9.7 -573.5,-29.1 -63.9,-5.9 -129.5,-13.7 -200.5,-23.8 -178,-24.1 -356.1,-56.9 -529.3,-97.3 -398.4,-93.1 -788.9,-229.7 -1160.7,-406.2 -368.3,-174.4 -719,-388.4 -1042.4,-636.2 -103.8,-79.4 -205,-162.3 -300.8,-246.5 -149,-131.2 -290,-268.5 -419,-408.1 -683.5,-735 -1160.3,-1640.4 -1378.8,-2618.2 -378.2,-1690.6 37,-3424.4 1139.3,-4756.9 611,-738.6 1408.9,-1310.8 2307.3,-1654.5 190.1,-72.6 385.2,-135.6 579.7,-187 89.6,-24 185.9,-47 294.4,-70.3 295.6,-62 597.5,-100.7 897.3,-115.2 251.1,-12.9 507.6,-8.4 762.6,12.9 298.2,24.7 598.8,74.1 893.6,146.7 105.7,26.4 211.9,55.9 315.6,87.6 1970.1,607.9 3470.2,2221.4 3914.9,4211 327.6,1464.7 62.4,2963.4 -746.9,4220.2 -815.7,1266.9 -2084.9,2136.4 -3573.7,2448.4 -390.7,81.6 -785.4,122.5 -1179.1,122.5 z m -103.8,-11285.2 c -95.4,0 -190.4,2.4 -284.6,7.2 -301.3,14.6 -604.7,53.5 -901.9,115.8 -109,23.4 -205.7,46.5 -295.8,70.6 -195.5,51.7 -391.5,115 -582.5,187.9 -903.1,345.5 -1705.1,920.6 -2319.3,1663.1 -1107.9,1339.4 -1525.3,3082.2 -1145.1,4781.4 219.6,982.8 698.8,1892.8 1385.7,2631.6 129.7,140.2 271.4,278.2 421.2,410 96.2,84.7 197.9,168 302.2,247.8 325,249 677.5,464.1 1047.6,639.3 373.6,177.4 766.1,314.7 1166.5,408.3 174.1,40.6 353,73.5 531.8,97.8 71.5,10.1 137.5,18 201.7,23.9 585,59.6 1177.6,28 1761.3,-93.9 1496.4,-313.6 2772.1,-1187.6 3592,-2461 813.4,-1263.2 1080,-2769.8 750.7,-4242 -446.9,-1999.5 -1954.4,-3621.2 -3934.5,-4232.1 -104.1,-31.9 -210.8,-61.5 -317.1,-88.1 -296.3,-73 -598.4,-122.6 -898.2,-147.5 -160.5,-13.4 -321.6,-20.1 -481.7,-20.1" style="fill:#371a45;fill-opacity:1;fill-rule:nonzero;stroke:none" id="path376" data-index="182"/>
      <path d="m 34447.7,22906.4 c -462.3,-2069.7 -2014,-3632.4 -3924.8,-4221.6 -104.4,-32.1 -209.8,-61.4 -316.1,-87.9 -292.2,-72.1 -591.7,-121.7 -895.8,-147.2 -251.9,-20.8 -507.5,-26 -764.4,-12.9 -298.4,14.3 -598.8,52.4 -899.9,115.4 -99.6,21.8 -198.1,44.7 -295,70.4 -199,52.7 -392.5,115.9 -581.1,187.8 -924.6,353.7 -1712.7,932.3 -2313.4,1658.8 -330.1,398.9 -603.6,842.2 -811.7,1316.3 589.3,-679.9 1347.1,-1222 2229.2,-1559.5 188.5,-72.4 382.1,-135.1 581.1,-187.8 96.6,-25.9 195.1,-48.8 295,-70.4 301.1,-63 601.5,-101.1 899.6,-115.6 257.2,-12.8 512.5,-7.9 764.4,12.9 304.1,25.5 603.9,75.3 895.8,147.2 106.6,26.7 212,56 316.5,88.1 1910.7,589.3 3462.1,2151.7 3924.7,4221.6 270.2,1207.4 128.6,2406 -331.3,3453.2 1118.8,-1289.3 1629.9,-3069.5 1227.2,-4868.8" style="fill:#d0dae2;fill-opacity:1;fill-rule:nonzero;stroke:none" id="path378" data-index="183"/>
      <path d="m 28934.1,29604.3 c -188.4,0 -376.4,-9.5 -563.7,-28.6 -63.3,-5.9 -127.3,-13.5 -196.7,-23.4 -175.7,-23.8 -350.8,-56 -521,-95.7 -391.7,-91.5 -775.8,-225.9 -1141.3,-399.4 -362.3,-171.6 -707.2,-382 -1025.2,-625.7 -102.1,-78.1 -201.6,-159.6 -295.7,-242.4 -146.5,-129 -285.2,-264 -412,-401.1 -672,-722.8 -1140.7,-1612.8 -1355.4,-2573.9 -371.7,-1661.3 36.3,-3365.1 1119.4,-4674.5 600.5,-726 1384.6,-1288.2 2267.6,-1626 186.9,-71.4 378.6,-133.3 569.9,-183.9 88.4,-23.6 183.1,-46.3 290,-69.3 290.2,-60.7 587.1,-98.8 881.8,-113.1 247,-12.5 499.3,-8.3 749.8,12.7 293.3,24.3 588.9,72.8 878.7,144.2 103.8,26 208.3,55 310.4,86.3 1937.1,597.6 3412.1,2184 3849.1,4139.9 322,1439.4 61.4,2912.2 -733.8,4147.1 -801.6,1245 -2049.1,2099.6 -3512.6,2406.3 -384.1,80.3 -772.2,120.5 -1159.3,120.5 z m -103.8,-11285.2 c -97,0 -193.7,2.4 -289.5,7.3 -306.1,14.8 -614.6,54.4 -916.7,117.7 -111.1,23.9 -209.3,47.4 -301,71.9 -198.5,52.5 -397.8,116.8 -592,190.9 -918.6,351.4 -1734.3,936.4 -2359,1691.7 -1127.1,1362.5 -1551.6,3135.2 -1164.9,4863.7 223.3,999.4 710.6,1924.8 1409.1,2676.1 131.8,142.4 275.8,282.7 428.1,416.8 97.9,86.1 201.3,170.8 307.3,252 330.4,253.1 688.7,471.7 1065,649.8 379.6,180.3 778.6,319.9 1185.7,415 177,41.3 359,74.8 540.8,99.4 72.4,10.3 139.9,18.3 205.8,24.4 593.8,60.6 1196.2,28.5 1789.7,-95.5 1522,-318.9 2819.3,-1207.9 3653.3,-2503.1 827.5,-1285.1 1098.7,-2817.5 763.7,-4315.1 -454.4,-2033.1 -1987.1,-3682 -4000,-4303 -106,-32.5 -214.3,-62.6 -322.2,-89.5 -301.5,-74.4 -608.7,-124.8 -913.5,-150 -163.1,-13.7 -327,-20.5 -489.7,-20.5" style="fill:#371a45;fill-opacity:1;fill-rule:nonzero;stroke:none" id="path380" data-index="184"/>
      <path d="m 28934.1,29536.5 c -186.1,0 -371.9,-9.4 -556.9,-28.2 -62.7,-5.8 -125.7,-13.3 -194,-23 -174,-23.7 -346.9,-55.4 -515.1,-94.7 -387.1,-90.4 -766.5,-223.2 -1127.6,-394.7 -358.1,-169.4 -698.9,-377.4 -1013.1,-618.1 -101,-77.3 -199.2,-157.9 -292.2,-239.6 -144.7,-127.4 -281.7,-260.7 -406.9,-396.2 -664,-714.1 -1127,-1593.2 -1339.1,-2542.7 -367.1,-1640.7 35.9,-3323.4 1105.5,-4616.6 593.1,-716.9 1367.5,-1272.3 2239.6,-1605.9 184.6,-70.5 374.1,-131.6 563,-181.6 87.5,-23.4 181.2,-45.7 287,-68.5 286.3,-60 579.6,-97.6 870.8,-111.8 244.1,-12.3 493.3,-8.1 740.9,12.6 289.7,24 581.7,72 868,142.5 102.5,25.6 205.9,54.3 306.9,85.2 1913.7,590.5 3371,2157.7 3802.8,4089.9 318,1421.6 60.7,2876.1 -724.6,4095.7 -791.8,1229.7 -2024,2073.8 -3469.5,2376.7 -379.6,79.3 -763.1,119 -1145.5,119 z m -103.8,-11285.2 c -98.2,0 -195.9,2.5 -292.9,7.4 -309.5,15 -621.6,55.1 -927.2,119.1 -112.5,24.2 -211.9,47.9 -304.6,72.7 -200.6,53.1 -402.2,118.1 -598.6,193.2 -929.6,355.6 -1755,947.5 -2387.1,1711.7 -1140.5,1378.8 -1570.2,3172.7 -1178.8,4921.7 225.9,1011.2 718.9,1947.4 1425.6,2707.4 133.2,144 278.9,286 432.9,421.5 99.1,87.2 203.7,172.9 310.9,255 334.2,255.9 696.6,477.1 1077.2,657.3 383.9,182.2 787.5,323.4 1199.3,419.7 179.1,41.7 363.2,75.6 547.1,100.6 73.1,10.4 141.7,18.5 208.7,24.7 600,61.1 1209.6,28.7 1809.8,-96.6 1539.8,-322.8 2852.5,-1222.2 3696.4,-2532.8 837.4,-1300.4 1111.8,-2851.2 772.8,-4366.6 -459.6,-2056.8 -2010.1,-3724.8 -4046.1,-4353 -107.3,-32.8 -216.7,-63.2 -325.7,-90.5 -305.2,-75.2 -616,-126.2 -924.4,-151.8 -165,-13.7 -330.7,-20.7 -495.3,-20.7" style="fill:#371a45;fill-opacity:1;fill-rule:nonzero;stroke:none" id="path382" data-index="185"/>
      <path d="m 25515.9,19483.3 c 3713.5,-1623.4 7872.7,865.2 7365.5,4821.9 -345.1,2691.8 -3278.8,4409.2 -5874,3889.7 -1888.8,-378.1 -3574,-1563.2 -3811.7,-4618.4 0,0 105.7,-1366.5 641.9,-2185.1 536.3,-818.7 1198.4,-1523.9 1198.4,-1523.9 l 479.9,-384.2" style="fill:#371a45;fill-opacity:1;fill-rule:nonzero;stroke:none" id="path384" data-index="186"/>
      <path d="m 32881.2,24305.1 c 507.3,-3956.5 -3652,-6445.1 -7365.3,-4821.9 l -97.2,77.9 c 3733.4,69.8 6927.4,2909.7 6489.8,6920.3 513.4,-607.7 866.1,-1345.6 972.7,-2176.3" style="fill:#220f2d;fill-opacity:1;fill-rule:nonzero;stroke:none" id="path386" data-index="187"/>
      <path d="m 24791.8,27755.2 c -662.6,-716.5 -1125,-1597.3 -1337.4,-2548.1 -369.6,-1651.6 36.1,-3345.4 1112.9,-4647.1 596.9,-721.7 1376.4,-1280.7 2254.3,-1616.5 185.8,-70.9 376.4,-132.5 566.6,-182.8 87.9,-23.5 182.2,-46 288.5,-68.9 284.8,-59.6 576.1,-97.3 865.5,-111.9 1528.7,168.3 2912.6,908 3798,2030.6 830.8,1053.4 1174.8,2352.5 994.9,3756.8 -164.3,1282.1 -883.5,2439.8 -2025.1,3259.8 -1277,917.2 -2924.7,1287.5 -4407.7,990.7 -821.1,-164.4 -1531.1,-454.6 -2110.5,-862.6 z m 3758.9,-9461.5 -11.2,0.6 c -308,14.9 -618.2,54.8 -922,118.4 -111.8,24 -210.5,47.6 -302.7,72.3 -199.5,52.7 -399.8,117.4 -595.1,192 -923.7,353.4 -1744.1,941.7 -2372.4,1701.1 -1133.3,1370.2 -1560.3,3153 -1171.4,4891.2 224.6,1005 714.6,1935.5 1416.9,2690.9 l 10.1,10.7 11.9,8.5 c 614.4,435.9 1365.2,744.8 2231.5,918.2 1559,312.1 3290,-76.1 4630.1,-1038.7 1206.7,-866.7 1967.3,-2093.8 2141.7,-3455.3 189.9,-1482.2 -174.5,-2854.9 -1053.9,-3969.8 C 31629.5,19248.6 30170.7,18469 28561.7,18295 l -11,-1.3" style="fill:#371a45;fill-opacity:1;fill-rule:nonzero;stroke:none" id="path388" data-index="188"/>
      <path d="m 35320.1,25034.7 c 274.6,-1076.4 -139.1,-2145.6 -924.3,-2388 -785.1,-242.4 -1644.2,433.8 -1918.8,1510.1 -1.8,6.7 -3.5,13.9 -5,20.8 -264.3,1069.3 149.6,2126.6 929.3,2367.2 606.5,187.3 1257.2,-173.7 1648.5,-843.6 115.1,-197.4 207.9,-421.8 270.3,-666.5" style="fill:#ffffff;fill-opacity:1;fill-rule:nonzero;stroke:none" id="path390" data-index="189"/>
      <path d="m 35320.1,25034.7 c 274.6,-1076.4 -139.1,-2145.6 -924.3,-2388 -785.1,-242.4 -1644.2,433.8 -1918.8,1510.1 -1.8,6.7 -3.5,13.9 -5,20.8 114.5,-83.8 276.6,-151.1 449.3,-58.3 302.4,162.8 698,1031.6 698,1031.6 0,0 618.8,242.7 1430.5,550.3 115.1,-197.4 207.9,-421.8 270.3,-666.5" style="fill:#d0dae2;fill-opacity:1;fill-rule:nonzero;stroke:none" id="path392" data-index="190"/>
      <path d="m 33727.6,26415.7 c -92.6,0 -184.2,-13.7 -273.6,-41.3 -694.4,-214.3 -1055.2,-1189.3 -804.2,-2173.4 145.1,-568.9 478.4,-1046.8 891.4,-1278.3 265.8,-148.9 543.1,-185.3 802,-105.5 694.5,214.4 1055.3,1189.4 804.3,2173.4 -145.2,569 -478.4,1046.9 -891.5,1278.3 -173.9,97.5 -352.9,146.8 -528.4,146.8 z m 340.6,-3997 c -235.3,0 -472.7,64.7 -701.3,192.9 -504,282.4 -891.4,829.6 -1062.7,1501.3 -297.3,1165.4 171.4,2332.8 1044.7,2602.3 354.4,109.6 728.4,62.8 1081.5,-135.1 504,-282.5 891.4,-829.7 1062.7,-1501.3 297.3,-1165.4 -171.4,-2332.8 -1044.7,-2602.4 -124.9,-38.5 -252.2,-57.7 -380.2,-57.7" style="fill:#371a45;fill-opacity:1;fill-rule:nonzero;stroke:none" id="path394" data-index="191"/>
      <path d="m 35617.7,24275.2 c -60.5,-865.2 -653.3,-1442.1 -1324,-1288.6 -670.7,153.4 -1165.4,979.2 -1104.9,1844.4 60.5,865.2 653.3,1442.1 1324,1288.6 670.7,-153.4 1165.4,-979.2 1104.9,-1844.4" style="fill:#ffffff;fill-opacity:1;fill-rule:nonzero;stroke:none" id="path396" data-index="192"/>
      <path d="m 34295.7,26129.8 c -196.1,0 -383.9,-63.6 -551.9,-188.2 -309.9,-229.8 -506.8,-635 -540.1,-1111.6 -59.9,-856.8 430.6,-1677.2 1093.3,-1828.9 272.4,-62.4 537.3,-5.8 765.7,163.5 309.9,229.8 506.8,635 540.1,1111.7 59.9,856.7 -430.6,1677.1 -1093.3,1828.8 -72,16.5 -143.5,24.7 -213.8,24.7 z m 215.4,-3183.2 c -72.7,0 -146.4,8.4 -220.7,25.4 -676.6,154.8 -1177.4,989.2 -1116.5,1860.1 33.9,485.3 235.2,898.5 552.2,1133.5 235.5,174.7 508.5,232.9 790,168.6 676.5,-154.8 1177.4,-989.2 1116.5,-1860 l -14.9,1 14.9,-1 c -33.9,-485.4 -235.2,-898.6 -552.2,-1133.6 -173.2,-128.5 -367,-194 -569.3,-194" style="fill:#371a45;fill-opacity:1;fill-rule:nonzero;stroke:none" id="path398" data-index="193"/>
      <path d="m 33464.7,23610.6 c -145.1,265.8 -216.6,572.7 -219.9,877.4 382.7,-578 1034.1,-685.5 1504.8,-226.1 304.3,296.7 462.8,762.2 457.5,1233.6 24.4,-36.3 47.4,-75.1 69.5,-115.4 369.1,-677 262.8,-1621.9 -237.7,-2110.6 -500.4,-488.6 -1205.2,-335.5 -1574.2,341.1" style="fill:#d0dae2;fill-opacity:1;fill-rule:nonzero;stroke:none" id="path400" data-index="194"/>
      <path d="m 34233,26043.4 c -57.3,0 -117.4,-8.1 -179.1,-27.7 -493.9,-156.7 -747.2,-943.1 -552.9,-1717.1 119.9,-478.2 385.3,-871.8 709.7,-1052.8 125.5,-69.9 319.8,-139.2 533.5,-71.4 493.9,156.7 747.1,943 552.9,1717.1 v 0 c -119.9,478.2 -385.3,871.7 -709.7,1052.7 -89.2,49.8 -213.3,99.2 -354.4,99.2 z m 330.5,-3253.9 c -175.9,0 -354.1,48.6 -526.6,144.8 -408.7,228.1 -738.4,705.6 -881.9,1277.5 -246.7,983.2 100.8,1924.9 791,2143.9 265.3,84.2 547.2,49.6 815.2,-100 408.7,-228 738.4,-705.6 881.9,-1277.4 246.7,-983.2 -100.8,-1924.9 -791,-2143.9 -94.6,-30 -191.2,-44.9 -288.6,-44.9" style="fill:#371a45;fill-opacity:1;fill-rule:nonzero;stroke:none" id="path402" data-index="195"/>
      <path d="m 25322.6,21194.1 c -672.3,393.8 -1113.9,910.9 -1294.8,1722.9 -17.6,80.1 -32.8,163.3 -45.7,249.3 -3,19.8 -5.5,39.5 -7.8,59.4 v 1.2 c -13.6,176.1 -22.7,408.2 -10.8,671.1 35.4,792.9 259.2,1865.8 1116.3,2527.4 929.6,717.5 1942.8,896.1 2618.2,896.1 489,0 800.7,-93.6 775.6,-143.9 0,0 -2344.2,-624.6 -3386.9,-2235.1 -1.1,-1.7 -2.1,-3.4 -3.2,-5 -219.2,-339.2 -342.2,-730 -359.1,-1130.6 -22.4,-529.6 40.5,-897.1 108.5,-1218.3 207.5,-977 489.7,-1394.5 489.7,-1394.5" style="fill:#9b8da2;fill-opacity:1;fill-rule:nonzero;stroke:none" id="path404" data-index="196"/>
      <path d="m 30760.5,24413.5 c -300.4,0.1 -607,189.1 -770.3,507.2 -221.3,430.9 -96.1,935.5 279.5,1127.1 98.3,50.2 204,73.9 310.5,73.9 300.4,0 607,-189 770.3,-507.2 221.3,-430.9 96.2,-935.5 -279.5,-1127.1 -98.3,-50.1 -204,-73.9 -310.5,-73.9" style="fill:#9b8da2;fill-opacity:1;fill-rule:nonzero;stroke:none" id="path406" data-index="197"/>
      <path d="m 31238.4,23270.2 c -116.3,0 -236.8,66.2 -310,183 -106.3,169.5 -72.5,381.2 75.4,473 46.1,28.5 97.8,42.1 150.4,42.1 116.3,0 236.8,-66.3 310,-183 62.2,-99.1 76.4,-212.7 47.9,-308.3 -8.1,-20 -16.3,-39.7 -24.6,-59.6 -23.1,-42.4 -56.2,-78.7 -98.7,-105.1 -46.1,-28.6 -97.8,-42.1 -150.4,-42.1" style="fill:#9b8da2;fill-opacity:1;fill-rule:nonzero;stroke:none" id="path408" data-index="198"/>
      <path d="m 31487.5,23417.4 c 8.3,19.9 16.5,39.6 24.6,59.6 -6.2,-20.9 -14.4,-40.8 -24.6,-59.6" style="fill:#918796;fill-opacity:1;fill-rule:nonzero;stroke:none" id="path410" data-index="199"/>
    </g>
  </g>
</svg>