<svg xmlns:inkscape="http://www.inkscape.org/namespaces/inkscape" xmlns:sodipodi="http://sodipodi.sourceforge.net/DTD/sodipodi-0.dtd" xmlns="http://www.w3.org/2000/svg" xmlns:svg="http://www.w3.org/2000/svg" version="1.1" id="svg2" sodipodi:docname="18749396.eps" viewBox="968.12 1003.6 3368.46 3370.71">
  <defs id="defs6"/>
  <sodipodi:namedview id="namedview4" pagecolor="#ffffff" bordercolor="#000000" borderopacity="0.25" inkscape:showpageshadow="2" inkscape:pageopacity="0.0" inkscape:pagecheckerboard="0" inkscape:deskcolor="#d1d1d1"/>
  <g id="g8" inkscape:groupmode="layer" inkscape:label="ink_ext_XXXXXX" transform="matrix(1.3333333,0,0,-1.3333333,0,5333.3333)">
    <g id="g10" transform="scale(0.1)">
      
      <path d="m 21225.8,8443 c -1298.3,109.1 -2613.5,436.3 -3883.5,972.5 -243.8,102.9 -485.8,213.5 -725.8,331.8 -1594.8,785.8 -2945.1,1838.6 -3994.6,3039.9 112.1,10.6 219.7,60.9 301,147.1 948.5,-928.5 2077.5,-1726.7 3340,-2348.8 1387.7,-683.8 2845.6,-1110 4287.9,-1266.3 56.9,-98.6 117.3,-195.3 181.6,-289.8 136.8,-201.6 291.4,-393.9 472.3,-566.9 7,-6.5 14,-13 21.1,-19.5 m 2081.5,15.7 61.1,61.1 c 22.5,23.7 42.4,50.2 63.6,75.3 43.8,49.1 77.6,106.6 114.6,161.3 65.2,114.9 122.5,236.2 154,364.3 26.9,102.5 44.8,207 51.3,311 67.2,12.7 134.2,26 201,40 2470.6,517.9 4368.6,1893.8 5344.4,3874.3 l -143.4,70.7 c 0.1,0.1 0.1,0.1 0.1,0.1 l 143.3,-70.8 c 117.8,239 220.4,483.2 307.9,732 l 40.2,32 38,30.8 35,33.5 69.7,67.2 c 43.6,47 85.1,95.6 126,144.4 37.2,51.6 75.9,100.1 111.3,154.4 34,56.6 70.4,111.3 96.6,173.3 30.9,59.2 51.2,123.9 72.7,187.9 9.5,32.4 15.5,66.1 23.1,99.1 8.5,33 12.1,66.8 15.3,100.7 9.7,67.6 7.2,135.7 5.7,203.3 l -11,100.5 c -3.6,33.4 -12.5,65.5 -18.7,98.3 -43.9,196.6 -128.3,373.9 -230.6,534.9 52.8,1270.2 -236.4,2599.4 -865.2,3906.1 -193.3,401.8 -414.8,793.2 -662.3,1171.7 2033.3,-2647 2664.1,-5882.4 1345.1,-8559.1 -990.9,-2011 -2915.6,-3407.5 -5419.5,-3932.5 -351.5,-73.7 -708.1,-128.9 -1069.3,-165.8" style="fill: rgb(116, 137, 188); fill-opacity: 1; fill-rule: nonzero; opacity: 1;" id="path14" data-index="1"/>
      <path d="m 29712.8,15111.7 c -87.2,-478.9 -227.6,-948.5 -424,-1403.2 -42.4,-98.1 -87.2,-195.3 -134.8,-291.7 -971.6,-1971.6 -2857.6,-3263.6 -5132,-3766.4 -821.6,-181.5 -1694,-260.3 -2592,-230.7 -1662.4,54.7 -3413.6,480.3 -5096.4,1309.6 -1249.2,615.5 -2345.2,1396.7 -3259.2,2284.3 -712.4,691.6 -1314.4,1448.1 -1792.4,2240.8 -1415.23,2348.8 -1741.62,5018.1 -628,7278 1971.6,4001.6 7711.6,5205.2 12820,2687.7 4413.6,-2174.9 6912,-6414.9 6238.8,-10108.4" style="fill: rgb(249, 35, 35); fill-opacity: 1; fill-rule: nonzero; opacity: 1;" id="path16" data-index="2"/>
      <path d="m 20207.3,9684.4 c -1281.3,181.6 -2570.2,580.7 -3803,1188.2 -1213.9,598.1 -2281.1,1355.2 -3174.7,2215.3 256.6,131.2 514.6,304.5 765.5,510.8 844,-760.6 1827.1,-1432.9 2930,-1976.4 267,-131.5 535.8,-252.9 805.6,-364.3 140.9,-58.1 283,-112.8 426.1,-163.9 -972,69.6 -1591.1,212.8 -1591.1,212.8 602.7,-157.1 1176.4,-274.2 1722,-355.8 5.1,-5.6 10.3,-11.1 15.5,-16.5 l 130.3,-132.8 c 42.2,-45.7 91,-83.5 136.3,-125.6 90.3,-84.7 188.8,-158.3 285.6,-234.1 47.6,-39.2 99.4,-71.8 149.6,-107 l 151.4,-103.9 c 335.2,-214.3 688.7,-392.8 1050.9,-546.8 m 3798.8,126.2 c -51,358 -204.3,733 -396.3,1086.4 95.3,27.9 190.1,57.5 284.6,89 1570,522.2 2895.8,1454.2 3775.1,2753.9 306.8,-156.4 621.6,-257.9 922.8,-258 157.7,0 311.7,27.9 459,90.3 -13.4,-28.3 -27.1,-56.6 -41,-84.8 -915.8,-1858.6 -2690.1,-3160.9 -5004.2,-3676.8 m 5657.1,6629 c -25,26.8 -50.4,53.1 -76.2,78.9 -50.2,1793.1 -797.4,3641.1 -2098.1,5248.3 -93,154.7 -190.7,308 -293,459.8 663,-742.6 1213.2,-1556.6 1629.1,-2420.9 541.3,-1125 821.3,-2265.9 838.2,-3366.1 m -231.8,226.4 c -22.6,20.3 -45.4,40.4 -68.4,60.1 -92.3,79.7 -187.6,155.2 -285.5,227 -81.6,59.5 -161.7,115.4 -248.9,170.4 -16.3,60.1 -33.2,120.1 -50.8,180 14.5,945.8 -162.2,1909.9 -510.2,2850.8 654.4,-1120.6 1055.5,-2310.7 1163.8,-3488.3 m -18758.1,579.4 -223.1,296.5 c -180.9,629.7 -282.8,1265.2 -299.9,1894.2 53.4,-6 107.2,-9 160.9,-9 128.9,0 257.9,17.3 383.3,51.9 33.6,-426.5 115.6,-851 243.9,-1264.6 61.2,-197.2 130,-394 206.2,-589.5 -12.3,-0.3 -24.6,-1.1 -36.9,-2.6 -98.7,-11.9 -186.9,-61.6 -248.2,-139.7 l -186.2,-237.2" style="fill: rgb(181, 32, 47); fill-opacity: 1; fill-rule: nonzero; opacity: 1;" id="path18" data-index="3"/>
      <path d="m 18018.9,26377.7 c -714.1,0 -1417.1,-70.5 -2098.4,-213.3 -2372.2,-497.4 -4191.7,-1812.3 -5123.1,-3702.5 -1929.66,-3916.1 585.6,-9115.1 5606.9,-11589.3 2438.8,-1201.7 5096.3,-1588 7482.9,-1087.7 2372.3,497.3 4191.7,1812.2 5123.1,3702.5 931.5,1890.3 865.7,4134.2 -185.3,6318.3 -1057.3,2197.3 -2982.8,4069.2 -5421.6,5271 -1742.7,858.7 -3597.2,1301 -5384.5,1301 M 21789.3,9251.6 c -1836.5,0 -3739.5,453.4 -5526.4,1333.9 -2502.7,1233.2 -4480.3,3157.9 -5568.5,5419.3 -1094.53,2274.7 -1159.92,4618 -184.1,6598.5 975.9,1980.4 2873.9,3356.3 5344.5,3874.2 2456.2,514.9 5187.3,119.4 7690,-1113.8 2502.7,-1233.2 4480.3,-3157.8 5568.5,-5419.3 1094.6,-2274.6 1159.9,-4618 184,-6598.4 l -143.5,70.7 143.5,-70.7 C 28321.5,11365.5 26423.5,9989.6 23952.9,9471.7 23250.3,9324.4 22525,9251.6 21789.3,9251.6" style="fill: rgb(55, 26, 69); fill-opacity: 1; fill-rule: nonzero; stroke: none; opacity: 1;" id="path20" data-index="4"/>
      <path d="m 28267.6,20154.3 c -1063.4,1821.1 -2795.3,3458.2 -5023.3,4556.1 -231.5,114.1 -465,220.8 -700,320 -719.9,303.9 -1454.3,538 -2191.1,700.4 -6.9,84.3 -15.6,168.4 -26.1,251.8 834.8,-145.8 1670,-384 2488.3,-712 v 0 0 c -47.7,20.9 -95.2,42.7 -143.1,62.9 235,-99.2 468.5,-205.9 700,-320 1678.4,-827 3075,-1959.6 4116.6,-3246.7 315.1,-524.3 576,-1064.5 778.7,-1612.5" style="fill: rgb(252, 166, 166); fill-opacity: 1; fill-rule: nonzero; opacity: 1;" id="path22" data-index="5"/>
      <path d="m 29587,16518.5 c -50.6,50.8 -102.5,99.9 -155.6,147.5 -108.3,1177.6 -509.4,2367.7 -1163.8,3488.3 -202.7,548 -463.6,1088.2 -778.7,1612.5 1300.7,-1607.2 2047.9,-3455.2 2098.1,-5248.3 m -6771.6,8752.1 c -818.3,328 -1653.5,566.2 -2488.3,712 -3.6,29 -7.5,57.7 -11.6,86.6 792.3,-163 1583,-408.9 2356.8,-735.7 v 0 c 47.9,-20.2 95.4,-42 143.1,-62.9" style="fill:#e1a5ab;fill-opacity:1;fill-rule:nonzero;stroke:none" id="path24" data-index="6"/>
      <path d="m 18168.1,11090.1 c -3.7,1.3 -7.5,2.7 -11.3,4 2.8,-0.2 5.7,-0.4 8.4,-0.6 1,-1.1 2,-2.3 2.9,-3.4" style="fill:#fca6a6;fill-opacity:1;fill-rule:nonzero;stroke:none" id="path26" data-index="7"/>
      <path d="m 18287.7,10951.1 c -545.6,81.6 -1119.3,198.7 -1722,355.8 0,0 619.1,-143.2 1591.1,-212.8 3.8,-1.3 7.6,-2.7 11.3,-4 4.2,-4.9 8.4,-9.9 12.6,-14.8 36,-41.1 70,-84.2 107,-124.2" style="fill:#e1a5ab;fill-opacity:1;fill-rule:nonzero;stroke:none" id="path28" data-index="8"/>
      <path d="m 23370.1,11300.5 c -81,126 -163.9,246.6 -245.3,359.8 1361.9,455.3 2733.6,1225.8 3891.4,2493.2 51.7,-38.6 104.3,-76.5 157.4,-113.4 -720.4,-943.2 -1927.4,-2094.9 -3803.5,-2739.6" style="fill:#fca6a6;fill-opacity:1;fill-rule:nonzero;stroke:none" id="path30" data-index="9"/>
      <path d="m 23412.7,10841.8 c -65.3,137.6 -136.1,271.6 -211.2,402.8 56.8,18.2 113,36.8 168.6,55.9 83.3,-129.7 164.5,-264.9 239.7,-403.5 -65.5,-19.2 -131.3,-37.6 -197.1,-55.2" style="fill:#b5202f;fill-opacity:1;fill-rule:nonzero;stroke:none" id="path32" data-index="10"/>
      <path d="m 23744.6,9756.1 c -4.4,43.7 -9.3,87.4 -16.8,130.3 -40.6,248 -113.8,485.1 -206.7,710.4 -34.1,83 -70.3,164.6 -108.4,245 65.8,17.6 131.6,36 197.1,55.2 192,-353.4 345.3,-728.4 396.3,-1086.4 -39.5,-8.8 -79.1,-17.4 -118.9,-25.7 -47.5,-10 -94.9,-19.6 -142.6,-28.8" style="fill:#891e37;fill-opacity:1;fill-rule:nonzero;stroke:none" id="path34" data-index="11"/>
      <path d="m 23755,9595.4 c -1.2,34.4 -3.4,68.6 -4.7,102.9 -2,19.3 -3.8,38.5 -5.7,57.8 47.7,9.2 95.1,18.8 142.6,28.8 39.8,8.3 79.4,16.9 118.9,25.7 7.7,-53.8 13.1,-107.2 15.9,-160.2 -88.4,-19.5 -177.5,-37.9 -267,-55" style="fill:#371a45;fill-opacity:1;fill-rule:nonzero;stroke:none" id="path36" data-index="12"/>
      <path d="m 22976.5,11612 c -53,81.5 -107.2,162 -162.3,241.7 -68.5,97.6 -137.8,194.8 -209.3,290 -36.7,48.6 -67.6,93.2 -101.2,139.5 -34,45.5 -64.8,92.6 -94.9,140.1 -122.2,188.7 -225.5,387.2 -296.5,593.9 -20.1,51.2 -31.5,104.2 -47.1,156.3 -13.6,52.5 -23,105.8 -33.5,158.8 -5.6,53.6 -16.9,106.6 -18,160.6 l -4.8,80.6 0.7,80.9 c 1.9,216 49.3,432 117.3,644.2 64.8,204.3 172.8,391.1 314.9,550.6 35.3,40 72.9,78 112.2,114 l 129.5,116 263,234.5 263.1,234.6 131.4,117.2 65.6,58.3 c 20.5,17.1 40.3,35.1 61.3,51.6 166.9,133.6 360.1,233.9 564.6,290.1 123.6,33.7 250.9,50.6 378.2,50.6 83.7,0 167.5,-7.3 250.2,-21.9 208.5,-34.9 408.2,-122.6 598,-235.1 189.1,-115 369,-253.6 541.1,-404.3 86.7,-75.9 169,-152.7 255.5,-233.9 86.5,-81.9 175.1,-161.7 264.3,-241 267.6,-234.2 547.4,-458 849.6,-654.3 -50.6,-58.4 -101.7,-115.8 -153.2,-172.1 -269.8,201.1 -518.4,420.9 -727.4,619.3 -282,267.6 -529.6,461.6 -762.8,592.4 -249.6,139.6 -483.2,207.2 -726.4,215.7 -15.1,0.4 -30.1,0.7 -45.1,0.7 -368,0 -722.5,-145.2 -997.7,-390.3 l -744.8,-664 c -196.8,-176 -346.8,-399.3 -430.8,-649.6 -98.4,-292.5 -144.8,-581.3 -107.2,-885.2 43.6,-354.9 200.8,-730 521.6,-1156.5 42.3,-56.2 85.5,-114.8 129.2,-175.7 -49.6,-16.6 -98.7,-32.6 -148.3,-48.3 m -8981.4,1986.7 c -107.7,97 -213.2,195.6 -316.3,295.4 l 239.8,305.4 c 47.5,60.6 78.2,129.2 92.6,200.1 227.9,208.8 449.3,444.6 657.9,703 242,300 455.1,615 635.5,936 l 2036,-2198.9 c -580,329.4 -1097.2,719.9 -1542.6,1152.4 -119.2,115.5 -233.2,234.4 -341.6,355.9 -389.1,-678 -907.7,-1294 -1461.3,-1749.3 m 13674.4,141.2 c -168.8,86 -335.3,188.7 -495.9,300.2 50,65.4 97.8,130 143.1,193.1 56.3,-34 113.3,-67 171.2,-98.9 106.9,-59.2 217.5,-113.8 331.6,-162.2 -48.5,-78.7 -98.5,-156.1 -150,-232.2" style="fill: rgb(181, 32, 47); fill-opacity: 1; fill-rule: nonzero; opacity: 1;" id="path38" data-index="13"/>
      <path d="m 13229.6,13087.9 c -34.7,33.4 -69.8,67.6 -104,101.4 l 553.2,704.8 c 103.1,-99.8 208.6,-198.4 316.3,-295.4 -250.9,-206.3 -508.9,-379.6 -765.5,-510.8 m 15362.7,394 c -301.2,0.1 -616,101.6 -922.8,258 51.5,76.1 101.5,153.5 150,232.2 113.3,-48 230.1,-90 350.6,-124.1 60,-17.8 122.5,-30.4 184.2,-43.8 63.1,-9.8 125.4,-22.4 190.1,-26.1 50.1,-5.3 100.9,-7.9 151.9,-7.9 78.9,0 158.5,6.1 237.5,17.4 47.8,6.1 95.2,15.8 141.9,28.1 -15.9,-43.2 -32.3,-86.5 -49.2,-129.3 20,43.8 39.4,87.6 58.3,131.7 29.6,8 59,17.1 88.2,27 -38.4,-91.8 -78.9,-182.7 -121.7,-272.9 -147.3,-62.4 -301.3,-90.3 -459,-90.3" style="fill:#891e37;fill-opacity:1;fill-rule:nonzero;stroke:none" id="path40" data-index="14"/>
      <path d="m 13074.4,13013.6 c -16.5,16 -32.8,31.9 -49.1,48 l 100.3,127.7 c 34.2,-33.8 69.3,-68 104,-101.4 -51.8,-26.5 -103.6,-51.3 -155.2,-74.3 m 15976.9,558.6 c 42.8,90.2 83.3,181.1 121.7,272.9 47.5,16.1 94.4,34.5 140.4,54 12.9,6.8 25.9,13.3 39,19.9 l -63.6,-210.5 c -76.8,-56.8 -156.1,-101.8 -237.5,-136.3" style="fill:#371a45;fill-opacity:1;fill-rule:nonzero;stroke:none" id="path42" data-index="15"/>
      <path d="m 29026.5,13686.4 c 16.9,42.8 33.3,86.1 49.2,129.3 3,0.8 6,1.6 9.1,2.4 -18.9,-44.1 -38.3,-87.9 -58.3,-131.7" style="fill:#a67487;fill-opacity:1;fill-rule:nonzero;stroke:none" id="path44" data-index="16"/>
      <path d="m 23201.5,11244.6 c -71.5,124.9 -146.9,247.2 -225,367.4 49.6,15.7 98.7,31.7 148.3,48.3 81.4,-113.2 164.3,-233.8 245.3,-359.8 -55.6,-19.1 -111.8,-37.7 -168.6,-55.9 m 3972.1,2795.5 c -53.1,36.9 -105.7,74.8 -157.4,113.4 51.5,56.3 102.6,113.7 153.2,172.1 48.5,-31.5 97.6,-62.4 147.3,-92.4 -45.3,-63.1 -93.1,-127.7 -143.1,-193.1" style="fill:#b77584;fill-opacity:1;fill-rule:nonzero;stroke:none" id="path46" data-index="17"/>
      <path d="m 28142.7,27912.7 c -242.7,0 -497.1,35.3 -756.7,121.2 -626.3,207.3 -1138.2,708 -1369.1,1339.5 -41.3,112.9 -75.6,223.8 -103,332.8 241,-600.1 738.2,-1073.3 1341.8,-1273.1 259.3,-85.8 513.6,-120.9 756.1,-120.9 695.2,0 1293.9,288.6 1637.7,498.9 408.1,249.5 675.6,669.7 715.6,1123.9 7.2,81.6 6.9,159.3 -0.9,233 112.6,-171.6 158.7,-382.4 137,-628.3 -40.1,-455.6 -308.5,-877.1 -717.7,-1127.4 -344.3,-210.6 -943.8,-499.6 -1640.1,-499.6 -0.2,0 -0.4,0 -0.7,0 m -2387,2324.8 c -150.2,139.4 -270.9,339.4 -359.6,596.1 -63.7,184 -39.9,383.4 65.1,547 103.7,161.5 272.5,264.8 463.2,283.2 4.8,0.5 9.7,0.9 14.5,1.4 -20.7,-37 -40,-75 -58,-114 -180.8,-392.3 -222.6,-832.7 -125.2,-1313.7" style="fill:#7489bc;fill-opacity:1;fill-rule:nonzero;stroke:none" id="path48" data-index="18"/>
      <path d="m 26039.7,29824.8 c -160.6,439.2 -288.4,1063 -13.5,1659.4 261.6,567.5 861.2,916.4 1476.9,809.7 415.2,-71.9 853.9,-345.8 1018.7,-1128.5 0,0 1040.7,433.6 954,-346.9 0,0 801.5,-57.2 729.9,-869.5 -36.6,-416 -283.5,-783.6 -639.7,-1001.5 -489.6,-299.5 -1341.4,-666.6 -2260,-362.5 -587.6,194.5 -1053.6,658.5 -1266.3,1239.8" style="fill:#ffdf00;fill-opacity:1;fill-rule:nonzero;stroke:none" id="path50" data-index="19"/>
      <path d="m 30123.3,30424.6 c -68.4,-367.4 -300.7,-687.5 -623.1,-884.7 -489.6,-299.5 -1341.5,-666.6 -2260,-362.6 -587.6,194.5 -1053.6,658.6 -1266.3,1239.9 -39.6,108.2 -77.1,227.8 -107.2,355.3 -7.8,-351.9 76.3,-683.3 173,-947.7 212.7,-581.3 678.7,-1045.3 1266.3,-1239.8 918.5,-304.1 1770.4,63 2260,362.5 356.2,217.9 603.1,585.5 639.7,1001.5 17.8,201.5 -18.3,356.4 -82.4,475.6" style="fill:#ffaa00;fill-opacity:1;fill-rule:nonzero;stroke:none" id="path52" data-index="20"/>
      <path d="m 24454.2,17583.6 -4052.7,-3752.4 c -843,-780.5 -2159.2,-729.9 -2939.8,113.2 l -3602.4,3890.7 c -780.6,843 -729.9,2159.2 113.1,2939.8 l 4052.6,3752.3 c 843.1,780.6 2159.3,730 2939.8,-113.1 l 3602.5,-3890.7 c 780.5,-843 729.9,-2159.2 -113.1,-2939.8" style="fill:#ffffff;fill-opacity:1;fill-rule:nonzero;stroke:none" id="path54" data-index="21"/>
      <path d="m 24454.2,17583.6 h 0.5 -0.5 m -5017.6,7337.5 c -485,0 -945,-179.9 -1302.9,-511.2 l -4052.6,-3752.4 c -376.4,-348.5 -594.5,-822.7 -614.2,-1335.3 -19.7,-512.5 161.3,-1002.1 509.8,-1378.4 L 17579.1,14053 c 719.3,-776.9 1936.8,-823.7 2713.7,-104.4 l 4052.7,3752.4 c 776.9,719.4 823.7,1936.8 104.4,2713.7 l -3602.5,3890.7 c -348.5,376.4 -822.6,594.5 -1335.2,614.3 -25.3,1 -50.5,1.4 -75.6,1.4 M 18989,13118.5 c -602.8,0 -1203.8,241 -1644.7,717.1 l -3602.4,3890.8 c -406.6,439 -617.8,1010.2 -594.8,1608.1 23,598 277.5,1151.2 716.6,1557.7 l 4052.6,3752.4 c 439.2,406.6 1010,618.5 1608.2,594.8 598,-23 1151.2,-277.5 1557.7,-716.6 l 3602.5,-3890.7 c 839.2,-906.4 784.6,-2326.6 -121.8,-3165.9 l -4052.7,-3752.3 c -430.3,-398.5 -976.4,-595.4 -1521.2,-595.4" style="fill:#371a45;fill-opacity:1;fill-rule:nonzero;stroke:none" id="path56" data-index="22"/>
      <path d="m 8421.17,22118.5 c -135.7,-233.8 -253.32,-473.3 -354.57,-718.5 -102.78,-244.3 -189.84,-493.4 -260.46,-745.7 -70.75,-252.3 -125.61,-507.7 -162.59,-765.1 -36.05,-257.5 -53.32,-516.8 -52.07,-775.8 -1.39,-259.2 20.28,-518.3 59.74,-775 10.83,-64 16.47,-129.1 31.46,-192.5 l 38.66,-191.5 c 12.22,-64.1 31.75,-126.5 46.89,-190.1 16.05,-63.3 29.95,-127.5 51.01,-189.5 147.37,-503.5 358.29,-991.7 601.93,-1474.8 -357.84,406 -644.09,879.3 -847.88,1390.7 -99.57,256.4 -180.76,522 -231.05,794.5 -30.13,135.4 -43.11,273.7 -61.64,411.2 -9.71,138.5 -20.82,276.9 -19.58,415.9 0.04,277.5 23.29,555.2 73.89,827.6 51.47,272.2 126.81,539.2 225.47,796.2 98.85,257 218.99,504.9 362.59,737.6 144.78,231.4 304.06,454.8 498.2,644.8" style="fill: rgb(149, 196, 252); fill-opacity: 1; fill-rule: nonzero; opacity: 1; visibility: visible;" id="path58" data-index="23"/>
      <path d="m 14111.2,20447.2 c -222.8,-3405.3 -4364.46,-4070.6 -3499.4,-5989.4 1176.2,-2608.8 5024.2,821.5 5206.3,3687.3 l -1706.9,2302.1" style="fill: rgb(255, 255, 255); fill-opacity: 1; fill-rule: nonzero; opacity: 1;" id="path60" data-index="24"/>
      <path d="m 13934.1,14766.6 c -17,24.3 -36.6,47.3 -58.7,68.7 -752.2,728.8 -1362.7,1321.9 -1778.3,1727.3 2.3,0 4.7,0 7,0 320.2,0 607,-206.2 882.1,-412.5 275.1,-206.3 538.5,-412.6 811.5,-412.6 424.5,0 872.3,498.5 1424.3,2270.5 13.1,-23.2 26.1,-46.4 39.3,-69.8 -23.3,-13.1 -33.8,-41.9 -23.4,-67.2 80.3,-195.5 168,-387.2 261.1,-576 -199.5,-669.6 -572.2,-1363.3 -1079,-1991.4 -155.9,-193.3 -318.9,-373 -485.9,-537" style="fill: rgb(185, 175, 190); fill-opacity: 1; fill-rule: nonzero; stroke: none; opacity: 1;" id="path62" data-index="25"/>
      <path d="m 11899.1,13370.6 c -630.5,-0.1 -1132.1,353.9 -1433.1,1021.5 -461.5,1023.6 332.2,1712.2 1251.2,2509.6 994.7,863 2122.1,1841.2 2234.3,3555.9 5.8,88.2 81.5,155.3 170.1,149.2 88.2,-5.7 155,-81.9 149.2,-170.1 C 14150,18588.8 12917.3,17519.3 11926.9,16660 10948,15810.6 10411,15292.6 10757.7,14523.6 c 294.5,-653.2 772,-924.6 1418.9,-806.9 706.8,128.7 1545.5,721.9 2243.4,1586.9 729.3,903.8 1180.7,1943.2 1238.4,2851.6 5.6,88.2 81.4,155.8 169.8,149.5 88.2,-5.6 155.2,-81.6 149.6,-169.8 -61.8,-972.9 -538.8,-2078.1 -1308.7,-3032.3 -744.8,-922.9 -1655.1,-1558.7 -2435.2,-1700.7 -115.1,-21 -226.8,-31.3 -334.8,-31.3" style="fill: rgb(55, 26, 69); fill-opacity: 1; fill-rule: nonzero; opacity: 1;" id="path64" data-index="26"/>
      <path d="m 11976.2,14874 -129.9,-97.8 c -53.7,-40.4 -130,-29.6 -170.4,24.1 l -2203.66,2927.8 c -40.43,53.7 -29.65,130 24.04,170.4 l 129.94,97.8 c 53.7,40.5 129.99,29.7 170.41,-24 l 2203.67,-2927.9 c 40.4,-53.7 29.6,-130 -24.1,-170.4" style="fill:#ffdf00;fill-opacity:1;fill-rule:nonzero;stroke:none" id="path66" data-index="27"/>
      <path d="m 9699.3,18284.2 h -0.03 c -84.12,0 -164.18,-26.8 -231.44,-77.5 l -129.93,-97.8 c -169.57,-127.7 -203.71,-369.5 -76.12,-539.1 l 2203.72,-2927.9 c 72.3,-96.1 187.3,-153.5 307.7,-153.5 84.1,0 164.1,26.7 231.4,77.3 l 130,97.9 c 82.2,61.9 135.4,152 149.7,253.8 14.4,101.9 -11.8,203.3 -73.6,285.4 L 10007,18130.7 c -72.35,96.1 -187.36,153.5 -307.7,153.5 m 0,-263.4 c 36.95,0 73.41,-16.7 97.32,-48.5 l 2203.68,-2927.9 c 40.4,-53.7 29.6,-129.9 -24.1,-170.4 l -129.9,-97.8 c -21.9,-16.5 -47.6,-24.4 -73.1,-24.4 -36.9,0 -73.4,16.7 -97.3,48.5 l -2203.67,2927.8 c -40.41,53.7 -29.64,130 24.05,170.4 l 129.93,97.8 c 21.93,16.5 47.63,24.5 73.09,24.5" style="fill:#371a45;fill-opacity:1;fill-rule:nonzero;stroke:none" id="path68" data-index="28"/>
      <path d="m 10414.2,17061.2 c -7.6,0 -15.4,0.4 -23.3,1.3 l -615.24,817.4 c -23.92,31.7 -60.41,48.5 -97.33,48.5 -25.48,0 -51.16,-8 -73.08,-24.5 l -129.94,-97.8 c -10.07,-7.6 -18.11,-16.7 -25.1,-26.4 -7.09,39.3 5.08,80.8 35.14,109.6 0.03,0 0.06,0 0.09,0.1 0.14,0.1 0.29,0.2 0.44,0.4 3.26,3 6.73,6 10.4,8.7 l 74.13,55.8 55.81,42 c 5.97,4.5 12.22,8.4 18.67,11.6 17.23,8.7 35.89,12.9 54.41,12.9 20.56,0 40.96,-5.2 59.14,-15.2 14.5,-8.1 27.58,-19.2 38.19,-33.3 l 677.47,-900.1 c -18.1,-7.5 -38.2,-11 -59.9,-11" style="fill:#ffef80;fill-opacity:1;fill-rule:nonzero;stroke:none" id="path70" data-index="29"/>
      <path d="m 9485.35,17889.3 c 0.03,0 0.06,0 0.09,0.1 -0.03,-0.1 -0.06,-0.1 -0.09,-0.1 m 0.53,0.5 c 3.26,3 6.72,6 10.4,8.7 l 74.13,55.8 -74.13,-55.8 c -3.67,-2.7 -7.14,-5.7 -10.4,-8.7 m 272.56,115.8 c -18.18,10 -38.58,15.2 -59.14,15.2 -18.52,0 -37.18,-4.2 -54.41,-12.9 17.23,8.7 35.88,12.9 54.41,12.9 20.55,0 40.95,-5.2 59.14,-15.2" style="fill:#9b8da2;fill-opacity:1;fill-rule:nonzero;stroke:none" id="path72" data-index="30"/>
      <path d="m 10361.3,15894.6 -6.8,5.4 52.8,60.2 46,65.6 6.8,-5.3 926.9,1057.9 c 23.8,-37.2 1768.1,-1728.5 2396.8,-2337.7 126.6,-122.7 140.1,-321.2 31.2,-459.9 l -967,-1231.9 c -108.9,-138.7 -304.9,-172.8 -454.2,-78.9 -741,466 -2798.24,1758.7 -2839.95,1773 l 807.45,1151.6" style="fill:#b3e5fc;fill-opacity:1;fill-rule:nonzero;stroke:none" id="path74" data-index="31"/>
      <path d="m 10339.1,14635.2 c 335.2,-204.9 1538.1,-960.8 2012.4,-1259.1 110.4,-69.4 255.3,-44.2 335.8,58.3 l 715,910.9 c 80.5,102.6 70.6,249.4 -23.1,340.1 -402.3,389.9 -1422.3,1378.8 -1701,1655.8 -38.4,38.1 -101.3,34.2 -134.7,-8.3 L 10315.2,14768 c -33.4,-42.5 -22.3,-104.6 23.9,-132.8" style="fill:#d329d3;fill-opacity:1;fill-rule:nonzero;stroke:none" id="path76" data-index="32"/>
      <path d="m 13610.4,14374.4 c -15.6,27.1 -35.2,52.5 -58.7,75.2 -30.4,29.5 -63.3,61.4 -98.6,95.6 -8.8,51.8 -33.6,101.2 -73.9,140.2 -402.3,389.9 -1422.3,1378.8 -1701,1655.8 -17.7,17.6 -40.7,26.3 -63.5,26.3 -10.5,0 -21,-1.9 -30.9,-5.5 -99.7,97.5 -186.8,182.9 -255.9,251.1 l 140.2,197.2 c 250.4,-247.7 836.7,-819.9 2224.1,-2164.2 45.3,-43.9 67.2,-103.3 64.6,-162.2 -46.2,-41.2 -95.1,-77.6 -146.4,-109.5" style="fill:#e0f4fd;fill-opacity:1;fill-rule:nonzero;stroke:none" id="path78" data-index="33"/>
      <path d="m 13453.1,14545.2 c -469.9,455.3 -1345,1304.1 -1869.3,1816.8 9.9,3.6 20.4,5.5 30.9,5.5 22.8,0 45.8,-8.7 63.5,-26.3 278.7,-277 1298.7,-1265.9 1701,-1655.8 40.3,-39 65.1,-88.4 73.9,-140.2" style="fill:#eda9ed;fill-opacity:1;fill-rule:nonzero;stroke:none" id="path80" data-index="34"/>
      <path d="m 9742.93,14783.3 c 239.82,-145.8 892.97,-552.2 2721.07,-1701.8 92.4,-58.2 212.9,-37.1 280.4,48.7 l 967,1231.9 c 67.5,85.9 59.2,208.1 -19.2,284 -1551,1502.8 -2100.8,2040.7 -2299.4,2239 l -833.6,-951.4 c -7.6,-8.7 -16.2,-16.2 -25.4,-22.4 l -18.6,-26.7 c -2.8,-3.9 -5.7,-7.6 -8.9,-11.2 l -21.5,-24.6 c -3.8,-10.3 -9.1,-20.3 -15.7,-29.8 l -726.17,-1035.7 m 2834.37,-1998.2 c -87,0 -174.8,23.9 -253.5,73.4 -1684.6,1059.4 -2738.29,1717.7 -2825.28,1765 -33,15.3 -58.45,43.6 -69.84,78.6 -12.87,39.4 -6.43,82.5 17.35,116.5 l 780.77,1113.6 c 5.1,20 14.8,38.7 28.7,54.5 l 48.1,54.9 41.9,59.8 c 12.1,17.2 28,31.2 46.2,40.8 l 896.3,1022.9 c 27.3,31.2 67.9,47.4 109,44.6 36.7,-2.8 70.3,-20.8 93,-49.2 66.2,-72.8 977.7,-961.3 2385.4,-2325.2 175.6,-170.1 194.1,-443.5 43.2,-635.8 l -967,-1231.9 c -93.6,-119.1 -232.8,-182.5 -374.3,-182.5" style="fill: rgb(55, 26, 69); fill-opacity: 1; fill-rule: nonzero; stroke: none; opacity: 1;" id="path82" data-index="35"/>
      <path d="m 9591.93,14723 1823.57,2323.1 c 82,104.5 63.8,255.6 -40.7,337.6 l -74.2,58.2 c -104.4,82 -255.6,63.8 -337.6,-40.6 L 9139.49,15078.1 c -81.99,-104.4 -63.78,-255.5 40.67,-337.5 l 74.21,-58.3 c 104.45,-82 255.58,-63.8 337.56,40.7" style="fill:#ffffff;fill-opacity:1;fill-rule:nonzero;stroke:none" id="path84" data-index="36"/>
      <path d="m 11152.3,17361.5 c -32.3,0 -64.3,-14.2 -85.7,-41.5 L 9243.08,14996.8 c -17.95,-22.8 -25.91,-51.3 -22.43,-80.1 3.48,-28.9 17.96,-54.6 40.81,-72.6 l 74.22,-58.2 c 22.85,-17.9 51.42,-25.9 80.15,-22.4 28.84,3.4 54.59,17.9 72.51,40.8 l 1823.56,2323.1 c 17.9,22.8 25.9,51.3 22.4,80.2 -3.5,28.8 -17.9,54.6 -40.8,72.5 l -74.2,58.3 c -19.9,15.6 -43.5,23.1 -67,23.1 M 9402.06,14499.3 c -82.83,0 -162.79,27.5 -228.98,79.5 l -74.22,58.2 c -161.4,126.7 -189.62,361 -62.95,522.4 l 1823.59,2323.2 c 61.3,78.1 149.5,127.8 248.2,139.7 98.6,11.8 196,-15.4 274.2,-76.8 l 74.2,-58.2 c 161.4,-126.7 189.7,-361.1 63,-522.5 L 9695.52,14641.7 c -61.37,-78.2 -149.51,-127.8 -248.2,-139.7 -15.13,-1.8 -30.24,-2.7 -45.26,-2.7" style="fill:#371a45;fill-opacity:1;fill-rule:nonzero;stroke:none" id="path86" data-index="37"/>
      <path d="m 9402.55,14762.7 c -24.14,0 -47.55,8 -66.87,23.2 l -74.22,58.2 c -22.85,18 -37.33,43.7 -40.81,72.6 -3.48,28.8 4.48,57.3 22.43,80.1 l 329.67,420 c 233.23,112.3 741.45,491.3 1753.45,1734.4 -3.7,-8.4 -8.5,-16.4 -14.3,-23.8 L 9488.34,14804.3 c -17.92,-22.9 -43.67,-37.4 -72.51,-40.8 -4.44,-0.6 -8.87,-0.8 -13.28,-0.8" style="fill: rgb(185, 175, 190); fill-opacity: 1; fill-rule: nonzero; stroke: none; opacity: 1;" id="path88" data-index="38"/>
      <path d="m 9373.85,14626.4 -284.08,211.7 c 0,0 -88.53,114 -45.3,169 43.23,55.1 354.74,366.9 354.74,366.9 0,0 6.55,-2.8 21.74,-2.8 24.71,0 72.26,7.3 151.8,45.6 l -329.67,-420 c -17.95,-22.8 -25.91,-51.3 -22.43,-80.1 3.48,-28.9 17.96,-54.6 40.81,-72.6 l 74.22,-58.2 c 19.32,-15.2 42.73,-23.2 66.87,-23.2 4.41,0 8.84,0.2 13.28,0.8 28.84,3.4 54.59,17.9 72.51,40.8 l 1823.56,2323.1 c 5.8,7.4 10.6,15.4 14.3,23.8 22.4,27.6 45,55.4 67.9,83.8 l 20.7,-172 -1864.67,-2375.5 -176.28,-61.1" style="fill: rgb(55, 26, 69); fill-opacity: 1; fill-rule: nonzero; opacity: 1;" id="path90" data-index="39"/>
      <path d="m 12577.1,13048.7 c -38.8,0 -78,10.6 -113.1,32.8 -54.3,34.1 -107.4,67.4 -159.6,100.3 23,56.8 41.6,120.6 54.8,189.6 40,-23.2 84,-34.4 127.7,-34.4 75.8,0 150.5,33.9 200.4,97.4 l 639.1,814.2 c 100.7,29.8 196,71.2 284,125.8 17.1,-29.5 29.4,-61.2 37,-93.8 l -903,-1150.4 c -41.8,-53.2 -104,-81.5 -167.3,-81.5" style="fill:#889ebc;fill-opacity:1;fill-rule:nonzero;stroke:none" id="path92" data-index="40"/>
      <path d="m 12486.9,13337 c -43.7,0 -87.7,11.2 -127.7,34.4 16.3,84.6 24.6,177 23.4,273.8 4.3,190.9 -28.6,402.2 -111.2,607.4 197.8,-41.7 395.2,-66.6 584.2,-66.6 165.1,0 323.8,19 470.8,62.6 l -639.1,-814.2 c -49.9,-63.5 -124.6,-97.4 -200.4,-97.4" style="fill:#9d24a1;fill-opacity:1;fill-rule:nonzero;stroke:none" id="path94" data-index="41"/>
      <path d="m 13647.4,14280.6 c -7.6,32.6 -19.9,64.3 -37,93.8 51.3,31.9 100.2,68.3 146.4,109.5 -2,-42.9 -17,-85.6 -45.4,-121.8 l -64,-81.5" style="fill:#a5a8bd;fill-opacity:1;fill-rule:nonzero;stroke:none" id="path96" data-index="42"/>
      <path d="m 12730,12925.8 -281.9,21.8 -199.2,123.9 c 20.6,32.8 39.2,69.7 55.5,110.3 52.2,-32.9 105.3,-66.2 159.6,-100.3 35.1,-22.2 74.3,-32.8 113.1,-32.8 63.3,0 125.5,28.3 167.3,81.5 l 903,1150.4 64,81.5 c 28.4,36.2 43.4,78.9 45.4,121.8 27.2,24.3 53.4,50.3 78.7,78.2 l -1.4,-229.8 -1104.1,-1406.5" style="fill: rgb(55, 26, 69); fill-opacity: 1; fill-rule: nonzero; opacity: 1;" id="path98" data-index="43"/>
      <path d="m 10061.2,14587.1 c -121.15,75.2 -209.91,130 -275.17,169.9 l 1494.07,1903.3 c 14.8,-14.6 30.7,-30.4 47.8,-47.2 l -604.5,-850.5 c -131.8,-185.5 -161.7,-409.3 -105.5,-609 l -234.4,-298.6 c -136,-92.5 -246.5,-192.3 -322.3,-267.9" style="fill: rgb(136, 158, 188); fill-opacity: 1; fill-rule: nonzero; opacity: 1;" id="path100" data-index="44"/>
      <path d="m 10383.5,14855 234.4,298.6 c 13.5,-47.8 31.9,-94.2 55,-138.3 -105.2,-45 -202.6,-101.2 -289.4,-160.3" style="fill:#9d24a1;fill-opacity:1;fill-rule:nonzero;stroke:none" id="path102" data-index="45"/>
      <path d="m 11327.9,16613.1 c -17.1,16.8 -33,32.6 -47.8,47.2 l 148.5,189.2 c 12.1,-12.1 25.3,-25.1 39.5,-39.2 l -140.2,-197.2" style="fill:#a5a8bd;fill-opacity:1;fill-rule:nonzero;stroke:none" id="path104" data-index="46"/>
      <path d="m 9968.77,14488.7 -264.34,164.3 81.6,104 c 65.26,-39.9 154.02,-94.7 275.17,-169.9 -42.1,-42.1 -73.46,-76.6 -92.43,-98.4 m 1499.33,2321.6 c -14.2,14.1 -27.4,27.1 -39.5,39.2 l 69.4,88.5 35.9,-35.2 -65.8,-92.5" style="fill:#371a45;fill-opacity:1;fill-rule:nonzero;stroke:none" id="path106" data-index="47"/>
      <path d="m 9704.43,14653 -112.5,70 1828.77,2290.8 77.3,-75.8 -69.4,-88.5 -148.5,-189.2 -1494.07,-1903.3 -81.6,-104" style="fill:#371a45;fill-opacity:1;fill-rule:nonzero;stroke:none" id="path108" data-index="48"/>
      <path d="m 10245.6,16700.6 -773.37,1027.5 c -11.26,15 -18.55,31.7 -22.04,48.9 3.49,-17.2 10.78,-33.9 22.05,-48.9 l 773.36,-1027.5 v 0" style="fill:#7489bc;fill-opacity:1;fill-rule:nonzero;stroke:none" id="path110" data-index="49"/>
      <path d="m 10245.6,16700.6 -773.36,1027.5 c -11.27,15 -18.56,31.7 -22.05,48.9 -0.14,0.7 -0.28,1.4 -0.41,2.1 l 0.43,0.6 c 0,0 621.39,-683.8 940.69,-717.2 l 67.9,-90.3 -213.2,-271.6" style="fill:#b99a18;fill-opacity:1;fill-rule:nonzero;stroke:none" id="path112" data-index="50"/>
      <path d="m 10160.6,16592.2 c -182.49,286.4 -752.97,1133.2 -752.97,1133.2 l 42.15,53.7 c 0.13,-0.7 0.27,-1.4 0.41,-2.1 3.49,-17.2 10.78,-33.9 22.04,-48.9 l 773.37,-1027.5 -85,-108.4" style="fill:#371a45;fill-opacity:1;fill-rule:nonzero;stroke:none" id="path114" data-index="51"/>
      <path d="m 10505,17031.1 -30.9,41.1 c 0,0 -0.1,0 0,0 l 30.9,-41.1 v 0" style="fill:#371a45;fill-opacity:1;fill-rule:nonzero;stroke:none" id="path116" data-index="52"/>
      <path d="m 10505,17031.1 -30.9,41.1 v 0 l 30.9,-41.1 v 0" style="fill:#b99a18;fill-opacity:1;fill-rule:nonzero;stroke:none" id="path118" data-index="53"/>
      <path d="m 10505,17031.1 -30.9,41.1 c 19.8,8.3 37.3,21.3 51.8,39.9 l 26.5,-20.8 -47.4,-60.2" style="fill:#371a45;fill-opacity:1;fill-rule:nonzero;stroke:none" id="path120" data-index="54"/>
      <path d="m 10458.8,16972.2 -67.9,90.3 c 7.9,-0.9 15.7,-1.3 23.3,-1.3 21.7,0 41.8,3.5 59.9,11 l 30.9,-41.1 -46.2,-58.9" style="fill:#b9a56b;fill-opacity:1;fill-rule:nonzero;stroke:none" id="path122" data-index="55"/>
      <path d="m 10217.2,16498.3 c -0.7,0 -1.1,0.4 -1.2,1.3 -0.6,5 -21.2,38.9 -55.4,92.6 l 85,108.4 v 0 l 213.2,271.6 46.2,58.9 v 0 0 l 47.4,60.2 79.2,-62.2 c 0,0 -389.7,-530.8 -414.4,-530.8" style="fill:#371a45;fill-opacity:1;fill-rule:nonzero;stroke:none" id="path124" data-index="56"/>
      <path d="m 9947.62,14463.8 c 0,0 881.78,1093.9 1799.18,448.8 847.8,-596.1 719.4,-1757.3 355.5,-1933.8 -555.3,-269.4 -2226.94,-148.4 -2154.68,1485" style="fill: rgb(255, 255, 255); fill-opacity: 1; fill-rule: nonzero; opacity: 1;" id="path126" data-index="57"/>
      <path d="m 11513.7,12817.6 c -621.4,0.1 -1415.7,297 -1548.27,1218 2.66,-2.3 5.33,-4.5 8.01,-6.7 156.06,-876.8 930.46,-1161.4 1539.26,-1161.4 237.1,0 449.1,43.2 589.6,111.3 5.5,2.7 11,5.6 16.3,8.7 12.7,-8 25.2,-15.8 37.9,-23.8 -17.3,-14.1 -35.4,-25.8 -54.2,-34.9 -140.3,-68.1 -351.9,-111.2 -588.6,-111.2" style="fill:#7489bc;fill-opacity:1;fill-rule:nonzero;stroke:none" id="path128" data-index="58"/>
      <path d="m 12156.5,12963.7 c -12.7,8 -25.2,15.8 -37.9,23.8 38.7,22.3 74.5,55.9 106.4,98.8 l 23.9,-14.8 c -27.6,-44 -58.6,-80.4 -92.4,-107.8" style="fill:#371a45;fill-opacity:1;fill-rule:nonzero;stroke:none" id="path130" data-index="59"/>
      <path d="m 12304.4,13181.8 c -5.6,3.5 -11.3,7.1 -17,10.7 25.5,54.5 46.7,116.6 62.5,184.6 0.5,-0.3 1.1,-0.7 1.6,-1 2.5,-1.6 5.1,-3.2 7.7,-4.7 -13.2,-69 -31.8,-132.8 -54.8,-189.6" style="fill:#6c7092;fill-opacity:1;fill-rule:nonzero;stroke:none" id="path132" data-index="60"/>
      <path d="m 12359.2,13371.4 c -2.6,1.5 -5.2,3.1 -7.7,4.7 -0.5,0.3 -1.1,0.7 -1.6,1 19.2,82.1 30.6,172.5 32.7,268.1 1.2,-96.8 -7.1,-189.2 -23.4,-273.8" style="fill:#792181;fill-opacity:1;fill-rule:nonzero;stroke:none" id="path134" data-index="61"/>
      <path d="m 12248.9,13071.5 -23.9,14.8 c 22.9,30.9 43.8,66.5 62.4,106.2 5.7,-3.6 11.4,-7.2 17,-10.7 -16.3,-40.6 -34.9,-77.5 -55.5,-110.3" style="fill:#371a45;fill-opacity:1;fill-rule:nonzero;stroke:none" id="path136" data-index="62"/>
      <path d="m 11512.7,12867.5 c -608.8,0 -1383.2,284.6 -1539.26,1161.4 313.86,-261.8 731.26,-361.1 1090.66,-361.1 236.6,0 448,43 588.2,111 203.5,98.7 333.1,505.3 259.8,948.8 334.9,-314 466.2,-728.2 470.5,-1082.4 -2.1,-95.6 -13.5,-186 -32.7,-268.1 -15.8,-68 -37,-130.1 -62.5,-184.6 -18.6,-39.7 -39.5,-75.3 -62.4,-106.2 -31.9,-42.9 -67.7,-76.5 -106.4,-98.8 -5.3,-3.1 -10.8,-6 -16.3,-8.7 -140.5,-68.1 -352.5,-111.3 -589.6,-111.3" style="fill: rgb(185, 175, 190); fill-opacity: 1; fill-rule: nonzero; opacity: 1;" id="path138" data-index="63"/>
      <path d="m 10105.7,14402.8 c -10.1,-514.3 167.4,-895 528.1,-1132.2 465.6,-306.2 1122.6,-281.8 1398.7,-147.8 77.5,37.6 166.4,205 186.4,452.4 29.9,370.5 -102.6,882 -564.2,1206.6 -703.1,494.5 -1389.5,-199.2 -1549,-379 z m 1411.9,-1695.9 c -352.6,0 -745,89.4 -1059.6,296.3 -325.9,214.3 -706.69,642.9 -670.22,1467.7 1.51,34.1 13.87,66.8 35.28,93.4 337.54,418.8 1193.04,1057.8 2015.74,479.2 571.9,-402.1 736.1,-1035.5 699.1,-1494 -28.3,-350.1 -165,-617.3 -365.7,-714.6 -168.7,-81.9 -401.4,-128 -654.6,-128" style="fill: rgb(55, 26, 69); fill-opacity: 1; fill-rule: nonzero; opacity: 1;" id="path140" data-index="64"/>
      <path d="m 26258.5,31930.1 c 0,0 -185.7,23.5 -453.1,-2.4 -318.6,-30.9 -521.1,-353.8 -416.5,-656.3 75.5,-218.6 196.9,-452.6 389.9,-597" style="fill:#ff5722;fill-opacity:1;fill-rule:nonzero;stroke:none" id="path142" data-index="65"/>
      <path d="m 25778.6,30514.4 c -33.3,0 -66.9,10.4 -95.7,31.8 -190.3,142.5 -340.1,368.9 -445.3,672.9 -66.5,192.4 -41.6,400.7 68.1,571.7 108.4,168.9 285,276.8 484.3,296.1 282,27.3 480.3,3 488.6,1.9 87.6,-11 149.8,-91.1 138.7,-178.7 -11.1,-87.6 -91.2,-149.5 -178.6,-138.8 -5.5,0.7 -176.5,20.4 -417.9,-2.9 -101.1,-9.8 -190.7,-64.6 -245.8,-150.5 -56.5,-87.9 -69.2,-195.1 -34.9,-294.2 83.8,-242.4 196.4,-417.8 334.5,-521.2 70.8,-53 85.3,-153.2 32.3,-224 -31.4,-42 -79.5,-64.1 -128.3,-64.1" style="fill:#371a45;fill-opacity:1;fill-rule:nonzero;stroke:none" id="path144" data-index="66"/>
      <path d="m 27282.4,32152.9 c -463.2,0 -902.3,-283.2 -1110.9,-735.6 -201.2,-436.7 -195,-954 18.5,-1537.5 197.3,-539.3 633.3,-966.6 1166.3,-1142.9 835.8,-276.6 1617.6,36.1 2126.2,347.1 321.9,196.9 532.7,525.5 563.8,879 17.4,197.4 -24,356.2 -123,472.4 -168.3,197.6 -456.1,223.3 -458.9,223.5 -43.5,3.1 -83.7,23.8 -111.6,57.2 -27.8,33.5 -40.9,76.8 -36.1,120.1 13.7,123.1 -5.8,205.4 -58,244.5 -127.8,95.8 -478.6,19.1 -675.4,-63 -44,-18.3 -93.8,-16.1 -136,6.1 -42.2,22.2 -72.3,62 -82.1,108.7 -123.2,585.2 -422.4,922.9 -889.4,1003.8 -64.6,11.2 -129.3,16.6 -193.4,16.6 m 729.4,-3840.7 c -242.5,0 -496.8,35.1 -756.1,120.9 -624.9,206.8 -1135.6,706.6 -1366.2,1336.8 -243.7,665.8 -246.5,1265.1 -8.6,1781.3 298.1,646.7 976.6,1017.2 1649.5,900.4 390.1,-67.6 884.8,-312.2 1104.4,-1077.4 218.8,65.2 586.2,134.7 815.8,-37.5 84.1,-63 176.5,-178.6 188.8,-385 145.5,-35.9 365.8,-119 527.5,-308.7 156.7,-183.9 223.4,-422.1 198.2,-708 -40,-454.2 -307.5,-874.4 -715.6,-1123.9 -343.8,-210.3 -942.5,-498.9 -1637.7,-498.9" style="fill: rgb(55, 26, 69); fill-opacity: 1; fill-rule: nonzero; stroke: none; opacity: 1;" id="path146" data-index="67"/>
      <path d="m 28320,29548.7 c 197.4,592.4 -582.2,890.7 -582.2,890.7 57.9,4.9 111.5,7.3 161.2,7.3 975.5,0 421,-898 421,-898" style="fill:#fef298;fill-opacity:1;fill-rule:nonzero;stroke:none" id="path148" data-index="68"/>
      <path d="m 29950.1,30392.3 c -161.3,113.4 -352.8,130.4 -355.2,130.5 -44.3,3.6 -85.7,25.1 -114.1,59.4 -18,21.9 -29.3,48 -34.4,75.3 5.7,-1 11.2,-2.6 16.9,-3.1 2.9,-0.2 290.9,-25.6 458.1,-223.8 10.3,-12.2 19.7,-25.1 28.7,-38.3" style="fill:#fef298;fill-opacity:1;fill-rule:nonzero;stroke:none" id="path150" data-index="69"/>
      <path d="m 26292,29847.1 c -61.5,78.1 -117.4,160.7 -167.3,247.2 -141.9,495.8 -125,939.4 51,1321 207.8,450.9 645.2,733.1 1106.6,733.1 63.9,0 128.4,-5.4 192.7,-16.5 243.3,-42.2 440.5,-155.1 591.2,-336.2 -128.6,105.2 -281.8,173.7 -459.6,204.5 -64.3,11.2 -128.7,16.6 -192.6,16.6 -461.5,0 -898.9,-282.2 -1106.7,-733.1 -189.5,-411 -194.6,-893.9 -15.3,-1436.6" style="fill:#fef298;fill-opacity:1;fill-rule:nonzero;stroke:none" id="path152" data-index="70"/>
      <path d="m 26701.8,29127.9 c -224,203.8 -400.9,462 -507.6,753.5 -26.3,72 -49.5,143 -69.5,212.9 49.9,-86.5 105.8,-169.1 167.3,-247.2 10.6,-32.2 21.9,-64.7 33.9,-97.3 84.8,-231.8 214,-442.7 375.9,-621.9" style="fill:#fedc98;fill-opacity:1;fill-rule:nonzero;stroke:none" id="path154" data-index="71"/>
      <path d="m 28653.5,30869.2 c -26.4,0 -52.8,6.4 -76.7,18.9 -43.4,22.8 -74.3,63.8 -84.4,111.8 -0.3,1.6 -0.7,3.1 -1.1,4.7 10.8,-2 21.8,-3.1 32.7,-3.1 20.8,0 41.5,3.8 61.1,12 131.4,54.8 331.7,107.3 487.4,107.3 76.3,0 141.9,-12.6 183.4,-43.7 27.4,-20.6 45.2,-53.9 54,-98.9 -31.6,7.4 -67.7,10.6 -106.7,10.6 -155.5,0 -355.2,-52.2 -486.5,-106.9 -20.3,-8.5 -41.8,-12.7 -63.2,-12.7" style="fill:#fef298;fill-opacity:1;fill-rule:nonzero;stroke:none" id="path156" data-index="72"/>
      <path d="m 27697.9,30428.2 c 43.3,28.7 91,49.8 140.3,67.5 49.3,18.3 101,30.4 154.5,38 106.5,14.6 223.3,7.2 334.5,-40.6 111.2,-46.6 208.2,-137.5 266.9,-242.5 59.7,-105 89,-218.6 101.8,-328.2 l 0.2,-1.9 c 0.5,-4.1 0.7,-8.6 0.6,-12.6 -1,-39.5 -4.9,-65.2 -10,-96 -4.9,-29.6 -12.1,-58.5 -20,-87.1 -17.8,-56.9 -40.8,-112.5 -71.7,-164.4 -61.5,-103.8 -153,-191.9 -258.5,-246.3 -106.7,-52.6 -220.2,-73.2 -328.6,-73.6 -54.2,1.2 -107.5,8.8 -159.3,16.3 -51.5,13.1 -102,26.9 -150.7,44 51.6,12.3 101.5,21.1 150.3,29.4 48.2,14.6 95.9,24.1 141,39 89.9,31 171.1,70.1 237.5,121.2 64.3,53.7 114.1,116.4 148.2,189.3 9.4,17.6 15.4,37.5 23.6,55.8 6.2,19.4 12.4,38.9 17.2,58.7 4.9,19.9 9.6,39.8 12.4,60 3.3,18.6 4.7,43 5.5,53.7 l 0.8,-14.5 c -9.1,87.5 -28.8,169.7 -60.3,241.5 -32.2,71.5 -78.2,130.7 -143.4,176.4 -64.5,46.5 -148.6,76.6 -240,94.3 -91.8,18 -190.1,24 -292.8,22.6" style="fill:#371a45;fill-opacity:1;fill-rule:nonzero;stroke:none" id="path158" data-index="73"/>
      <path d="m 27004.1,31165.4 c 0,-119.7 -97.1,-216.8 -216.8,-216.8 -119.7,0 -216.8,97.1 -216.8,216.8 0,119.8 97.1,216.8 216.8,216.8 119.7,0 216.8,-97 216.8,-216.8" style="fill:#371a45;fill-opacity:1;fill-rule:nonzero;stroke:none" id="path160" data-index="74"/>
      <path d="m 9780.02,12286.6 c 22.95,-97.6 52.93,-192.4 87.33,-285.5 17.35,-46.4 33.87,-92.9 53.6,-138.3 18.2,-45.9 38.21,-91 59.48,-135.5 83.17,-178.5 176.77,-350.8 283.27,-514.4 212.4,-327.3 466.2,-623.3 748.9,-886.3 284.1,-261.9 595.3,-492.6 926.1,-692.7 331.8,-198.7 681.5,-367.7 1040.8,-515.6 722.3,-288.4 1481.8,-494.1 2257.8,-635 775.7,-145.9 1565.3,-233.5 2362.7,-318.8 -797.9,-80.5 -1605.3,-75.6 -2408.5,11 -802.8,86.2 -1601.6,272.1 -2361.2,576.3 -377.5,157.2 -745.8,341.1 -1091.1,565.2 -344.2,225.3 -665,489.2 -946.1,790.6 -281.4,301.3 -515.5,645.2 -698,1010.9 -86.4,185.7 -162.42,375.5 -217.08,571.3 -54.17,195.4 -94.63,395.6 -98,596.8" style="fill: rgb(149, 196, 252); fill-opacity: 1; fill-rule: nonzero; opacity: 1; visibility: visible;" id="path162" data-index="75"/>
      <path d="m 9325.38,9952.8 c 48.69,-123.3 110.22,-239.7 176.84,-352.2 67.53,-112 138.42,-221.3 218.68,-323.7 38.28,-52.3 80.06,-102.1 120.53,-152.5 43.3,-48.3 83.56,-98.8 129.33,-144.7 44.54,-46.8 88.44,-94 135.24,-138.5 23.2,-22.4 45.6,-45.5 69.3,-67.4 l 72.1,-64.4 c 386.7,-340.7 830.7,-610.5 1304.5,-814 473.2,-206.3 975.3,-346.1 1485.6,-453.4 511.8,-104.1 1034.1,-164.5 1561.8,-217.1 -527.9,-49.8 -1063.2,-42.9 -1593.2,27.7 -264.8,36.4 -529.3,83.6 -788.6,154.6 -130.6,31.6 -258.1,75.1 -386.4,116.1 -64.3,20 -126.3,47.1 -189.6,70.3 -63,24 -126.2,47.6 -187.4,76.2 -248.6,105.4 -487.1,236.1 -712.9,385.5 -225.3,150 -437.5,321.2 -625.9,515.7 -189.51,193.1 -357.67,407.2 -494.33,639.2 -68.16,116 -128.73,236.3 -179.48,360.3 -50.29,123.9 -93.54,251.2 -116.11,382.3" style="fill: rgb(149, 196, 252); fill-opacity: 1; fill-rule: nonzero; opacity: 1; visibility: visible;" id="path164" data-index="76"/>
      <path d="m 32042.4,16642.8 c 82.2,-163.2 146.1,-335.2 203.8,-509.2 58.4,-174 103.7,-352.1 144.5,-531.7 78.5,-359.9 123.3,-728.7 132.1,-1100.3 17.9,-742.7 -118.2,-1498.8 -416.5,-2191.1 -39.5,-85.5 -77,-171.9 -118.7,-256.2 l -134.1,-248.6 c -21.5,-41.9 -48.2,-80.8 -73.3,-120.5 l -76.2,-118.8 c -25.6,-39.4 -50.2,-79.5 -76.8,-118.3 l -84.5,-112.7 -84.9,-112.4 c -28.2,-37.5 -56.2,-75.1 -87.9,-109.7 l -185.8,-210.8 c -30.1,-35.8 -64.1,-68 -97.4,-100.7 l -100.1,-98 c -67.3,-64.7 -133,-130.9 -206,-188.8 -565.7,-484.7 -1216.3,-853.8 -1905.1,-1092 613,394.1 1187.7,825.8 1680.7,1330 64.5,60.1 121.1,127.6 179.2,193.4 l 87.8,98 c 29.3,32.6 59.2,64.6 85.1,100 l 161.9,206.3 c 28.2,33.4 52.5,69.6 77,105.7 l 74,107.8 c 195.2,288 369.5,590.5 503.3,911.3 274.8,638 429.4,1327.8 472.4,2032.4 22.6,352.3 17.9,708 -7.2,1064.6 -4.2,89.5 -14.7,178.3 -22.2,267.8 l -33,267.5 c -11.2,89.4 -25.3,178.6 -41.1,267.6 -14,89.5 -31.8,178.3 -51,267.4" style="fill: rgb(149, 196, 252); fill-opacity: 1; fill-rule: nonzero; opacity: 1; visibility: visible;" id="path166" data-index="77"/>
      <path d="m 27939.7,27318.9 c -173.4,-43.9 -352.4,-61.1 -531.7,-69.8 -179.4,-6.3 -360.2,1.1 -539.8,25.4 -359,45.5 -717.1,158.4 -1032.2,355.4 -156.3,99 -304.2,215.4 -427.4,355.3 -123.2,139.2 -230,293.1 -308.6,460 -158.4,333.1 -222.4,699.4 -209.1,1054.8 76.9,-347.8 185.7,-681.6 358.6,-974.6 88.7,-145.1 192.3,-278.5 309.1,-398.6 l 90.2,-87.5 96.6,-80.5 c 66.3,-51.1 133.4,-101.7 205.9,-144.6 285.1,-179.2 609.9,-296.5 946.4,-373.2 168.6,-37.1 340.3,-67.3 514.3,-85.8 174,-20.7 349.6,-32.4 527.7,-36.3" style="fill: rgb(149, 196, 252); fill-opacity: 1; fill-rule: nonzero; opacity: 1; stroke-width: 2px; stroke: rgb(149, 196, 252); visibility: visible;" id="path168" data-index="78"/>
      <path d="m 31284,29152.8 c -5.4,-24.4 2.1,-48.6 6.2,-73.4 l 13.5,-74.4 c 9,-50 14.2,-100.8 19.3,-152.3 7.5,-102.9 3.5,-208.3 -14.8,-313.3 -35.6,-209.4 -138.8,-417.7 -298.2,-570.2 -79.1,-76.3 -168.7,-140 -263.6,-191 -48.7,-22.2 -96,-48.1 -146.5,-64.3 -25,-8.8 -49.6,-18.7 -74.8,-26.4 l -76.1,-20.4 c -203.3,-50.9 -411,-59.1 -612.9,-28 194.4,62.4 382.6,118.3 556.3,196 87.5,36.9 169.3,81.7 247.8,128.7 76.7,49.7 148.5,104.3 212.2,166.5 128.5,123.4 222.8,278.1 284.9,453.7 31.6,87.6 55.4,180 75.9,275.6 10.8,47.8 18.7,96.5 28.4,145.8 l 14.7,74.8 c 7.1,24 9.8,52.6 27.7,72.6" style="fill: rgb(149, 196, 252); fill-opacity: 1; fill-rule: nonzero; opacity: 1; visibility: visible;" id="path170" data-index="79"/>
      <path d="m 31764,28041.5 c -10.1,-19.4 -9,-41.9 -11,-63.8 l -4.3,-66.3 c -2.9,-44.4 -8.7,-88.8 -15,-133.6 -15.3,-88.9 -38.2,-178.1 -74.6,-263.4 -69.6,-171.5 -195.3,-327.9 -357.2,-429 -80.5,-50.7 -167.7,-89 -257.3,-116.1 -90.2,-23.8 -181.6,-41.8 -273.2,-44.3 -182.7,-10.7 -362.9,15.3 -532.8,70.2 178.2,10.3 351.8,20.1 518.2,52.2 83.3,15.5 163.6,38.1 241.6,64.5 76.9,28.8 150.6,63.5 218.5,106.7 136.9,85.3 247.5,206.9 332.2,350.5 41.6,72.1 78.5,148.9 110.2,229.2 16.7,40 31.2,81 46.9,122.4 l 23.7,62.4 c 9.5,19.8 16,43.8 34.1,58.4" style="fill: rgb(149, 196, 252); fill-opacity: 1; fill-rule: nonzero; opacity: 1; stroke-width: 2px; stroke: rgb(149, 196, 252); visibility: visible;" id="path172" data-index="80"/>
      <path d="m 29882,14612.1 c -1025.2,-1514.5 -2776.4,-167.7 -3754.4,760.7 -652,618.8 -1139.2,885.6 -1664.8,903.2 -429.6,14.1 -845.6,-150 -1166,-435.5 l -832.4,-742.1 c -220.4,-196.7 -388,-446.3 -482,-726.3 -238,-707.7 -202.8,-1397.3 463.6,-2282.5 810.8,-1077.5 1948.8,-2970.8 327.6,-3816.8 -326,-170 -629.6,-165.2 -901.2,-61.9 -821.6,311.2 -1356,1520.3 -1356,1520.3 -4044.8,1569.6 -2612,4281.6 -2612,4281.6 -2098.8,2416.5 -4047.6,6640.4 -4047.6,6640.4 l 4742,4229.3 c 0,0 638.8,-365.6 1544,-955.2 h 0.4 c 1178,-767.2 2806.8,-1912.9 4066.4,-3124.5 200.8,-192.3 392,-387.2 570.4,-581.9 0,0 2812,997.1 3910.4,-3200 0,0 1168.4,-684.9 1363.6,-1551.6 61.6,-272.8 26.4,-564.1 -172,-857.2" style="fill: rgb(255, 255, 255); fill-opacity: 1; fill-rule: nonzero; opacity: 1;" id="path174" data-index="81"/>
      <path d="m 22277,8299.3 c -9.2,0 -18.5,0.2 -27.7,0.5 -1,0 -1.9,0 -2.9,0 -31,0 -62,1.7 -93,5.2 594.4,233.7 1358.3,771.9 1037.4,1961.8 -502.8,1864.5 -1662.8,794.4 -2266.4,2760 -589.1,1918.4 1787.6,4280.8 3433.8,4280.8 40.6,0 80.5,-1.4 120.1,-4.3 2141.4,-156.9 1909.7,-1581.6 2562.1,-2262.9 363.8,-380 1004.5,-640.5 1605.6,-640.5 512.8,0 996.7,189.3 1256.2,655.5 -5,-21.7 -8.6,-43.7 -15,-65.1 -16.6,-47.2 -30.4,-95.1 -54.6,-140.2 -19,-46.8 -48.7,-89.8 -74.7,-134.2 -28.6,-44 -63.5,-87.4 -94.6,-131.3 -34.7,-41 -69.6,-81.9 -105.7,-121 l -57.1,-55 -28.5,-27.6 -30.6,-24.5 -61.2,-48.9 c -20.8,-15.6 -43.3,-28.3 -64.8,-42.7 -42.2,-30.5 -89.7,-50.2 -134.8,-74.6 -94.4,-39.2 -191.5,-73.7 -294.4,-86.2 -62.3,-8.8 -125.6,-13.9 -189.6,-13.9 -40.9,0 -82.1,2.1 -123.5,6.6 -52.8,2.7 -105.8,13.9 -158.9,21.7 -52.8,11.8 -105.9,22.1 -158.4,37.8 -210.4,59.7 -416.6,149.1 -614.2,258.7 -396.4,218.2 -763.2,500.9 -1110.3,805.1 -86.4,76.7 -172.4,154.2 -256.5,233.9 -84.8,79.6 -174.2,163.1 -264.4,241.9 -181.2,158.6 -374.5,308.5 -587,437.6 -213.2,126.7 -450.7,232.5 -706.9,275.9 -100.7,17.8 -203,26.7 -305.4,26.7 -156.2,0 -312.6,-20.7 -462.8,-61.8 -248.7,-68.3 -480.8,-189.3 -680.6,-349.3 -25.2,-19.8 -49,-41.2 -73.5,-61.8 l -66.1,-58.8 -131.5,-117.3 -263,-234.5 -263,-234.6 -133,-119.1 c -47.3,-43.3 -92.4,-88.9 -134.9,-137 -170.6,-191 -302.6,-420.2 -379.9,-663.8 -75.4,-234.4 -130.5,-482.7 -133.1,-737.4 l -0.7,-95.3 5.5,-95.2 c 1.8,-63.7 14.3,-126.3 21.4,-189.4 12,-62.2 23.3,-124.8 39.2,-185.9 17.6,-60.5 31.7,-122.5 54.4,-181 81.6,-237.9 197.6,-458.8 330.4,-664.2 32.9,-51.7 66.5,-102.8 102.8,-151.6 35.3,-48.8 71.6,-100.6 105.7,-145.6 69.6,-92.7 136.7,-186.9 203.1,-281.5 262.6,-379.5 501.7,-776.2 673.2,-1195 86.3,-208.7 151.7,-423.8 187,-639.6 9.6,-54 13.8,-107.9 19.4,-161.7 1.8,-53.6 6.9,-107.5 3.5,-160.4 -0.6,-106.5 -16.9,-210.3 -42.9,-310.1 -24.2,-100.9 -69.6,-193.4 -119.2,-282.7 -29.4,-42 -54.4,-87 -89.5,-125.4 -16.8,-19.7 -32,-40.6 -49.9,-59.5 l -55.5,-55.2 -27.8,-27.6 -30.7,-25.2 -61.1,-50.5 c -43.1,-31.4 -87.7,-61.4 -132.3,-91.2 -47.2,-25.9 -94.3,-55.6 -141.3,-78.9 -47,-20.9 -93.1,-45.5 -141.8,-59 -47.5,-18.9 -96.8,-27.2 -145.5,-38.3 -24.5,-4.3 -49.2,-5.2 -73.8,-8.3 -15.4,-2.5 -30.8,-3.1 -46.3,-3.1" style="fill: rgb(185, 175, 190); fill-opacity: 1; fill-rule: nonzero; opacity: 1;" id="path176" data-index="82"/>
      <path d="m 18625.4,24928.7 c 589.8,-277.9 1152.9,-602.1 1705.3,-944.3 551.1,-344.2 1089.2,-709.3 1615.8,-1091.3 523.8,-385.9 1037.4,-786.6 1532.6,-1211 493.5,-426.5 971.4,-872.9 1418.8,-1353.3 l -171.5,42.7 c 37.7,12.6 66.1,20.6 98.2,29 31.2,8.4 62.3,15.4 93.3,22.3 62.1,13.5 124.4,24.1 186.7,33.3 124.8,17.6 250.3,25.9 376,27.7 251.1,0.3 503.6,-27.7 746.9,-94.3 487.2,-131 935.3,-399.1 1285.3,-752.9 176.2,-175.5 336.5,-366.5 472.5,-571.6 72.5,-100.1 132.3,-207.2 195.9,-312.2 33,-51.9 58.3,-107.5 87.5,-161.3 l 84.4,-162.8 c 211.6,-440.2 368.5,-900.9 492.2,-1367.4 l -73.8,97.5 c 109.9,-66.5 206.9,-133.5 306,-205.7 97.9,-71.8 193.2,-147.3 285.5,-227 184.8,-158.9 358.1,-334.5 509.3,-533.9 148.5,-200.3 278.5,-427.5 336.8,-688.8 6.2,-32.8 15.1,-64.9 18.7,-98.3 l 11,-100.5 c 1.5,-67.6 4,-135.7 -5.7,-203.3 -3.2,-33.9 -6.8,-67.7 -15.3,-100.7 -7.6,-33 -13.6,-66.7 -23.1,-99.1 -21.5,-64 -41.8,-128.7 -72.7,-187.9 -26.2,-62 -62.6,-116.7 -96.6,-173.3 -35.4,-54.3 -74.1,-102.8 -111.3,-154.4 -40.9,-48.8 -82.4,-97.4 -126,-144.4 l -69.7,-67.2 -35,-33.5 -38,-30.8 -76.6,-60.9 c -26.2,-19.5 -54.7,-36.3 -82.1,-54.5 -53.8,-37.9 -114.7,-64.9 -173.3,-95.5 -121.6,-51.6 -248.7,-94.8 -379.6,-111.5 -130,-18.6 -261.7,-23.1 -389.4,-9.5 -64.7,3.7 -127,16.3 -190.1,26.1 -61.7,13.4 -124.2,26 -184.2,43.8 -241.8,68.5 -469,168.4 -682.2,286.3 -427.6,235.7 -809,531.2 -1168.1,845.6 -89.2,79.3 -177.8,159.1 -264.3,241 -86.5,81.2 -168.8,158 -255.5,233.9 -172.1,150.7 -352,289.3 -541.1,404.3 -189.8,112.5 -389.5,200.2 -598,235.1 -208.5,36.8 -423.6,27.2 -628.4,-28.7 -204.5,-56.2 -397.7,-156.5 -564.6,-290.1 -21,-16.5 -40.8,-34.5 -61.3,-51.6 l -65.6,-58.3 -131.4,-117.2 -263.1,-234.6 -263,-234.5 -129.5,-116 c -39.3,-36 -76.9,-74 -112.2,-114 -142.1,-159.5 -250.1,-346.3 -314.9,-550.6 -68,-212.2 -115.4,-428.2 -117.3,-644.2 l -0.7,-80.9 4.8,-80.6 c 1.1,-54 12.4,-107 18,-160.6 10.5,-53 19.9,-106.3 33.5,-158.8 15.6,-52.1 27,-105.1 47.1,-156.3 71,-206.7 174.3,-405.2 296.5,-593.9 30.1,-47.5 60.9,-94.6 94.9,-140.1 33.6,-46.3 64.5,-90.9 101.2,-139.5 71.5,-95.2 140.8,-192.4 209.3,-290 271.4,-392.6 521.5,-805.2 706.9,-1256.9 92.9,-225.3 166.1,-462.4 206.7,-710.4 10.8,-61.7 16.1,-125.2 22.5,-188.1 2.5,-63.7 7.9,-127.1 4.2,-191.7 -1.1,-128.5 -20.5,-258.8 -53.9,-385.9 -31.5,-128.1 -88.8,-249.4 -154,-364.3 -37,-54.7 -70.8,-112.2 -114.6,-161.3 -21.2,-25.1 -41.1,-51.6 -63.6,-75.3 l -69.2,-69.2 -34.9,-34.2 -37.2,-31 -74.8,-61.6 c -51.6,-37.9 -104.7,-73.7 -157.8,-108.7 -55.4,-31 -108.1,-64 -166.1,-93 -60.1,-27.3 -118.5,-57.2 -183.2,-76.2 -62.3,-23.9 -128.9,-36.7 -194.9,-50.8 -33.3,-5.7 -67.5,-7.8 -101.2,-11.7 -33.7,-4.6 -67.7,-4.3 -101.7,-3.6 -68.3,-1.9 -135.6,8.3 -202.7,17.5 l -98.5,22.3 c -32.9,7.4 -63.7,19.9 -95.6,29.8 -252.9,87.8 -463.8,242.8 -645.9,413.1 -180.9,173 -335.5,365.3 -472.3,566.9 -68.6,100.8 -132.8,204.1 -193,309.6 -60.4,106.7 -115.9,210.6 -169.4,327.5 l 88.4,-84.5 c -449.7,176.3 -889.8,385.6 -1302,649.2 l -151.4,103.9 c -50.2,35.2 -102,67.8 -149.6,107 -96.8,75.8 -195.3,149.4 -285.6,234.1 -45.3,42.1 -94.1,79.9 -136.3,125.6 l -130.3,132.8 c -43,44.6 -81.6,93.9 -122.5,140.7 -20,23.8 -40.6,47.1 -60.2,71.4 l -55.5,75.4 c -302.1,397.4 -501.8,883.1 -552.6,1385.9 -25.1,251.2 -14.7,504.7 25.1,752.5 21.7,123.7 49.4,246.3 85.8,366.7 18.4,60.2 38.3,119.9 61,179.2 11.2,29.6 23,59.2 35.8,88.8 13,30.4 25.1,57.3 42.8,92.3 l 20.7,-179.6 c -259.2,299.8 -506.1,608.5 -742.8,924.1 -238.5,314.4 -464,637.7 -680.9,966.1 -214.7,329.9 -417.6,667 -607.6,1011.1 -188.6,344.9 -364.6,696.7 -514.4,1061.8 -11.2,27.4 1.9,58.9 29.4,70.1 23.2,9.5 49.3,1.5 63.6,-17.7 234.6,-316 452.6,-640 669.3,-964 l 645.4,-972.5 c 214.4,-324.1 434.4,-643.9 660.8,-958.5 228.3,-313.2 465.6,-619.5 718.8,-910.7 43.7,-50.3 50.4,-120.1 22.4,-176.3 l -1.7,-3.3 c -9,-18 -21.6,-45.1 -31.8,-69.3 -10.9,-25 -21,-50.5 -30.8,-76.4 -19.8,-51.7 -37.4,-104.6 -53.8,-158 -32.2,-106.9 -56.9,-216.3 -76.4,-326.5 -35.3,-220.9 -44.5,-445.7 -22.4,-667.3 45.4,-443.3 218.9,-869.2 491.2,-1227.7 l 49.9,-68.1 c 17.7,-21.9 36.5,-43 54.7,-64.6 37.3,-42.5 71.8,-87.2 111.3,-127.9 l 119.2,-121.5 c 38.3,-41.9 84,-76.8 125.6,-115.6 82.9,-78.2 175,-146.6 265.1,-217.3 44,-36.5 93.1,-67.1 140,-100.1 l 142.2,-97.7 c 388.6,-248.4 810,-449.6 1244.3,-619.8 40.4,-15.8 70.8,-46.1 87.6,-82.6 l 0.9,-1.9 c 44.3,-96.8 99.1,-200.6 154.6,-298.2 56.2,-98.5 116.2,-194.9 179.8,-288.4 126.7,-187 268.8,-362.4 427.7,-514.4 159.6,-149.7 337.9,-277 530.8,-343.1 95.8,-35 194.9,-52.3 293.7,-51.9 24.7,-0.7 49.4,-1.3 74,2.6 24.6,3.1 49.3,4 73.8,8.3 48.7,11.1 98,19.4 145.5,38.3 48.7,13.5 94.8,38.1 141.8,59 47,23.3 94.1,53 141.3,78.9 44.6,29.8 89.2,59.8 132.3,91.2 l 61.1,50.5 30.7,25.2 27.8,27.6 55.5,55.2 c 17.9,18.9 33.1,39.8 49.9,59.5 35.1,38.4 60.1,83.4 89.5,125.4 49.6,89.3 95,181.8 119.2,282.7 26,99.8 42.3,203.6 42.9,310.1 3.4,52.9 -1.7,106.8 -3.5,160.4 -5.6,53.8 -9.8,107.7 -19.4,161.7 -35.3,215.8 -100.7,430.9 -187,639.6 -171.5,418.8 -410.6,815.5 -673.2,1195 -66.4,94.6 -133.5,188.8 -203.1,281.5 -34.1,45 -70.4,96.8 -105.7,145.6 -36.3,48.8 -69.9,99.9 -102.8,151.6 -132.8,205.4 -248.8,426.3 -330.4,664.2 -22.7,58.5 -36.8,120.5 -54.4,181 -15.9,61.1 -27.2,123.7 -39.2,185.9 -7.1,63.1 -19.6,125.7 -21.4,189.4 l -5.5,95.2 0.7,95.3 c 2.6,254.7 57.7,503 133.1,737.4 77.3,243.6 209.3,472.8 379.9,663.8 42.5,48.1 87.6,93.7 134.9,137 l 133,119.1 263,234.6 263,234.5 131.5,117.3 66.1,58.8 c 24.5,20.6 48.3,42 73.5,61.8 199.8,160 431.9,281 680.6,349.3 248.7,68 514,80.1 768.2,35.1 256.2,-43.4 493.7,-149.2 706.9,-275.9 212.5,-129.1 405.8,-279 587,-437.6 90.2,-78.8 179.6,-162.3 264.4,-241.9 84.1,-79.7 170.1,-157.2 256.5,-233.9 347.1,-304.2 713.9,-586.9 1110.3,-805.1 197.6,-109.6 403.8,-199 614.2,-258.7 52.5,-15.7 105.6,-26 158.4,-37.8 53.1,-7.8 106.1,-19 158.9,-21.7 106,-11.5 210.9,-7.1 313.1,7.3 102.9,12.5 200,47 294.4,86.2 45.1,24.4 92.6,44.1 134.8,74.6 21.5,14.4 44,27.1 64.8,42.7 l 61.2,48.9 30.6,24.5 28.5,27.6 57.1,55 c 36.1,39.1 71,80 105.7,121 31.1,43.9 66,87.3 94.6,131.3 26,44.4 55.7,87.4 74.7,134.2 24.2,45.1 38,93 54.6,140.2 7.1,23.8 10.8,48.3 16.7,72.4 6.7,23.9 8.8,48.6 11.1,73.2 11.6,98.1 5.7,198.5 -18.1,297.7 -43.8,199.2 -149.9,390.9 -280.4,566.5 -132.9,175.2 -290.9,336.3 -462.3,483.5 -85.6,73.8 -174.5,144.4 -266,211.5 -90.6,66.3 -187.5,132.6 -278.6,187.6 l -1.4,0.9 c -37.1,22.4 -62,57.9 -72.4,96.7 -119.6,450.8 -270.6,892.7 -470.6,1308.7 l -79.6,153.2 c -27.4,50.5 -51.2,103.3 -82.1,151.6 -59.5,97.9 -115.3,198.5 -182.5,290.7 -126.1,190.7 -273.2,365 -432.8,524.2 -317.6,320.9 -713.4,555.4 -1143.3,671.6 -214.8,59 -438.5,83.6 -661.7,83.5 -111.6,-1.6 -223.3,-9 -333.6,-24.5 -55.1,-8.2 -109.9,-17.5 -163.8,-29.2 -26.9,-6 -53.7,-12.1 -79.8,-19.1 -25.3,-6.4 -54,-15 -72.6,-21.1 l -2.6,-0.8 c -61.9,-20.3 -127.2,-1.1 -168.9,43.6 -434.7,467.5 -907.7,901.6 -1396.6,1317.6 -248.8,203.3 -495.8,408.5 -752.3,602.9 -251.3,200.5 -511.9,389.7 -769.7,582.3 -519.2,380.8 -1047.5,749.7 -1578.4,1116 -530.7,366.3 -1063.8,731.2 -1592.5,1104.7 l -0.7,0.5 c -24.1,17 -29.9,50.4 -12.8,74.5 15.2,21.6 43.4,28.4 66.5,17.5" style="fill: rgb(55, 26, 69); fill-opacity: 1; fill-rule: nonzero; opacity: 1;" id="path178" data-index="83"/>
      <path d="m 18823.4,16476.4 c -286,-533.3 -983.7,-1052 -1484.5,-1375.5 -300.4,-194 -701.4,-101.6 -887.5,203.8 -169.7,278.7 -101.4,640.8 158.9,837.5 442.1,334.1 1088.3,855.9 1417.9,1281.9 l 795.2,-947.7" style="fill:#ffffff;fill-opacity:1;fill-rule:nonzero;stroke:none" id="path180" data-index="84"/>
      <path d="m 16995.8,15159.2 c -35.6,0 -71.5,4 -107.2,12.2 -126.3,28.9 -233.1,105.8 -300.5,216.6 -13.4,22 -24.9,44.6 -34.4,67.7 21.3,-2.1 42.7,-3.2 64.2,-3.2 117.8,0 237.2,32.8 343.9,101.7 334,215.6 755.8,518.2 1084.5,854.2 l 273.6,-328.8 c -261.8,-270.1 -625.2,-558.4 -1067.8,-844.3 -77.8,-50.2 -166.1,-76.1 -256.3,-76.1" style="fill:#b9afbe;fill-opacity:1;fill-rule:nonzero;stroke:none" id="path182" data-index="85"/>
      <path d="m 18823.4,16476.4 h 0.5 -0.5 m -690,822.6 c -340.1,-427.2 -960.8,-932.4 -1426.7,-1284.4 -195.3,-147.7 -246.3,-417 -118.6,-626.6 67.4,-110.8 174.2,-187.7 300.5,-216.6 126,-28.9 255,-6.2 363.5,63.9 714.5,461.5 1222.5,929.2 1430.3,1316.7 56.8,105.9 -31.8,267.8 -72.5,332.5 -151.7,240.9 -387.9,394.4 -476.5,414.5 m -1136.9,-2459.9 c -59.6,0 -119.7,6.7 -179.3,20.3 -211.2,48.4 -389.6,177 -502.4,362.1 -213.6,350.5 -128,801.3 199,1048.4 650.6,491.6 1143.4,936.3 1387.9,1252.1 51,66 205.6,196.2 538.3,-19.6 333.7,-216.4 731.1,-716.2 524.4,-1101.6 v 0 c -298.6,-557 -1001.6,-1087.4 -1538.7,-1434.3 -130.2,-84.1 -278.2,-127.4 -429.2,-127.4" style="fill:#371a45;fill-opacity:1;fill-rule:nonzero;stroke:none" id="path184" data-index="86"/>
      <path d="m 22121.8,19220.6 c 576.5,184.2 1213.5,775.9 1622.7,1209.5 245.4,260.1 227.4,671.3 -39,909.7 -243.1,217.7 -611.7,216.4 -852.5,-3.8 -408.9,-374 -1039.5,-914.4 -1518.4,-1161.1 l 787.2,-954.3" style="fill:#ffffff;fill-opacity:1;fill-rule:nonzero;stroke:none" id="path186" data-index="87"/>
      <path d="m 21438.6,20048.8 c 3.5,-90.8 111.5,-351 320.9,-544 56.1,-51.8 199.1,-168.1 313.6,-131.8 418.9,133.9 971.2,548.3 1555,1166.9 88.6,93.9 134.4,216.7 129,345.8 -5.5,129.5 -61.7,248.4 -158.3,335 -182.9,163.6 -457.1,162.5 -637.7,-2.8 -431,-394 -1040.8,-912.6 -1522.5,-1169.1 m 586.9,-1003.2 c -365.4,0 -708.3,413.9 -842.8,738.6 -151.6,366.4 4.5,494.8 78.7,533 354.9,182.8 881.9,586.6 1483.7,1136.9 302.4,276.6 761.3,278.8 1067.1,4.9 161.5,-144.5 255.5,-343.3 264.6,-559.8 9.1,-216 -67.6,-421.7 -216,-578.9 -438.8,-465 -1088.4,-1059.8 -1690.3,-1252.1 -48.4,-15.5 -96.9,-22.6 -145,-22.6" style="fill:#371a45;fill-opacity:1;fill-rule:nonzero;stroke:none" id="path188" data-index="88"/>
      <path d="m 21235.8,20624.5 1268,-1524 c 235.2,-282.8 196.3,-706.8 -86.5,-942 l -2806.7,-2335.1 c -282.3,-234.9 -706.4,-196 -941.6,86.7 l -1267.9,1524 c -235.3,282.8 -196.1,706.4 86.3,941.4 l 2806.7,2335 c 166.5,138.5 381.8,182 578.8,136.9 137.5,-31.6 266.2,-106.6 362.9,-222.9" style="fill: rgb(255, 255, 255); fill-opacity: 1; fill-rule: nonzero; opacity: 1;" id="path190" data-index="89"/>
      <path d="m 20720.3,20704.7 c -118.7,0 -232.2,-40.7 -323.8,-116.9 l -2806.8,-2335.1 c -103.8,-86.4 -167.9,-208.8 -180.3,-344.5 -12.5,-135.8 28.3,-267.8 114.7,-371.7 l 1268,-1524.2 c 179.4,-215.6 500.7,-245.1 716.3,-65.7 l 2806.7,2335.1 c 103.9,86.5 167.9,208.8 180.4,344.6 12.4,135.8 -28.3,267.7 -114.7,371.6 l -1268.1,1524.2 c -86.4,103.9 -208.8,167.9 -344.6,180.4 -16,1.5 -32,2.2 -47.8,2.2 m -1536.5,-5195.4 c -237.8,0 -474,101.6 -637.6,298.3 l -1268.1,1524.2 c -141.1,169.6 -207.7,384.7 -187.4,605.6 20.3,220.9 124.8,420.2 294.4,561.3 l 2806.8,2335.1 c 169.5,141.1 384.4,207.7 605.5,187.3 220.9,-20.2 420.2,-124.8 561.3,-294.3 l 1268.1,-1524.2 c 141.1,-169.6 207.6,-384.6 187.3,-605.5 -20.2,-220.9 -124.8,-420.3 -294.3,-561.4 L 19713,15700.6 c -154.5,-128.6 -342.4,-191.3 -529.2,-191.3" style="fill:#371a45;fill-opacity:1;fill-rule:nonzero;stroke:none" id="path192" data-index="90"/>
      <path d="m 21390,19463.2 c 203.6,-244.8 170.3,-608.3 -74.5,-812 -244.8,-203.6 -608.3,-170.3 -812,74.5 -203.6,244.8 -170.3,608.3 74.5,812 244.8,203.6 608.3,170.3 812,-74.5" style="fill:#22a7f0;fill-opacity:1;fill-rule:nonzero;stroke:none" id="path194" data-index="91"/>
      <path d="m 21115.6,20925.9 c -76.2,41 -159,69.9 -245.9,85.5 75.1,174.9 169.5,340.2 276.7,486 121.6,165.8 174.6,365.9 158,562.5 115.1,-82.1 234.4,-158.1 353,-235 -182.9,-187.8 -323.8,-405.6 -434.6,-636 -40.2,-85.5 -76.2,-173.3 -107.2,-263" style="fill:#b9afbe;fill-opacity:1;fill-rule:nonzero;stroke:none" id="path196" data-index="92"/>
      <path d="m 19183.5,15829.2 c -145.9,0 -290.9,62.4 -391.4,183.1 l -405.2,487.1 c 894.2,126.9 2146.5,796.2 2489.4,1902 2.3,-0.2 4.6,-0.4 6.8,-0.6 21.7,-2 43.4,-3 64.9,-3 162.2,0 318,56.1 444.3,161.2 143,119 231.1,286.6 248.1,471.8 0.4,4.5 0.8,9 1.1,13.5 38.2,-21.5 77.1,-41.2 116.4,-59.1 77,-37.8 157.3,-61.9 236.9,-88.5 80.5,-19.4 161,-42.3 242,-52.9 80.4,-14.6 160.6,-23.4 241.1,-28.8 17.4,-60.3 23.5,-124.1 17.6,-188.7 -12.5,-135.8 -76.5,-258.1 -180.4,-344.6 l -2806.7,-2335.1 c -94.9,-78.9 -210.2,-117.4 -324.9,-117.4 m 1553.3,3929.8 c -84.7,292.9 -65.3,624.8 23.8,944.1 2.5,-0.2 5,-0.4 7.5,-0.6 96.3,-8.8 185.8,-43.6 260.6,-100.1 -22.9,-119.5 -36.1,-241.6 -37.6,-365.7 -1.2,-150.6 16.4,-304.3 60.3,-453.6 -13.6,2.1 -27.2,3.7 -41,5 -21.7,2 -43.3,3 -64.9,3 -71.5,0 -141.7,-10.9 -208.7,-32.1" style="fill: rgb(185, 175, 190); fill-opacity: 1; fill-rule: nonzero; opacity: 1;" id="path198" data-index="93"/>
      <path d="m 19184,15669.8 c -192.1,0 -383.1,81.8 -515,240.3 l -474.1,570.1 c 61.6,3.4 125.9,9.9 192,19.2 l 405.2,-487.1 c 100.5,-120.7 245.5,-183.1 391.4,-183.1 114.7,0 230,38.5 324.9,117.4 l 2806.7,2335.1 c 103.9,86.5 167.9,208.8 180.4,344.6 5.9,64.6 -0.2,128.4 -17.6,188.7 55.2,-3.6 110.4,-5.6 165.9,-6.7 47.8,-234.2 -30.7,-487.2 -226.5,-650 l -2806.8,-2334.7 c -124.1,-103.4 -275.7,-153.8 -426.5,-153.8 m 1844.7,4932.6 c -74.8,56.5 -164.3,91.3 -260.6,100.1 -2.5,0.2 -5,0.4 -7.5,0.6 29.3,104.8 66,208.1 109.1,308.3 86.9,-15.6 169.7,-44.5 245.9,-85.5 -36.4,-105.3 -65.8,-213.2 -86.9,-323.5" style="fill: rgb(55, 26, 69); fill-opacity: 1; fill-rule: nonzero; opacity: 1;" id="path200" data-index="94"/>
      <path d="m 20947.7,18637.8 c -14.1,0 -28.4,0.7 -42.6,2 -121.5,11.1 -231.3,68.9 -309.3,162.6 -13.1,15.8 -25,32.2 -35.8,49.2 39.5,-8.3 79.7,-12.6 120,-12.6 103.7,0 208,28 300.9,85 17.4,197.1 -27.9,394.6 -128.9,566 -8.8,14.9 -17.3,29.9 -25.3,45.2 38.5,10.4 78.6,15.8 119.3,15.8 14.1,0 28.3,-0.6 42.5,-1.9 68.9,-6.3 134.1,-27.7 191.8,-62.1 43.9,-73.2 95.5,-142.1 154.3,-204.2 15.1,-16.1 30.6,-31.8 46.5,-46.9 19,-58.3 26.1,-120.3 20.3,-183.2 -11.1,-121.4 -68.9,-231.2 -162.6,-309.2 -82.8,-68.8 -184.8,-105.7 -291.1,-105.7" style="fill:#2976b4;fill-opacity:1;fill-rule:nonzero;stroke:none" id="path202" data-index="95"/>
      <path d="m 20946,19551 c -106.4,0 -208.5,-36.7 -291.2,-105.6 -93.8,-78 -151.5,-187.8 -162.7,-309.3 -11.1,-121.4 25.7,-239.9 103.7,-333.7 78,-93.7 187.8,-151.5 309.3,-162.6 121.3,-11.2 239.9,25.7 333.7,103.7 93.7,78 151.5,187.8 162.6,309.2 11.1,121.5 -25.7,240 -103.7,333.7 v 0 c -78,93.8 -187.8,151.5 -309.2,162.7 -14.2,1.3 -28.4,1.9 -42.5,1.9 m 2,-1153.2 c -21.5,0 -43.2,1 -64.9,3 -185.2,17 -352.8,105.1 -471.8,248.1 -119,143 -175.2,323.9 -158.2,509.2 17,185.3 105.1,352.8 248.2,471.8 143,119 323.9,175.2 509.1,158.2 185.3,-17 352.8,-105.1 471.8,-248.2 119,-143 175.2,-323.8 158.2,-509.1 -17,-185.2 -105.1,-352.8 -248.1,-471.8 -126.3,-105.1 -282.1,-161.2 -444.3,-161.2" style="fill:#371a45;fill-opacity:1;fill-rule:nonzero;stroke:none" id="path204" data-index="96"/>
      <path d="m 20752.4,16653.4 c -34.4,0 -68.5,14.8 -92.3,43.3 l -865.8,1040.8 -853.2,-41.6 c -37.8,-1.9 -73.9,14.1 -98,43.1 l -867.6,1042.7 c -42.4,51 -35.4,126.6 15.5,169 51,42.4 126.7,35.5 169,-15.4 l 829.3,-996.8 853.1,41.6 c 38.1,1.8 74,-14.1 98.1,-43.1 l 904.1,-1086.8 c 42.4,-51 35.4,-126.6 -15.5,-169 -22.4,-18.7 -49.6,-27.8 -76.7,-27.8" style="fill:#371a45;fill-opacity:1;fill-rule:nonzero;stroke:none" id="path206" data-index="97"/>
      <path d="m 22534.8,18970.4 c -2009.6,114 -1476,2190.4 -617.6,2875.6 l -23.2,16 -1164,800.8 -15.6,12 -1888.8,1464.4 c 0,0 3888.4,0 5238.4,-1421.5 1302,-1370.8 514.4,-3862.9 -1529.2,-3747.3" style="fill: rgb(255, 255, 255); fill-opacity: 1; fill-rule: nonzero; opacity: 1;" id="path208" data-index="98"/>
      <path d="m 22034.3,21956.3 c -7.5,8 -16,15.4 -25.3,21.9 l -0.7,0.4 c -196.8,137.7 -385.6,286.9 -589.2,414.6 -102,63.7 -204.6,126.3 -313.7,179.8 -31.6,15.6 -63.5,30.8 -96,45.1 218.4,-43.4 449.4,-92.8 614.2,-137.3 127.7,-34.5 251.1,-46.7 362,-46.7 265.7,0 459.7,70.5 471.6,74.7 -113.4,-261.2 -272.2,-436.4 -422.9,-552.5" style="fill:#b9afbe;fill-opacity:1;fill-rule:nonzero;stroke:none" id="path210" data-index="99"/>
      <path d="m 22716.9,19127.3 c -141.7,1.3 -287.5,6.2 -427.2,32.1 -71,8.9 -137.8,28.9 -206.1,44.8 -65.3,22.3 -132.2,41.8 -192.7,72 -123.2,56.1 -234.3,131 -323,225.6 -26.6,27.9 -51.1,57.5 -73.4,88.6 203.5,-111.8 467.1,-184.8 800.7,-203.6 46,-2.6 91.3,-3.8 136,-3.8 1356.3,0 2118.6,1176.1 2021.3,2341.9 20.5,-72.5 37.4,-146.1 52.4,-219.9 23.1,-140.9 36.5,-283.4 34.7,-426.3 -5.1,-285.4 -62.3,-570.7 -175,-831.7 -111.5,-260.9 -277.3,-498.2 -488.6,-682.7 -105.7,-91.8 -220.3,-174 -345.9,-236.1 -30.7,-16.7 -61.7,-32.9 -94.6,-45.4 l -96.8,-40.7 c -67.2,-20.1 -132.4,-46.8 -201.8,-59.9 -136.1,-36.6 -278.3,-47.3 -420,-54.9" style="fill:#b9afbe;fill-opacity:1;fill-rule:nonzero;stroke:none" id="path212" data-index="100"/>
      <path d="m 18825.4,24192.4 c 155.3,38.6 309.9,54.9 465,65.6 154.9,9.5 309.8,9.5 464.2,2.2 309.1,-11.6 617.2,-44.2 923.2,-91.2 611.5,-95 1222.9,-209.4 1819.2,-400 297.8,-95.6 591.9,-209.6 874,-356.6 281.3,-147 552.7,-326.9 784.8,-561 30.7,-27.6 55.5,-60.2 83.2,-90.3 26.4,-31.2 55.3,-60.3 79.6,-93.3 49.1,-65.4 100.5,-129.3 142.8,-199.5 91,-136.2 163.1,-284.2 224.2,-435.7 61.4,-151.9 102.2,-310.8 134.2,-470.9 26.8,-161.1 41.9,-324.1 39.7,-487.4 -5.7,-326.1 -70.9,-652 -200.7,-953.4 -128.8,-301 -321.7,-578.7 -571.7,-797 -124.8,-108.6 -261.3,-205.9 -410.1,-279.9 -36.5,-19.8 -73.4,-38.8 -112.2,-53.9 l -114.8,-48 c -79,-24.5 -156.6,-55 -237.8,-70.9 -160.3,-42.4 -325,-55.8 -488.5,-63.9 -163.9,1.1 -325.1,7.1 -486.9,36.5 -81,10.6 -161.5,33.5 -242,52.9 -79.6,26.6 -159.9,50.7 -236.9,88.5 -154.7,70.3 -302.6,168.7 -423.3,297.6 -121.3,128.2 -212.2,285.1 -267.2,449.8 -55.7,164.9 -77.6,336.5 -76.3,504.1 4.1,336.1 93.3,657.7 231.7,952.2 141.1,293.3 331,566.2 594.2,782.9 l 9.1,-258.1 c -198.9,134.6 -405.8,257.5 -597.9,401.9 -95.9,72.5 -191.2,145.9 -280.1,228.6 -44.5,41.1 -88.2,83.6 -129.5,129.5 -41.9,45 -82.1,92.5 -118.8,145 -18.1,25.8 -11.8,61.3 14,79.3 14,9.8 31,12.4 46.4,8.6 62.2,-15.4 120.9,-36 177.9,-59.1 57.7,-22.1 113,-47.7 167.3,-74.5 109.1,-53.5 211.7,-116.1 313.7,-179.8 203.6,-127.7 392.4,-276.9 589.2,-414.6 l 0.7,-0.4 c 72.9,-51 90.7,-151.4 39.7,-224.3 -8.8,-12.7 -19.8,-24.1 -31.2,-33.3 -212.8,-170.8 -382.4,-412.1 -505.6,-668.8 -121.8,-258.2 -197.9,-540.9 -200.8,-817.6 -3.7,-276 77.1,-544.3 256.8,-732.4 88.7,-94.6 199.8,-169.5 323,-225.6 60.5,-30.2 127.4,-49.7 192.7,-72 68.3,-15.9 135.1,-35.9 206.1,-44.8 139.7,-25.9 285.5,-30.8 427.2,-32.1 141.7,7.6 283.9,18.3 420,54.9 69.4,13.1 134.6,39.8 201.8,59.9 l 96.8,40.7 c 32.9,12.5 63.9,28.7 94.6,45.4 125.6,62.1 240.2,144.3 345.9,236.1 211.3,184.5 377.1,421.8 488.6,682.7 112.7,261 169.9,546.3 175,831.7 1.8,142.9 -11.6,285.4 -34.7,426.3 -28.4,139.6 -63.5,278.4 -117.1,410.6 -53.4,131.7 -115.7,260.6 -195.1,378.8 -36.5,61.3 -81.6,116.5 -124.1,173.6 -20.9,28.8 -46.5,54 -69.4,81.2 -24.1,26.1 -45.6,55 -72.2,78.5 -199.3,201.1 -443.2,364.9 -703.6,500.7 -260.8,136.1 -539.4,244.6 -824.2,335.9 -570.6,181.2 -1165.7,301.2 -1766.4,371 l -902.7,99.6 c -301.4,32.4 -602.6,72.6 -904.7,150.8 l -0.5,0.2 c -29.4,7.6 -47,37.6 -39.4,67 5.2,20.1 21,34.7 39.9,39.5" style="fill: rgb(55, 26, 69); fill-opacity: 1; fill-rule: nonzero; opacity: 1;" id="path214" data-index="101"/>
      <path d="m 21829.9,21980.3 c 9.5,12.1 27.6,28.6 42.3,43.3 l 47.7,45 c 31.8,30.3 64.1,60.2 96.7,90 64,60.7 129.6,120.6 190.1,186.7 61.4,65.5 116.5,136.9 167.4,214.1 54.4,76.4 92.9,161.6 137.9,252.8 l 0.9,1.8 c 5.8,11.7 19.9,16.5 31.6,10.8 7.2,-3.6 11.8,-10.4 12.9,-17.7 15.2,-102.3 16.6,-211.6 -5.6,-316.6 -20.8,-105.2 -55.5,-209.8 -105.6,-305.9 -49.1,-96.6 -107.9,-189.5 -181.1,-269.2 -36.6,-39.7 -75.3,-77.8 -118.2,-111.2 -20.7,-17.4 -43.1,-33 -66,-48.4 -23.9,-15.6 -45.3,-28.3 -76.3,-43.7 -78.8,-39.1 -174.3,-6.9 -213.4,71.8 -28.2,56.8 -19.4,122.3 17.2,169 l 21.5,27.4" style="fill:#371a45;fill-opacity:1;fill-rule:nonzero;stroke:none" id="path216" data-index="102"/>
      <path d="m 19821.8,27524.2 c -50.4,-44.3 -127.1,-39.3 -171.4,11.1 l -2308.7,2626.8 c -44.3,50.3 -39.4,127 11,171.3 528.4,464.4 1333.2,412.6 1797.6,-115.8 l 787.3,-895.8 c 464.4,-528.3 412.6,-1333.2 -115.8,-1797.6" style="fill:#ffffff;fill-opacity:1;fill-rule:nonzero;stroke:none" id="path218" data-index="103"/>
      <path d="m 18191.8,30621.7 c -302.4,0 -590.9,-108.4 -820.1,-309.9 -18.6,-16.3 -29.7,-38.9 -31.3,-63.6 -1.6,-24.7 6.5,-48.5 22.9,-67.2 L 19672,27554.3 c 16.4,-18.7 39,-29.8 63.7,-31.4 24.5,-1.7 48.5,6.5 67.1,22.9 249.8,219.5 399.1,523.2 420.5,855.1 21.4,331.9 -87.7,652.2 -307.3,901.9 l -787.3,895.8 c -219.5,249.8 -523.2,399.1 -855.1,420.5 -27.3,1.8 -54.6,2.6 -81.8,2.6 m 1550.1,-3156.5 c -3.3,0 -6.6,0.1 -9.9,0.4 -40,2.6 -76.7,20.6 -103.2,50.7 l -2308.7,2626.8 c -26.5,30.1 -39.7,68.8 -37.1,108.8 2.6,40 20.6,76.6 50.7,103.1 261.4,229.7 596.6,343.9 943.7,321.5 347.1,-22.4 664.8,-178.6 894.5,-439.9 l 787.3,-895.8 c 229.7,-261.3 343.9,-596.4 321.5,-943.6 -22.4,-347.2 -178.6,-664.9 -439.9,-894.6 -27.7,-24.3 -62.5,-37.4 -98.9,-37.4" style="fill:#371a45;fill-opacity:1;fill-rule:nonzero;stroke:none" id="path220" data-index="104"/>
      <path d="m 19804.4,27730.9 c -92.3,187.6 -195.6,369.9 -309.5,546.5 -37.7,62.2 -76.5,123.9 -116.4,185 218,268.7 311.7,609 275.7,939.6 l 163.2,-185.8 c 196.4,-223.4 294.1,-510 274.9,-806.9 -16.4,-255.4 -117.6,-492.1 -287.9,-678.4" style="fill:#b9afbe;fill-opacity:1;fill-rule:nonzero;stroke:none" id="path222" data-index="105"/>
      <path d="m 17487.8,30238.2 2256.9,-2567.8 c 206.3,194 329.3,454.9 347.6,738.9 19.2,296.9 -78.5,583.5 -274.9,806.9 l -787.3,895.8 c -196.3,223.4 -468,357 -764.9,376.1 -283.8,18.2 -558.5,-70.2 -777.4,-249.9 M 19742.1,27334 c -6.2,0 -12.4,0.2 -18.6,0.6 -75,4.8 -143.6,38.6 -193.2,95 l -2308.8,2626.8 c -49.6,56.5 -74.3,129 -69.5,203.9 4.8,75.1 38.6,143.7 95.1,193.3 287.6,252.8 656.5,378.8 1038.7,353.9 382.2,-24.7 731.9,-196.7 984.7,-484.3 l 787.3,-895.8 c 252.8,-287.6 378.5,-656.4 353.9,-1038.6 -24.6,-382.2 -196.6,-731.9 -484.3,-984.7 -51.8,-45.6 -117,-70.1 -185.3,-70.1" style="fill:#371a45;fill-opacity:1;fill-rule:nonzero;stroke:none" id="path224" data-index="106"/>
      <path d="m 8682.22,22712.7 c 50.35,44.3 127.07,39.3 171.34,-11 l 2308.74,-2626.8 c 44.3,-50.4 39.4,-127.1 -11,-171.4 -528.4,-464.4 -1333.21,-412.5 -1797.62,115.9 l -787.3,895.7 c -464.41,528.4 -412.55,1333.2 115.84,1797.6" style="fill: rgb(255, 255, 255); fill-opacity: 1; fill-rule: nonzero; opacity: 1;" id="path226" data-index="107"/>
      <path d="m 8682.22,22712.7 h 0.49 -0.49 m 80.02,1.5 c -22.51,0 -44,-8.1 -61.06,-23.1 -515.62,-453.2 -566.41,-1241.4 -113.23,-1757 l 787.31,-895.8 c 453.24,-515.6 1241.44,-566.4 1757.04,-113.2 18.6,16.4 29.7,39 31.3,63.7 1.6,24.7 -6.5,48.5 -22.9,67.1 l -2308.73,2626.8 c -16.35,18.6 -38.94,29.7 -63.65,31.3 -2.02,0.1 -4.05,0.2 -6.08,0.2 m 1548.96,-3155.8 c -361.92,-0.1 -722,149.4 -979.11,441.9 l -787.3,895.8 c -474.12,539.5 -420.97,1364.1 118.45,1838.2 30.13,26.4 68.73,39.3 108.77,37.1 40.04,-2.6 76.66,-20.6 103.15,-50.8 l 2308.74,-2626.7 c 26.5,-30.2 39.7,-68.8 37.1,-108.8 -2.6,-40 -20.6,-76.7 -50.7,-103.2 -246.9,-217 -553.7,-323.5 -859.1,-323.5" style="fill:#371a45;fill-opacity:1;fill-rule:nonzero;stroke:none" id="path228" data-index="108"/>
      <path d="m 10311.1,19747 c -309.4,0 -617.42,127.9 -837.26,378 l -158.26,180 c 76.35,-14 153.87,-21.1 231.46,-21.1 242.62,0 486.16,68.9 698.66,208.7 227.8,-197.4 467.8,-375.7 717.7,-534.6 -195,-141.4 -424,-211 -652.3,-211" style="fill:#b9afbe;fill-opacity:1;fill-rule:nonzero;stroke:none" id="path230" data-index="109"/>
      <path d="m 8682.22,22712.7 h 0.49 -0.49 m 77.07,-146.1 c -434.4,-409 -469.61,-1094.3 -72.73,-1545.9 l 787.28,-895.7 c 396.9,-451.5 1080.96,-504.6 1542.36,-126.3 l -2256.91,2567.9 m 1551.91,-3139.5 c -398.33,0 -794.66,164.6 -1077.7,486.6 l -787.29,895.8 c -521.9,593.8 -463.41,1501.5 130.39,2023.4 h -0.05 0.02 0.03 c 56.47,49.6 129.01,74 203.86,69.4 75.02,-4.8 143.67,-38.5 193.31,-95 l 2308.73,-2626.8 c 49.6,-56.4 74.3,-128.8 69.5,-203.9 -4.9,-75 -38.6,-143.6 -95.1,-193.2 -271.8,-238.9 -609.4,-356.3 -945.7,-356.3" style="fill:#371a45;fill-opacity:1;fill-rule:nonzero;stroke:none" id="path232" data-index="110"/>
      <path d="m 18996.6,28725.9 c 1992.1,-2620.1 1482.9,-6359 -1137.1,-8351 -2620.1,-1992.1 -6359,-1483 -8351.04,1137.1 -1992.06,2620.1 -1482.93,6359 1137.14,8351 2620.1,1992.1 6359,1482.9 8351,-1137.1" style="fill:#ffffff;fill-opacity:1;fill-rule:nonzero;stroke:none" id="path234" data-index="111"/>
      <path d="m 14245.6,31047.5 c -1251.3,0 -2512,-393.4 -3582.6,-1207.4 C 8059.75,27860.9 7552.08,24132.7 9531.34,21529.4 11510.6,18926.1 15238.8,18418.5 17842,20397.8 c 1261.1,958.7 2073.4,2351.2 2287.1,3920.9 213.8,1569.7 -196.6,3128.7 -1155.4,4389.8 -1165.2,1532.7 -2936.9,2339 -4728.1,2339 m 14,-11914.5 c -1808.8,0 -3597.3,813.9 -4774.01,2361.6 -1998.45,2628.5 -1485.87,6392.9 1142.61,8391.3 2628.6,1998.5 6392.9,1485.9 8391.3,-1142.6 968.1,-1273.3 1382.4,-2847.4 1166.6,-4432.4 -215.8,-1584.8 -1035.9,-2990.8 -2309.2,-3958.9 -1080.9,-821.8 -2354.2,-1219 -3617.3,-1219" style="fill:#371a45;fill-opacity:1;fill-rule:nonzero;stroke:none" id="path236" data-index="112"/>
      <path d="m 14259.4,19321.6 c -22.2,0 -44.2,0.1 -66.3,0.4 1037.8,192.6 2304.3,657.9 3377.6,1515.6 1138.8,909.9 1887.3,1998.1 2321.1,2924.5 -310,-1298.7 -1052.2,-2441 -2129.2,-3259.9 -1046.9,-796 -2279.7,-1180.6 -3503.2,-1180.6" style="fill:#b9afbe;fill-opacity:1;fill-rule:nonzero;stroke:none" id="path238" data-index="113"/>
      <path d="m 14245.7,30916.3 c -1223.5,0 -2456.3,-384.7 -3503.3,-1180.7 C 8196.82,27800.2 7700.37,24154.5 9635.83,21608.8 11571.3,19063.2 15217,18566.7 17762.6,20502.2 c 1233.2,937.6 2027.5,2299.3 2236.5,3834.2 209,1535 -192.3,3059.4 -1129.8,4292.7 -1139.6,1498.7 -2872,2287.2 -4623.6,2287.2 m 14,-11914.5 c -1848.4,0 -3676.1,831.8 -4878.61,2413.4 -2042.24,2686.1 -1518.41,6532.9 1167.71,8575.2 2686.1,2042.3 6532.9,1518.4 8575.2,-1167.7 989.3,-1301.2 1412.7,-2909.8 1192.1,-4529.4 -220.5,-1619.7 -1058.6,-3056.5 -2359.8,-4045.8 -1104.5,-839.8 -2405.7,-1245.7 -3696.6,-1245.7" style="fill: rgb(55, 26, 69); fill-opacity: 1; fill-rule: nonzero; opacity: 1;" id="path240" data-index="114"/>
      <path d="m 19074.1,28592.5 c 719.8,-917.6 1090.1,-2003.1 1133.6,-3107.5 32.6,-828 -811.9,-2984.3 -2736.8,-4522.4 -1784.9,-1426.1 -4172.1,-1750.6 -4968.5,-1521.8 -1062.3,305.3 -2028.4,923.5 -2748.13,1841.1 -1904.7,2428.2 -608.11,5071.2 1965.63,7090.1 2573.7,2018.8 5449.5,2648.7 7354.2,220.5" style="fill: rgb(55, 26, 69); fill-opacity: 1; fill-rule: nonzero; opacity: 1;" id="path242" data-index="115"/>
      <path d="m 16020.2,30009.8 c -1694.1,0 -3349.9,-1095.6 -4201.6,-1763.7 -1329.2,-1042.7 -2231.51,-2189.6 -2609.21,-3316.5 -419.76,-1252.4 -194.07,-2446.4 670.77,-3549 675.64,-861.3 1597.74,-1478.9 2666.44,-1786 758.6,-218 3084.3,102.6 4824.4,1493 1928.5,1541 2705.9,3653.5 2676.8,4391.1 -43.7,1111.1 -423.9,2153.7 -1099.6,3015.1 -879,1120.6 -1910.5,1516 -2928,1516 M 13118,19213.9 c -270.2,0 -495.5,25.9 -659.8,73.2 -1133.8,325.7 -2112.4,981.4 -2829.79,1896.1 -935.5,1192.5 -1178.55,2487.2 -722.44,3848 397.66,1186.5 1336.53,2385.3 2715.13,3466.7 1378.6,1081.3 2766.5,1707.8 4013.5,1811.4 1430.5,118.7 2629.9,-425.5 3565.4,-1618.1 717.4,-914.6 1121.2,-2021.1 1167.6,-3199.9 32.2,-817.8 -755.2,-3022.3 -2796.9,-4653.7 C 16083.2,19649 14224.8,19213.9 13118,19213.9" style="fill:#371a45;fill-opacity:1;fill-rule:nonzero;stroke:none" id="path244" data-index="116"/>
      <path d="m 17519.5,26735.5 c -324.8,0.1 -684.4,244.3 -894.4,641.9 -272,515.1 -190,1092.4 183.2,1289.5 85.1,45 178,66.3 273.9,66.3 244.1,0 507.8,-138 713,-375.3 123.9,-230.7 233.4,-466.7 328.5,-707.1 55.6,-369.8 -62.3,-707.5 -330.3,-849 -85.1,-45 -178,-66.3 -273.9,-66.3" style="fill:#c3bac7;fill-opacity:1;fill-rule:nonzero;stroke:none" id="path246" data-index="117"/>
      <path d="m 17895,25036 c -179.9,0 -358,131.1 -432,335.4 -90.9,251.4 10.2,518.5 225.9,596.5 40.4,14.7 81.9,21.6 123.4,21.6 179.9,0 358,-131.1 432,-335.3 91,-251.4 -10.1,-518.5 -225.9,-596.6 -40.4,-14.6 -81.9,-21.6 -123.4,-21.6" style="fill:#c3bac7;fill-opacity:1;fill-rule:nonzero;stroke:none" id="path248" data-index="118"/>
      <path d="m 15632.6,20080.8 c 2084.2,1904.3 3004,4329.8 2965.6,5304.9 -30.4,772.9 -187,1538.6 -474.5,2265.1 -21.9,145.2 -70.4,295.3 -147.1,440.4 -52.2,98.9 -113.6,188.2 -181.4,266.7 -180.9,336.6 -392.7,661.6 -635.9,971.6 -183.9,234.8 -375.3,446.7 -573,637.4 828.5,-128.6 1645.8,-560.2 2361.9,-1473.1 675.7,-861.4 1055.9,-1904 1099.6,-3015.1 29.1,-737.6 -748.3,-2850.1 -2676.8,-4391.1 -544.2,-434.8 -1145.5,-765 -1738.4,-1006.8" style="fill:#2a1a3b;fill-opacity:1;fill-rule:nonzero;stroke:none" id="path250" data-index="119"/>
      <path d="m 15290.9,19782.4 c 117.3,97.8 231,197.3 341.7,298.4 592.9,241.8 1194.2,572 1738.4,1006.8 1928.5,1541 2705.9,3653.5 2676.8,4391.1 -43.7,1111.1 -423.9,2153.7 -1099.6,3015.1 -716.1,912.9 -1533.4,1344.5 -2361.9,1473.1 -64.5,62.2 -129.7,122.2 -195.4,179.9 996,-96.7 1917.9,-579.1 2683,-1554.2 720,-917.8 1090.1,-2003.4 1133.9,-3107.5 32.5,-828.1 -812.2,-2984.5 -2736.9,-4522.7 -679.5,-543.3 -1446.4,-926.4 -2180,-1180" style="fill:#2a1a3b;fill-opacity:1;fill-rule:nonzero;stroke:none" id="path252" data-index="120"/>
      <path d="m 18123.7,27650.8 c -95.1,240.4 -204.6,476.4 -328.5,707.1 67.8,-78.5 129.2,-167.8 181.4,-266.7 76.7,-145.1 125.2,-295.2 147.1,-440.4" style="fill:#858290;fill-opacity:1;fill-rule:nonzero;stroke:none" id="path254" data-index="121"/>
      <path d="m 17002.1,30407.5 h 0.5 z M 8478.11,23628 l 3.05,-0.2 z m 3.18,-160.2 c -2.47,0 -4.91,0.1 -7.4,0.2 -84.08,3.8 -150.07,71.9 -152.66,154.7 -125.03,1856.1 928.44,3803.1 2890.97,5342.6 1948.6,1528.5 4071.8,2110.6 5826.8,1598.1 71,-16.3 124,-80 124,-155.9 0,-88.4 -71.6,-160 -159.9,-160 -4.9,0 -10.8,0.3 -15.6,0.7 -10.4,0.9 -20.6,2.9 -30.7,5.8 -1656.2,487.4 -3678,-74.3 -5547.1,-1540.4 -1879.49,-1474.4 -2888.69,-3323.7 -2768.89,-5073.8 0.27,-3.7 0.39,-7.3 0.39,-10.9 0,-2.5 -0.1,-5.9 -0.2,-8.3 -3.9,-85.8 -74.7,-152.8 -159.71,-152.8" style="fill:#371a45;fill-opacity:1;fill-rule:nonzero;stroke:none" id="path256" data-index="122"/>
      <path d="m 11933.9,20658.3 c 0,0 -2631.05,1805.5 -2088.87,3772.7 515.87,1871.7 2225.17,3278.2 2432.87,3278.2 10.6,0 17.3,-3.7 19.7,-11.1 0,0 -1665.7,-2110.7 -1195.2,-4367.4 362.9,-1740.1 831.5,-2672.4 831.5,-2672.4" style="fill:#c3bac7;fill-opacity:1;fill-rule:nonzero;stroke:none" id="path258" data-index="123"/>
      <path d="m 27666.8,15472.2 c 124.5,105.9 241.6,219.4 347.4,338.1 106.7,118 200.8,243.8 279.6,373.6 78,130.5 136.2,266.8 175.9,403.5 40.7,137.3 55.4,275.7 61.4,419.7 l 0.3,6.7 c 3.7,88.6 78.5,157.4 167.1,153.7 76.9,-3.2 138.9,-60.1 151.5,-133 31.6,-183.2 11.1,-377 -49.5,-552.2 -59,-176.7 -159.6,-332.3 -273.2,-467.8 -115.3,-134.9 -246.7,-250.4 -387.6,-347.7 -141.9,-96.4 -290.5,-178.4 -451.3,-234.8 -12,-4.3 -25.2,2.1 -29.5,14.1 -3.2,9.3 -0.2,19.3 6.8,25.3 l 1.1,0.8" style="fill:#371a45;fill-opacity:1;fill-rule:nonzero;stroke:none" id="path260" data-index="124"/>
      <path d="m 22118.2,10733.8 c -58.9,-159.9 -143.2,-307.2 -241.8,-447.5 -99.5,-139.4 -217,-269 -353.7,-382.1 -137.3,-111.6 -294.5,-209.7 -472.1,-265.9 -176.1,-57.9 -370.2,-75.4 -552.8,-40.9 -87.1,16.5 -144.4,100.5 -127.9,187.6 14.3,75.6 79.4,128.7 153.4,130.6 l 6.9,0.2 c 144,3.8 282.6,16.3 420.5,54.9 137.3,37.5 274.5,93.6 406.2,169.6 131.1,76.7 258.3,168.8 377.9,273.6 120.4,103.9 235.7,219.3 343.5,342.2 l 0.9,1 c 8.4,9.6 23,10.5 32.6,2.1 7.4,-6.5 9.6,-16.7 6.4,-25.4" style="fill:#371a45;fill-opacity:1;fill-rule:nonzero;stroke:none" id="path262" data-index="125"/>
      <path d="m 24480.7,21986.3 c -30.5,0 -61.1,11.6 -84.5,34.8 -864.2,858 -2020.7,84.4 -2069.4,51.1 -54.8,-37.2 -129.4,-23.4 -166.8,31.2 -37.4,54.7 -23.5,129.2 31.1,166.7 13.6,9.3 1368.4,919.9 2374.2,-78.6 47,-46.7 47.3,-122.7 0.6,-169.7 -23.4,-23.7 -54.3,-35.5 -85.2,-35.5" style="fill:#371a45;fill-opacity:1;fill-rule:nonzero;stroke:none" id="path264" data-index="126"/>
      <path d="m 14700.7,15284.4 c -43.9,0 -86.2,24.2 -107.3,66 -467,927.2 -2067.7,2000.1 -2083.8,2010.8 -55.1,36.7 -70.1,111.3 -33.3,166.4 36.7,55.2 111.1,70.3 166.3,33.4 68,-45.2 1669.6,-1118.7 2165.2,-2102.6 29.8,-59.2 5.9,-131.3 -53.2,-161.1 -17.4,-8.7 -35.8,-12.9 -53.9,-12.9" style="fill:#371a45;fill-opacity:1;fill-rule:nonzero;stroke:none" id="path266" data-index="127"/>
      <path d="m 25395.1,15843.2 c -56.3,0 -106.5,39.8 -117.7,97.1 -13.3,68.5 -319.3,1693.2 385.3,2878.8 737.9,1241.2 1923.4,668.2 1935.2,662.3 59.4,-29.5 83.4,-101.6 53.8,-160.9 -29.5,-59.3 -101.7,-83.4 -160.9,-53.8 -40.2,19.9 -999.5,476.8 -1621.7,-570.3 -657.2,-1105.8 -359.2,-2694.3 -356.1,-2710.3 12.6,-65 -29.9,-128 -94.9,-140.6 -7.7,-1.6 -15.4,-2.3 -23,-2.3" style="fill:#371a45;fill-opacity:1;fill-rule:nonzero;stroke:none" id="path268" data-index="128"/>
    </g>
  </g>
</svg>